<svg width="132" height="121" viewBox="0 0 132 121" fill="none" xmlns="http://www.w3.org/2000/svg">
<path d="M131.111 60.1322C130.083 64.9001 126.351 67.848 123.464 71.3388C118.471 77.4067 113.256 83.2948 108.235 89.3398C104.278 94.1076 99.1316 96.0882 93.1249 96.1226C82.4421 96.18 71.7631 96.0997 61.0802 96.2105C57.3332 96.2526 53.59 96.6885 49.8774 96.9408C49.973 98.5849 50.1528 99.9729 50.1069 101.353C50.0196 103.375 49.1682 105.288 47.7248 106.706C43.4043 111.191 39.0455 115.634 34.6944 120.088C34.3885 120.402 34.0329 120.669 33.7003 120.96H31.7886C29.9686 119.266 28.1218 117.595 26.3363 115.863C25.1892 114.743 25.1395 113.137 26.1451 112.093C27.1507 111.049 28.7259 111.061 29.9265 112.151C30.8327 112.973 31.7006 113.829 32.3277 114.426C34.5682 112.346 36.7553 110.373 38.8773 108.335C40.4526 106.805 41.9361 105.238 43.4655 103.666C45.5569 101.498 45.5607 99.2923 43.4387 97.2238C36.8623 90.8156 30.2732 84.4202 23.6713 78.0375C21.9431 76.3629 19.5802 76.0799 18.047 77.6055C14.0858 81.5437 10.2432 85.6004 6.45035 89.508L13.715 97.0288C14.1585 97.4876 14.6364 97.912 15.057 98.3823C16.0779 99.5293 16.0587 101.059 15.0379 102.057C14.5557 102.517 13.9149 102.773 13.2485 102.773C12.5821 102.773 11.9413 102.517 11.4591 102.057C10.2165 100.91 9.05031 99.709 7.85356 98.5276C5.78633 96.4884 3.71655 94.4492 1.64423 92.41C-0.508394 90.2918 -0.542815 89.313 1.51422 87.1718C5.32496 83.2082 9.14207 79.247 12.9656 75.2885C17.1484 70.9603 20.3449 70.3753 25.6519 72.8605C27.6401 70.7614 29.4754 68.5362 31.5859 66.655C39.3896 59.746 48.4092 57.7234 58.4573 60.4495C62.1026 61.4165 65.8622 61.8847 69.6334 61.8413C76.0454 61.8069 82.4535 61.8413 88.8655 61.8413C92.689 61.8413 95.8701 63.1451 98.2407 66.4294C98.623 66.0777 98.9633 65.7565 99.2998 65.4239C103.735 61.0473 108.168 56.6719 112.598 52.2979C115.714 49.2391 119.48 48.3329 123.648 49.2888C127.471 50.1758 129.804 52.7682 130.813 56.5534C130.889 56.8516 131 57.1422 131.1 57.4366L131.111 60.1322ZM29.7162 76.4699C35.1379 81.7004 40.3952 86.7933 45.6908 91.8403C46.0822 92.0974 46.5533 92.2046 47.0175 92.1424C52.9515 91.76 58.8703 91.1674 64.8158 91.0412C73.9501 90.85 83.0959 90.9647 92.234 90.9877C97.4874 90.9877 101.793 89.3207 105.142 84.9963C108.813 80.2552 112.873 75.8199 116.758 71.2318C119.407 68.1156 122.076 65.0148 124.692 61.868C125.289 61.2039 125.68 60.3798 125.816 59.4969C125.951 58.6139 125.826 57.7105 125.456 56.8975C125.17 56.147 124.679 55.492 124.039 55.0067C123.399 54.5214 122.635 54.2254 121.835 54.1522C120.796 53.9903 119.733 54.0793 118.736 54.4119C117.738 54.7444 116.834 55.3109 116.1 56.064C111.28 60.8867 106.425 65.6762 101.537 70.4326C100.509 71.3689 99.8442 72.6374 99.6592 74.0152C99.0054 78.3969 94.964 82.0942 90.5555 82.2051C84.4379 82.3619 78.2821 82.2893 72.1454 82.3084C71.9171 82.3078 71.6892 82.286 71.4648 82.2434C70.9156 82.1881 70.4035 81.9406 70.0188 81.5448C69.6341 81.1489 69.4015 80.6299 69.3619 80.0793C69.1899 78.8061 69.7137 77.8273 70.9181 77.3646C71.5217 77.1712 72.1544 77.0845 72.7878 77.1084C78.4733 77.0855 84.155 77.1314 89.8405 77.0664C90.5573 77.0542 91.2627 76.8858 91.9076 76.5728C92.5525 76.2598 93.1213 75.8097 93.5742 75.2541C94.0272 74.6985 94.3533 74.0507 94.53 73.3559C94.7066 72.6612 94.7295 71.9362 94.5969 71.2318C94.1304 68.5553 92.2225 67.0603 89.0949 67.0489C82.6409 67.0259 76.1843 67.0259 69.7251 67.0489C65.3622 67.0765 61.0151 66.5236 56.798 65.4048C55.2284 64.9572 53.6186 64.6652 51.9918 64.533C42.1693 63.906 35.3062 68.8574 29.7162 76.4699Z" fill="#1F140F"/>
<path d="M75.1431 55.284C60.1894 55.284 47.9161 43.0833 47.9237 28.2061C47.9267 20.9888 50.792 14.0674 55.8911 8.95972C60.9901 3.85205 67.9067 0.975146 75.1239 0.959961C90.1196 0.959961 102.412 13.2639 102.34 28.1908C102.308 35.3846 99.4295 42.2733 94.333 47.3504C89.2365 52.4276 82.3369 55.28 75.1431 55.284ZM97.0822 28.2023C97.1281 16.1201 87.2979 6.15608 75.2884 6.12549C72.3867 6.11392 69.5113 6.67418 66.8262 7.77426C64.1412 8.87434 61.6992 10.4927 59.6398 12.5368C57.5804 14.5809 55.9439 17.0108 54.8239 19.6876C53.7038 22.3644 53.1222 25.2356 53.1122 28.1373C53.0319 40.1201 62.9309 50.042 75.0093 50.0841C77.8989 50.1093 80.7649 49.562 83.4418 48.4736C86.1187 47.3853 88.5535 45.7775 90.6057 43.743C92.6579 41.7086 94.2869 39.2878 95.3985 36.6205C96.5101 33.9531 97.0823 31.092 97.0822 28.2023Z" fill="#1F140F"/>
<path d="M20.452 95.8857C19.5428 95.8943 18.6408 95.7226 17.7983 95.3806C16.9558 95.0386 16.1894 94.533 15.5434 93.8931C14.8975 93.2532 14.3847 92.4916 14.0348 91.6523C13.6848 90.813 13.5047 89.9128 13.5047 89.0035C13.483 88.0767 13.6468 87.1549 13.9864 86.2923C14.3261 85.4297 14.8348 84.6437 15.4826 83.9805C16.1303 83.3174 16.9042 82.7904 17.7586 82.4306C18.613 82.0708 19.5307 81.8855 20.4577 81.8855C21.3848 81.8855 22.3025 82.0708 23.1569 82.4306C24.0113 82.7904 24.7851 83.3174 25.4329 83.9805C26.0807 84.6437 26.5894 85.4297 26.9291 86.2923C27.2687 87.1549 27.4325 88.0767 27.4107 89.0035C27.4108 89.9137 27.2303 90.815 26.8796 91.655C26.529 92.495 26.0152 93.2571 25.368 93.8972C24.7208 94.5373 23.9531 95.0426 23.1092 95.384C22.2654 95.7253 21.3622 95.8958 20.452 95.8857ZM20.2302 90.7202C21.4346 90.7202 22.2873 89.9288 22.2261 88.9346C22.2241 88.4732 22.0404 88.031 21.7148 87.704C21.3892 87.3769 20.9479 87.1913 20.4864 87.1873C20.2479 87.1852 20.0114 87.231 19.7909 87.322C19.5704 87.413 19.3705 87.5474 19.2029 87.7171C19.0353 87.8869 18.9035 88.0885 18.8153 88.3101C18.7271 88.5317 18.6842 88.7688 18.6894 89.0073C18.7658 90.0396 19.3776 90.6055 20.2302 90.7202Z" fill="#1F140F"/>
<path d="M20.6395 109.78C19.9515 109.802 19.283 109.549 18.7812 109.078C18.2793 108.607 17.985 107.956 17.963 107.268C17.9681 106.562 18.2523 105.886 18.7536 105.388C19.255 104.89 19.9329 104.611 20.6395 104.611C20.9789 104.613 21.3146 104.681 21.6275 104.813C21.9405 104.944 22.2244 105.136 22.4632 105.377C22.7019 105.619 22.8908 105.905 23.0191 106.219C23.1474 106.533 23.2125 106.869 23.2107 107.209C23.209 107.548 23.1404 107.884 23.0089 108.197C22.8774 108.51 22.6855 108.794 22.4442 109.033C22.203 109.271 21.9171 109.46 21.6028 109.589C21.2886 109.717 20.9521 109.782 20.6127 109.78H20.6395Z" fill="#1F140F"/>
<path d="M61.4511 82.6907C60.7667 82.6679 60.1163 82.3866 59.631 81.9035C59.1457 81.4203 58.8616 80.7712 58.8358 80.0869C58.8645 79.3785 59.1664 78.7088 59.6783 78.2183C60.1902 77.7279 60.8722 77.4547 61.5811 77.4563C62.2666 77.4717 62.9201 77.7496 63.4067 78.2326C63.8933 78.7157 64.1759 79.3671 64.1963 80.0524C64.1631 80.7599 63.86 81.4277 63.3493 81.9185C62.8387 82.4092 62.1593 82.6856 61.4511 82.6907Z" fill="#1F140F"/>
<path d="M82.989 20.1156C83.031 22.6047 82.0675 23.8053 80.5037 23.8626C78.9399 23.92 77.9649 22.9717 77.789 21.1326C77.6399 19.6033 76.7834 18.6818 75.3649 18.5556C74.523 18.4861 73.6833 18.7128 72.9907 19.1966C72.2982 19.6804 71.7964 20.3909 71.572 21.2053C71.1897 22.8341 71.6255 23.8129 73.2161 24.4438C73.9316 24.7184 74.6819 24.8922 75.4452 24.96C80.3011 25.4264 84.2392 29.6628 84.1475 34.3428C84.0672 37.9101 81.9604 40.7624 78.3587 42.1312C77.7648 42.3809 77.2729 42.8243 76.9631 43.3891C76.4661 44.1233 75.4682 44.9185 74.6691 44.9185C73.8699 44.9185 73.0556 44.0353 72.2947 43.4694C71.832 43.1253 71.53 42.5059 71.0444 42.2574C67.4542 40.4489 65.9133 37.3939 65.6915 33.559C65.6682 33.2159 65.7132 32.8715 65.8239 32.5459C65.9346 32.2203 66.1088 31.9199 66.3364 31.6621C66.564 31.4043 66.8404 31.1942 67.1497 31.044C67.4591 30.8937 67.7952 30.8064 68.1386 30.7869C69.4844 30.6875 70.5626 31.6166 70.8417 33.1154C70.88 33.341 70.9182 33.5666 70.9526 33.7884C71.465 37.4321 73.8203 38.6709 77.0702 37.0154C79.1005 35.9907 79.674 33.4404 78.0031 31.911C77.0206 30.9986 75.79 30.3973 74.4664 30.1828C70.3523 29.6972 67.0221 27.124 66.3109 23.5185C65.5998 19.9129 67.4274 16.2539 70.8685 14.453C71.53 14.1127 72.0385 13.8374 72.2105 12.958C72.417 11.9028 73.285 11.3063 74.3976 11.226C75.5102 11.1457 76.4661 11.5357 76.8484 12.5642C77.1772 13.4474 77.7775 13.7571 78.5231 14.1318C81.2607 15.5007 83.0234 17.5424 82.989 20.1156Z" fill="#1F140F"/>
</svg>
