<svg width="120" height="121" viewBox="0 0 120 121" fill="none" xmlns="http://www.w3.org/2000/svg">
<path d="M0 2.07085C0.565181 1.13133 1.39459 0.881757 2.46991 0.881757C24.2917 0.906224 46.1124 0.906224 67.9318 0.881757C68.3947 0.866014 68.8556 0.949575 69.2835 1.12682C69.7115 1.30407 70.0965 1.57091 70.4127 1.90937C77.8555 9.3766 85.3105 16.8279 92.7777 24.2634C93.151 24.6279 93.4424 25.0679 93.6322 25.5539C93.8221 26.0399 93.9061 26.5608 93.8787 27.0819C93.8616 38.1678 93.8616 49.2536 93.8787 60.3395V61.5726L94.0952 61.613C94.2677 61.246 94.4622 60.879 94.609 60.512L102.602 40.9545C103.965 37.6295 106.308 36.641 109.63 37.9892C111.867 38.9042 114.098 39.8217 116.324 40.7417C119.495 42.0519 120.494 44.43 119.191 47.6266C116.079 55.2675 112.955 62.9036 109.821 70.5348C109.762 70.6779 109.696 70.821 109.63 70.9605C109.087 72.1129 108.184 72.5459 107.197 72.1312C106.21 71.7165 105.836 70.7843 106.309 69.5879C107.359 66.9455 108.445 64.3214 109.517 61.6901C110.133 60.1817 110.75 58.6733 111.421 57.0218L101.593 52.9848L86.4139 90.0849L96.2459 94.1219C97.5964 90.8409 98.9323 87.6076 100.257 84.3707C101.358 81.6732 102.404 78.9391 103.612 76.2967C103.799 75.9791 104.05 75.7041 104.35 75.4893C104.649 75.2744 104.99 75.1244 105.351 75.0489C105.81 74.9718 106.661 75.5406 106.867 76.0214C107.064 76.6805 107.02 77.3885 106.742 78.0179C105.215 81.8898 103.612 85.7249 102.033 89.5858C101.57 90.5718 101.159 91.5812 100.8 92.6098C99.8532 96.0545 97.7517 99.0694 94.8476 101.15C94.0769 101.704 93.8493 102.398 93.8604 103.352C93.9081 108.27 93.8603 113.188 93.897 118.105C93.897 119.206 93.6622 120.164 92.774 120.88H0V22.9201C0.214591 22.6465 0.450179 22.3901 0.704634 22.1531C0.938863 21.9597 1.22012 21.8316 1.51983 21.7821C1.81955 21.7325 2.12704 21.7631 2.41108 21.8709C2.69513 21.9786 2.9456 22.1596 3.13706 22.3954C3.32853 22.6313 3.45414 22.9136 3.50118 23.2137C3.5704 23.7564 3.59372 24.304 3.57091 24.8506C3.57091 55.1012 3.57091 85.353 3.57091 115.606V117.184H90.128V105.635C89.8727 105.789 89.6275 105.959 89.394 106.145C88.3517 107.088 87.3828 108.123 86.2598 108.956C85.735 109.345 84.8175 109.639 84.278 109.44C83.7385 109.242 83.2137 108.395 83.1329 107.774C82.887 105.884 82.8503 103.965 82.7659 102.056C82.5898 98.7534 82.3989 95.4321 82.2962 92.1181C82.2812 91.1907 82.4522 90.2698 82.799 89.4096C85.1184 83.6293 87.5076 77.8821 89.8527 72.1129C90.0743 71.6175 90.1989 71.0843 90.2197 70.5421C90.2368 56.6475 90.2368 42.7516 90.2197 28.8545C90.2197 28.5866 90.1793 28.3224 90.15 27.9113H69.5319C67.2712 27.9113 66.7831 27.4159 66.7831 25.1662V4.53342H3.65898C3.63696 4.94446 3.59293 5.35183 3.59293 5.7592C3.59293 9.11725 3.59293 12.4753 3.59293 15.8334C3.59293 16.8353 3.43145 17.7271 2.36348 18.1124C1.29551 18.4978 0.60922 17.8372 0.0110096 17.0628L0 2.07085ZM70.5265 7.57585V24.278H87.2727L70.5265 7.57585ZM112.805 53.6674C113.906 50.9736 114.963 48.3459 116.038 45.7255C116.346 44.9695 115.987 44.5181 115.341 44.2575C112.794 43.2042 110.247 42.1363 107.663 41.1784C107.296 41.0426 106.423 41.3729 106.272 41.7032C105.12 44.2722 104.089 46.9146 102.969 49.6451L112.805 53.6674ZM85.9992 93.8503C86.1754 97.2524 86.3442 100.456 86.5203 103.899L93.9154 97.0909L85.9992 93.8503Z" fill="#1F140F"/>
<path d="M11.9605 73.9736C11.9605 71.8304 11.9605 69.6834 11.9605 67.5401C11.9605 65.7932 12.6248 65.1216 14.357 65.1143C18.394 65.1143 22.4714 65.0886 26.5267 65.1143C27.3525 65.1143 27.9287 64.9161 28.3617 64.2151C28.6866 63.7253 29.0551 63.2659 29.4627 62.8425C30.2298 62.0168 31.184 61.903 31.9657 62.4939C32.7474 63.0847 32.9236 64.1344 32.2483 65.0922C31.6207 65.984 30.8647 66.7878 30.2628 67.6943C29.9447 68.1607 29.7595 68.705 29.727 69.2687C29.6793 72.8947 29.705 76.5206 29.7013 80.1502C29.7013 82.2421 29.0811 82.8477 26.9671 82.8477H14.5625C12.5844 82.8477 11.9642 82.2275 11.9605 80.2787C11.9568 78.1868 11.9605 76.0802 11.9605 73.9736ZM25.9285 79.141V73.2066C25.1358 74.2048 24.4899 75.0636 23.7926 75.882C22.776 77.0748 21.8145 77.1335 20.7061 76.0692C19.6932 75.0905 18.6999 74.0984 17.7261 73.0928C16.86 72.1937 16.7902 71.1331 17.5022 70.3917C18.2913 69.5696 19.2711 69.6173 20.2877 70.5532C20.8749 71.0927 21.4365 71.6542 22.0604 72.2671L24.6734 68.887H15.7076V79.141H25.9285Z" fill="#1F140F"/>
<path d="M20.7796 59.4552C18.6327 59.4552 16.4894 59.4552 14.3424 59.4552C12.6469 59.4552 11.9716 58.7982 11.9679 57.1467C11.9532 52.7794 11.9532 48.4121 11.9679 44.0448C11.9679 42.419 12.6689 41.729 14.3461 41.7217C18.3244 41.7034 22.3026 41.6703 26.2773 41.7437C27.3379 41.7437 28.0425 41.4501 28.5894 40.584C28.8643 40.158 29.1815 39.7609 29.5362 39.3986C30.2702 38.6426 31.3712 38.5471 32.0538 39.1894C32.2315 39.3303 32.3794 39.5052 32.4887 39.7039C32.598 39.9026 32.6666 40.1211 32.6906 40.3466C32.7145 40.5721 32.6932 40.8001 32.628 41.0173C32.5628 41.2345 32.4549 41.4365 32.3107 41.6116C31.6905 42.5071 30.9308 43.3071 30.3436 44.2246C29.9867 44.7536 29.7765 45.3678 29.7344 46.0046C29.6757 49.5939 29.7087 53.1795 29.7051 56.7687C29.7051 58.8716 29.1032 59.4551 26.9782 59.4588L20.7796 59.4552ZM15.7077 45.4357V55.7411H25.936V49.8104C25.1689 50.7756 24.5524 51.5793 23.9065 52.3794C22.8055 53.7043 21.8622 53.7813 20.6585 52.6179C19.6798 51.6662 18.7146 50.701 17.7628 49.7223C16.8894 48.8121 16.805 47.7662 17.5023 47.0138C18.2693 46.1918 19.2859 46.2321 20.2915 47.1496C20.8824 47.6891 21.4439 48.2506 22.0715 48.8672L24.7542 45.4431L15.7077 45.4357Z" fill="#1F140F"/>
<path d="M20.886 88.5288C23.088 88.5288 25.257 88.5288 27.4406 88.5288C28.9564 88.5288 29.683 89.2151 29.694 90.7308C29.7234 95.1348 29.7234 99.545 29.694 103.961C29.694 105.539 28.9601 106.233 27.3709 106.24C22.9987 106.267 18.629 106.267 14.2617 106.24C12.6579 106.24 11.9716 105.506 11.9679 103.947C11.9532 99.5743 11.9532 95.2046 11.9679 90.8373C11.9679 89.1711 12.6469 88.5215 14.3351 88.5142C16.5151 88.5215 18.7024 88.5288 20.886 88.5288ZM25.9837 102.53V92.2539H15.7077V102.53H25.9837Z" fill="#1F140F"/>
<path d="M59.2486 67.9072C65.3653 67.9072 71.4905 67.9072 77.6243 67.9072C78.0831 67.9072 78.6996 67.8595 78.9639 68.1164C79.4483 68.5898 80.0392 69.3018 79.9878 69.8633C79.9364 70.4248 79.2171 70.9937 78.6629 71.379C78.3326 71.6102 77.7564 71.5221 77.294 71.5221C65.2344 71.5221 53.1772 71.5221 41.1225 71.5221C40.6945 71.5265 40.267 71.4921 39.8453 71.4194C38.8507 71.2322 38.3773 70.5899 38.4177 69.5844C38.458 68.5788 39.0452 68.1164 39.937 67.9218C40.2848 67.8746 40.6364 67.8623 40.9867 67.8852L59.2486 67.9072Z" fill="#1F140F"/>
<path d="M59.2815 44.4926H77.3049C77.6946 44.4715 78.0853 44.4875 78.472 44.5403C79.4262 44.7164 80.0537 45.311 80.0647 46.2835C80.0932 46.7207 79.9487 47.1515 79.6624 47.4831C79.3761 47.8146 78.971 48.0205 78.5344 48.0561C78.1133 48.124 77.6874 48.1572 77.2609 48.1552H41.2067C40.779 48.1639 40.3513 48.1319 39.9296 48.0598C38.902 47.869 38.3588 47.245 38.4212 46.1771C38.4836 45.1091 39.1552 44.6834 40.0837 44.5219C40.4332 44.4808 40.7857 44.471 41.137 44.4926H59.2815Z" fill="#1F140F"/>
<path d="M59.2596 91.329H77.5179C77.8692 91.3068 78.2219 91.3178 78.5711 91.362C79.0063 91.4084 79.4059 91.6234 79.6844 91.9609C79.9629 92.2984 80.0982 92.7316 80.0612 93.1677C80.0728 93.5854 79.9235 93.9916 79.6442 94.3024C79.3648 94.6132 78.9767 94.8047 78.5601 94.8375C78.1727 94.8803 77.7828 94.8975 77.3931 94.8889H41.1114C40.9169 94.8889 40.7224 94.8889 40.5279 94.8889C39.137 94.8449 38.4066 94.2283 38.4103 93.1016C38.414 91.9749 39.1443 91.34 40.5352 91.3327C42.796 91.3327 45.0604 91.3327 47.3247 91.3327L59.2596 91.329Z" fill="#1F140F"/>
<path d="M56.4153 103.488C51.2773 103.488 46.1296 103.488 40.972 103.488C40.5075 103.498 40.0439 103.441 39.5957 103.319C39.2515 103.198 38.9538 102.973 38.7444 102.674C38.5351 102.376 38.4246 102.019 38.4287 101.654C38.4327 101.289 38.5511 100.935 38.767 100.641C38.9829 100.347 39.2856 100.129 39.6324 100.016C40.1221 99.8942 40.6253 99.8363 41.1298 99.8433C51.2663 99.8433 61.4041 99.8433 71.5431 99.8433C73.4699 99.8433 74.3764 100.445 74.3653 101.704C74.3543 102.963 73.4515 103.513 71.5027 103.513L56.4153 103.488Z" fill="#1F140F"/>
<path d="M55.4464 56.6547C50.4516 56.6547 45.4567 56.6547 40.4618 56.6547C38.88 56.6547 37.9405 55.3922 38.5497 54.1297C38.9167 53.3297 39.6507 53.0838 40.4838 53.0874C42.55 53.0874 44.6199 53.0874 46.6898 53.0874H69.8659C71.7009 53.0874 72.6147 53.6857 72.6037 54.8858C72.5927 56.0858 71.7229 56.6583 69.8439 56.6583L55.4464 56.6547Z" fill="#1F140F"/>
<path d="M48.1871 23.9182H38.2341C37.8052 23.9273 37.3761 23.9089 36.9496 23.8631C36.7331 23.8506 36.5214 23.795 36.3267 23.6996C36.132 23.6042 35.9583 23.4709 35.8158 23.3076C35.6732 23.1442 35.5647 22.954 35.4966 22.7482C35.4285 22.5424 35.4022 22.325 35.4192 22.1089C35.4192 21.14 36.0137 20.5344 36.9936 20.3656C37.1487 20.3527 37.3046 20.3527 37.4597 20.3656C44.6431 20.3656 51.8253 20.3656 59.0063 20.3656C60.2541 20.3656 61.0688 21.0739 61.0945 22.1089C61.1202 23.1438 60.3201 23.8595 59.076 23.9439C58.7641 23.9439 58.4521 23.9439 58.1402 23.9439L48.1871 23.9182Z" fill="#1F140F"/>
<path d="M45.8237 80.0729C44.0694 80.0729 42.3188 80.0729 40.5646 80.0729C39.1993 80.0729 38.4323 79.4197 38.4103 78.3113C38.3883 77.203 39.1002 76.4763 40.4765 76.4543C44.0609 76.4127 47.644 76.4127 51.226 76.4543C52.5435 76.4543 53.3876 77.2544 53.3766 78.2893C53.3766 79.3903 52.4958 80.0729 51.0828 80.0839C49.3286 80.0803 47.578 80.0729 45.8237 80.0729Z" fill="#1F140F"/>
</svg>
