<svg width="121" height="120" viewBox="0 0 121 120" fill="none" xmlns="http://www.w3.org/2000/svg">
<path d="M58.8709 0H61.2168C61.3657 0.0973271 61.5242 0.179186 61.6898 0.244303C66.6134 1.57649 71.5371 2.90137 76.4608 4.21893C79.9562 5.15856 83.4578 6.07313 86.9407 7.03782C89.9068 7.87096 91.1346 11.2004 89.1582 13.3866C88.2186 14.4139 88.0589 15.4036 88.0996 16.6189C88.1372 17.7496 88.1372 18.8865 88.0996 20.0172C88.0603 20.4633 88.1301 20.9123 88.3031 21.3254C88.4761 21.7385 88.747 22.1033 89.0925 22.3882C90.0666 23.2276 90.1511 24.4429 89.4057 25.2979C88.6603 26.153 87.5264 26.2376 86.4709 25.4545C84.7545 24.1641 84.006 22.3851 83.9652 20.2772C83.9433 18.8114 83.9652 17.3424 83.9652 15.7576C82.8941 16.0363 82.0014 16.3245 81.09 16.4905C80.2881 16.6346 80.0219 16.9885 80.0376 17.8216C80.0908 20.8284 80.0564 23.8384 80.0627 26.8452C80.0627 27.1803 80.1159 27.5155 80.1503 27.9258H81.6412C91.6451 27.9258 101.646 27.9258 111.65 27.9258C116.624 27.9258 120.031 31.3711 120.034 36.3323C120.034 61.4956 120.034 86.6568 120.034 111.816C120.034 116.564 116.589 120 111.835 120C77.298 120 42.7583 120 8.2155 120C4.41 120 1.46269 117.858 0.278761 114.262C0.199892 114.059 0.106734 113.863 0 113.673V34.4311C2.25824 29.1473 4.14377 27.9164 9.98826 27.9164H39.9718C39.9718 24.2957 39.9718 20.7909 39.9405 17.286C39.9405 17.0449 39.5145 16.6784 39.2233 16.5907C37.2438 16.0144 35.2455 15.4976 33.2566 14.9589C31.2019 14.4045 29.9992 12.9074 30.0117 10.9279C30.0117 9.00164 31.2082 7.54835 33.2284 7.00337C39.3548 5.35588 45.4843 3.72719 51.6076 2.06092C54.0569 1.4345 56.4592 0.698457 58.8709 0ZM59.9734 116.038C77.1247 116.038 94.2772 116.038 111.431 116.038C114.453 116.038 116.063 114.431 116.063 111.412C116.063 86.4824 116.063 61.554 116.063 36.6267C116.063 33.6231 114.522 32.0758 111.528 32.0758C100.941 32.0758 90.3526 32.0831 79.762 32.0977C79.1541 32.1048 78.5613 32.2875 78.055 32.6239C73.2684 35.9749 67.6082 37.8569 61.7681 38.0393C54.4734 38.3275 47.7582 36.7583 41.7822 32.4297C41.4287 32.2015 41.0158 32.0827 40.5951 32.0883C29.7727 32.0695 18.9502 32.0758 8.12779 32.1071C7.27949 32.1362 6.45395 32.389 5.73487 32.84C4.33482 33.7045 4.03101 35.1546 4.03101 36.7176C4.03101 61.5279 4.03101 86.3394 4.03101 111.152C4.03101 114.553 5.54068 116.041 8.98912 116.041L59.9734 116.038ZM44.0843 17.8874C44.0843 21.3327 44.1218 24.5713 44.0623 27.8067C44.0435 28.7871 44.3755 29.3383 45.1899 29.8645C50.5145 33.3098 56.4059 34.3935 62.6325 33.9363C67.1297 33.6417 71.4667 32.1517 75.1954 29.6202C75.5368 29.3853 75.9627 28.9468 75.969 28.596C76.0254 25.0881 76.0034 21.5801 76.0034 18.0033C75.7015 18.0324 75.4014 18.0785 75.1045 18.1411C71.0109 19.2405 66.9047 20.3022 62.833 21.4705C61.0571 21.9811 59.3626 22.1596 57.5742 21.5394C56.0708 21.0195 54.5016 20.6875 52.9606 20.2866L44.0843 17.8874ZM85.4467 11.1252V10.9091C85.2776 10.8558 85.1116 10.7932 84.9425 10.7494C76.9076 8.57359 68.8685 6.40723 60.8253 4.25025C60.2257 4.12192 59.6037 4.14452 59.015 4.31603C54.464 5.50936 49.9319 6.7434 45.3809 7.96492L34.3967 10.9279C34.6412 11.0462 34.8922 11.1508 35.1484 11.2411C43.0726 13.3741 50.9937 15.5164 58.9304 17.6055C59.7088 17.7997 60.523 17.7997 61.3014 17.6055C67.5656 15.9831 73.7859 14.3012 80.0219 12.6255C81.8292 12.1463 83.6364 11.6295 85.4467 11.1252Z" fill="#1F140F"/>
<path d="M90.0729 107.65L87.1193 110.666C85.8226 111.991 84.2785 112.48 82.5402 111.756C80.8018 111.033 79.9969 109.564 79.9969 107.657C79.9969 102.733 79.975 97.8123 80.0188 92.8918C80.0188 91.9522 79.7589 91.4511 78.932 90.975C71.0015 86.3927 66.6793 77.0935 68.3236 68.2673C70.0807 58.8334 77.4067 51.6359 86.6996 50.2201C91.7775 49.4425 96.9675 50.4644 101.372 53.1089C105.776 55.7533 109.117 59.8541 110.817 64.7017C112.517 69.5493 112.47 74.8387 110.682 79.6547C108.895 84.4708 105.48 88.5106 101.029 91.0752C100.719 91.2143 100.461 91.4481 100.292 91.7429C100.123 92.0378 100.052 92.3787 100.089 92.7164C100.124 97.5994 100.089 102.482 100.114 107.365C100.114 109.338 99.488 110.892 97.6087 111.735C95.9299 112.489 94.3638 112.048 92.7727 110.444C91.8957 109.555 91.0438 108.659 90.0729 107.65ZM90.0541 90.026C99.9453 90.026 108.117 81.8105 108.045 71.9538C107.982 67.223 106.059 62.7072 102.692 59.3839C99.3245 56.0606 94.7837 54.1973 90.0525 54.1973C85.3214 54.1973 80.7805 56.0606 77.4131 59.3839C74.0457 62.7072 72.1226 67.223 72.0602 71.9538C72.0257 81.8481 80.1692 90.0385 90.0541 90.026ZM84.2221 93.2677V107.819L86.4459 105.596C89.08 102.955 91.0438 102.968 93.7092 105.633C94.4014 106.325 95.0999 107.005 95.9017 107.801V93.2677C92.0763 94.2954 88.0475 94.2954 84.2221 93.2677Z" fill="#1F140F"/>
<path d="M35.0952 71.988H57.5805C59.0902 71.988 59.9765 72.6928 60.0392 73.9017C60.0857 74.392 59.9409 74.8812 59.635 75.267C59.3291 75.6529 58.8859 75.9055 58.398 75.9721C57.9326 76.0302 57.4635 76.0522 56.9948 76.0378H13.0828C12.6542 76.0489 12.2253 76.0332 11.7986 75.9909C10.7149 75.8562 10.1292 75.2016 10.0415 74.1335C9.998 73.6406 10.1428 73.1495 10.4467 72.759C10.7506 72.3685 11.1911 72.1076 11.6796 72.0288C12.066 71.9807 12.4559 71.9671 12.8448 71.988H35.0952Z" fill="#1F140F"/>
<path d="M29.9837 92.0899C24.2833 92.0899 18.5829 92.0899 12.8824 92.0899C12.3396 92.1113 11.7972 92.0393 11.2788 91.8769C10.4237 91.5637 9.86309 90.8308 10.0823 89.9695C10.3176 89.2705 10.7533 88.6561 11.3352 88.203C11.6484 87.9305 12.303 87.9837 12.801 87.9837C24.2854 87.9837 35.7697 87.9837 47.2541 87.9837C47.5277 87.9743 47.8017 87.9806 48.0747 88.0025C49.2837 88.1403 50.0573 88.9578 50.0448 90.0666C50.0322 91.1753 49.2523 91.9677 48.0308 92.093C47.6832 92.1275 47.3292 92.1087 46.9785 92.1087L29.9837 92.0899Z" fill="#1F140F"/>
<path d="M30.1309 56.0177H47.11C47.5006 56.0046 47.8916 56.0119 48.2814 56.0396C48.772 56.0847 49.2271 56.3146 49.5545 56.6828C49.8819 57.0509 50.0572 57.5297 50.0448 58.0222C50.0488 58.515 49.8686 58.9915 49.5395 59.3583C49.2104 59.725 48.7561 59.9556 48.2658 60.0048C48.1103 60.0127 47.9545 60.0127 47.7991 60.0048C35.9702 60.0048 24.1413 60.0048 12.3124 60.0048C11.307 60.0048 10.5396 59.6916 10.1607 58.7332C9.61254 57.3707 10.5522 56.0302 12.0963 56.0114C14.9434 55.977 17.7936 56.0114 20.6438 56.0114L30.1309 56.0177Z" fill="#1F140F"/>
<path d="M43.0475 64.0074C47.9649 64.0074 52.8791 64.0074 57.7965 64.0074C58.6986 64.0074 59.5098 64.2642 59.7854 65.1224C59.9733 65.7206 59.9921 66.5882 59.6789 67.0737C59.4721 67.3388 59.2113 67.5569 58.9137 67.7135C58.6162 67.8701 58.2888 67.9616 57.9531 67.982C48.0056 68.0384 38.0549 68.029 28.1074 68.0102C26.7951 68.0102 26.0277 67.1958 26.0465 65.9869C26.0653 64.7779 26.8796 64.023 28.1826 64.0199C33.1375 63.998 38.0925 64.0074 43.0475 64.0074Z" fill="#1F140F"/>
<path d="M24.017 44.0563C20.152 44.0563 16.287 44.0563 12.4282 44.0563C10.9843 44.0563 10.1355 43.3609 10.0447 42.177C9.99026 41.6873 10.1265 41.1954 10.4251 40.8035C10.7237 40.4116 11.1618 40.1497 11.6483 40.0722C12.1103 40.0006 12.5779 39.9713 13.0453 39.9845C20.3869 39.9845 27.7275 39.9845 35.067 39.9845C35.3802 39.9845 35.6934 39.9845 36.0066 40.0033C37.319 40.1223 38.0707 40.9054 38.0331 42.0987C37.9955 43.292 37.1593 44.0469 35.8563 44.0563C31.9036 44.0719 27.9603 44.0563 24.017 44.0563Z" fill="#1F140F"/>
<path d="M22.1156 79.9717C25.3135 79.9717 28.5145 79.9717 31.7123 79.9717C33.2095 79.9717 34.0928 80.8487 34.0176 82.1642C33.9549 83.3043 33.1563 84.0434 31.7844 84.0654C30.068 84.1123 28.3391 84.081 26.6352 84.081C22.031 84.081 17.4237 84.081 12.8195 84.081C12.2755 84.1085 11.7313 84.0319 11.2159 83.8555C10.2763 83.4609 9.90671 82.6747 10.0758 81.663C10.245 80.6514 11.0437 79.9999 12.2683 79.9936C15.5601 79.9592 18.8363 79.9717 22.1156 79.9717Z" fill="#1F140F"/>
<path d="M21.9936 108.067C18.7174 108.067 15.4381 108.067 12.1619 108.067C11.1596 108.067 10.4173 107.613 10.126 106.635C9.85669 105.727 10.0853 104.897 10.9185 104.387C11.3215 104.158 11.7768 104.037 12.2402 104.036C18.7571 104.013 25.2729 104.013 31.7876 104.036C33.2284 104.036 34.0114 104.797 34.0239 106.028C34.0365 107.259 33.1626 108.067 31.7062 108.073C28.4707 108.076 25.2322 108.067 21.9936 108.067Z" fill="#1F140F"/>
<path d="M49.0236 79.9718C51.8707 79.9718 54.7209 79.9718 57.568 79.9718C59.134 79.9718 60.0329 80.7391 60.0423 82.0045C60.0517 83.2699 59.1841 84.0623 57.5993 84.0654C51.9009 84.0842 46.2037 84.0842 40.5074 84.0654C38.9414 84.0654 38.0268 83.2824 38.0205 82.0327C38.0143 80.783 38.9602 79.9718 40.592 79.9687C43.4015 79.9655 46.211 79.9718 49.0236 79.9718Z" fill="#1F140F"/>
<path d="M102.986 44.056C101.464 44.056 99.942 44.056 98.4198 44.056C96.9697 44.056 96.052 43.2511 96.0394 42.039C96.0269 40.8268 96.9227 40.0062 98.3854 39.9906C101.505 39.9634 104.627 39.9634 107.75 39.9906C109.226 39.9906 110.084 40.8268 110.059 42.0578C110.034 43.2887 109.138 44.0404 107.669 44.0529C106.109 44.0686 104.546 44.056 102.986 44.056Z" fill="#1F140F"/>
<path d="M16.0425 68.0103C14.7176 68.0103 13.3896 68.0417 12.0647 68.0103C10.837 67.9759 10.0477 67.1866 10.0289 66.059C10.0101 64.9315 10.837 64.0357 12.1055 64.0232C14.7176 63.9981 17.3277 63.9981 19.9357 64.0232C21.1885 64.0232 22.053 64.9002 22.0405 66.0434C22.0279 67.1866 21.223 67.9728 20.0109 68.0103C18.6954 68.0417 17.3674 68.0103 16.0425 68.0103Z" fill="#1F140F"/>
<path d="M57.092 56.033C57.4803 56.033 57.8718 56.0048 58.2571 56.033C58.7518 56.0819 59.2104 56.3143 59.5423 56.6844C59.8742 57.0545 60.0555 57.5356 60.0504 58.0327C60.0453 58.5299 59.8542 59.0071 59.5147 59.3703C59.1752 59.7335 58.712 59.9564 58.2164 59.9951C57.4393 60.0421 56.6601 60.0421 55.883 59.9951C55.3701 59.9699 54.8869 59.7469 54.5348 59.373C54.1828 58.9991 53.9893 58.5033 53.995 57.9898C54.0007 57.4763 54.2051 56.985 54.5653 56.619C54.9255 56.2529 55.4135 56.0407 55.9268 56.0268C56.3121 56.0017 56.7036 56.0268 57.092 56.0268V56.033Z" fill="#1F140F"/>
<path d="M90.0259 86.0388C86.3197 86.0191 82.7705 84.5405 80.1466 81.9231C77.5227 79.3056 76.0354 75.76 76.0066 72.054C76.0066 64.3333 82.3804 57.9376 90.076 57.9595C97.7715 57.9815 104.13 64.3897 104.102 72.1072C104.064 75.8155 102.565 79.3593 99.9292 81.9681C97.2934 84.5769 93.7344 86.0398 90.0259 86.0388ZM100.002 72.0132C99.9983 69.375 98.947 66.8461 97.0792 64.9829C95.2113 63.1198 92.6798 62.0749 90.0415 62.0782C87.4033 62.0816 84.8744 63.1328 83.0112 65.0007C81.148 66.8685 80.1032 69.4 80.1065 72.0383C80.1082 73.3446 80.3671 74.6378 80.8685 75.8441C81.37 77.0504 82.1041 78.146 83.029 79.0686C83.9538 79.9911 85.0513 80.7225 86.2589 81.2209C87.4664 81.7193 88.7602 81.975 90.0666 81.9733C91.3729 81.9717 92.6661 81.7127 93.8724 81.2113C95.0786 80.7099 96.1743 79.9758 97.0969 79.0509C98.0194 78.126 98.7508 77.0285 99.2492 75.821C99.7476 74.6134 100.003 73.3196 100.002 72.0132Z" fill="#1F140F"/>
</svg>
