<svg width="72" height="72" viewBox="0 0 72 72" fill="none" xmlns="http://www.w3.org/2000/svg">
<path fill-rule="evenodd" clip-rule="evenodd" d="M36 67.3073C53.3055 67.3073 67.3344 53.2784 67.3344 35.9729C67.3344 18.6673 53.3055 4.63843 36 4.63843C18.6944 4.63843 4.66553 18.6673 4.66553 35.9729C4.66553 41.5927 6.14495 46.8669 8.73559 51.4274L4.66553 67.3073L21.0375 63.511C25.4836 65.9318 30.5812 67.3073 36 67.3073ZM36 62.4867C50.6431 62.4867 62.5138 50.616 62.5138 35.9729C62.5138 21.3297 50.6431 9.45911 36 9.45911C21.3568 9.45911 9.48621 21.3297 9.48621 35.9729C9.48621 41.6267 11.2558 46.8671 14.2714 51.1706L11.8966 60.0763L20.9593 57.8106C25.2329 60.7597 30.4148 62.4867 36 62.4867Z" fill="#F9FDFC"/>
<path d="M28.1664 21.4248C27.4214 19.9284 26.2785 20.0609 25.124 20.0609C23.0606 20.0609 19.8432 22.5324 19.8432 27.1323C19.8432 30.9021 21.5043 35.0287 27.1019 41.2018C32.5041 47.1593 39.6021 50.2411 45.4948 50.1362C51.3875 50.0313 52.5999 44.9604 52.5999 43.248C52.5999 42.4889 52.1288 42.1102 51.8044 42.0073C49.7963 41.0436 46.0927 39.2479 45.25 38.9106C44.4073 38.5732 43.9673 39.0295 43.6938 39.2778C42.9296 40.006 41.4147 42.1523 40.896 42.635C40.3774 43.1178 39.6041 42.8735 39.2823 42.691C38.0981 42.2158 34.8875 40.7876 32.3282 38.3067C29.1631 35.2385 28.9773 34.1829 28.381 33.2433C27.904 32.4916 28.254 32.0303 28.4287 31.8288C29.1107 31.0419 30.0523 29.8271 30.4746 29.2234C30.8968 28.6197 30.5616 27.7032 30.3604 27.1323C29.4954 24.6771 28.7624 22.6219 28.1664 21.4248Z" fill="#F9FDFC"/>
</svg>
