<svg width="250" height="51" viewBox="0 0 250 51" fill="none" xmlns="http://www.w3.org/2000/svg">
<path d="M12.0258 0.130737H0.509339C0.228039 0.130737 0 0.358776 0 0.640077V42.5682C0 42.8495 0.228039 43.0775 0.509339 43.0775H12.0258C12.3071 43.0775 12.5352 42.8495 12.5352 42.5682V0.640077C12.5352 0.358776 12.3071 0.130737 12.0258 0.130737Z" fill="#F9FDFC"/>
<path d="M27.3781 0.130737H15.8617C15.5804 0.130737 15.3523 0.358776 15.3523 0.640077V42.5682C15.3523 42.8495 15.5804 43.0775 15.8617 43.0775H27.3781C27.6594 43.0775 27.8875 42.8495 27.8875 42.5682V0.640077C27.8875 0.358776 27.6594 0.130737 27.3781 0.130737Z" fill="#F9FDFC"/>
<path d="M41.3751 0.675795L30.8512 3.69546C30.5808 3.77304 30.4245 4.05513 30.5021 4.32552L41.9529 44.2331C42.0305 44.5035 42.3126 44.6598 42.583 44.5822L53.1069 41.5625C53.3773 41.485 53.5336 41.2029 53.456 40.9325L42.0051 1.0249C41.9275 0.754506 41.6454 0.598211 41.3751 0.675795Z" fill="#F9FDFC"/>
<path d="M52.8316 46.8502H0.193819C0.0867759 46.8502 0 46.937 0 47.044V50.0956C0 50.2026 0.0867759 50.2894 0.193819 50.2894H52.8316C52.9386 50.2894 53.0254 50.2026 53.0254 50.0956V47.044C53.0254 46.937 52.9386 46.8502 52.8316 46.8502Z" fill="#F9FDFC"/>
<path d="M62.3648 0.0991211H70.3069V36.6093H62.3648V0.0991211Z" fill="#F9FDFC"/>
<path d="M106.524 0.0991211V36.6093H100.015L82.8871 14.4373V36.6093H75.0351V0.0991211H81.607L98.6631 22.2667V0.0991211H106.524Z" fill="#F9FDFC"/>
<path d="M137.914 29.8302V36.5913H111.32V0.0811768H137.269V6.84232H119.226V14.7709H135.173V21.3427H119.226V29.7941L137.914 29.8302Z" fill="#F9FDFC"/>
<path d="M142.592 0.0991211H158.188C169.421 0.0991211 177.119 7.31101 177.119 18.3542C177.119 29.3974 169.421 36.6138 158.188 36.6138H142.592V0.0991211ZM157.796 29.6769C164.611 29.6769 169.065 25.3452 169.065 18.3542C169.065 11.3632 164.598 7.03605 157.796 7.03605H150.535V29.6769H157.796Z" fill="#F9FDFC"/>
<path d="M181.726 0H189.673V29.6454H206.891V36.5282H181.726V0Z" fill="#F9FDFC"/>
<path d="M238.583 28.7888H222.64L219.602 36.6137H211.457L226.782 0.103516H234.63L249.982 36.6137H241.643L238.583 28.7888ZM236.081 22.3702L230.636 8.39717L225.191 22.3702H236.081Z" fill="#F9FDFC"/>
<path d="M62.3107 44.3756H62.7614V50.3389H62.3107V44.3756Z" fill="#F9FDFC"/>
<path d="M69.6804 44.3756V50.3389H69.3243L65.2676 45.1599V50.3389H64.8168V44.3756H65.1819L69.2386 49.5592V44.3756H69.6804Z" fill="#F9FDFC"/>
<path d="M76.6173 44.3756V50.3389H76.2567L72.2 45.1599V50.3389H71.7493V44.3756H72.1189L76.1756 49.5592V44.3756H76.6173Z" fill="#F9FDFC"/>
<path d="M78.1227 47.3596C78.1075 46.7432 78.2763 46.1363 78.6077 45.6164C78.9391 45.0964 79.4179 44.687 79.983 44.4405C80.5482 44.194 81.174 44.1216 81.7805 44.2324C82.387 44.3433 82.9467 44.6324 83.3881 45.0629C83.8295 45.4934 84.1326 46.0457 84.2586 46.6493C84.3846 47.2528 84.3278 47.8802 84.0955 48.4514C83.8632 49.0225 83.4659 49.5114 82.9544 49.8557C82.4429 50.1999 81.8404 50.3839 81.2238 50.3841C80.8188 50.4001 80.4147 50.3333 80.0363 50.188C79.658 50.0426 79.3131 49.8217 79.0229 49.5387C78.7328 49.2557 78.5033 48.9165 78.3485 48.5418C78.1937 48.1672 78.1169 47.7649 78.1227 47.3596ZM83.8832 47.3596C83.8913 46.8309 83.7418 46.3118 83.4538 45.8683C83.1659 45.4248 82.7524 45.0771 82.2661 44.8693C81.7799 44.6616 81.2428 44.6033 80.7233 44.7018C80.2038 44.8003 79.7253 45.0513 79.3489 45.4226C78.9724 45.7939 78.715 46.2689 78.6094 46.787C78.5038 47.3051 78.5548 47.843 78.7559 48.332C78.9569 48.8211 79.299 49.2392 79.7385 49.5332C80.178 49.8272 80.6951 49.9838 81.2238 49.9829C81.5732 49.9946 81.9212 49.9351 82.2468 49.8078C82.5724 49.6806 82.8686 49.4884 83.1174 49.2429C83.3663 48.9975 83.5625 48.7039 83.6942 48.3801C83.8258 48.0563 83.8901 47.7091 83.8832 47.3596Z" fill="#F9FDFC"/>
<path d="M90.419 44.3756L87.7596 50.3389H87.3089L84.6901 44.3756H85.1408L87.5523 49.7845L89.9638 44.3756H90.419Z" fill="#F9FDFC"/>
<path d="M94.8904 48.6622H91.4512L90.6894 50.3389H90.2387L92.9837 44.3756H93.4345L96.175 50.3389H95.7242L94.8904 48.6622ZM94.7281 48.2971L93.1595 44.8534L91.5999 48.2971H94.7281Z" fill="#F9FDFC"/>
<path d="M96.5536 47.3595C96.5472 46.9548 96.6233 46.553 96.7773 46.1787C96.9313 45.8044 97.16 45.4654 97.4493 45.1824C97.7387 44.8993 98.0827 44.6782 98.4603 44.5326C98.8379 44.3869 99.2413 44.3196 99.6457 44.335C100.037 44.3186 100.427 44.3834 100.791 44.5254C101.156 44.6674 101.487 44.8834 101.764 45.1599L101.494 45.4438C101.252 45.2076 100.965 45.0231 100.649 44.9015C100.334 44.7798 99.997 44.7236 99.6593 44.7362C99.3148 44.7362 98.9736 44.804 98.6554 44.9359C98.3371 45.0677 98.0479 45.2609 97.8043 45.5045C97.5607 45.7481 97.3675 46.0373 97.2356 46.3556C97.1038 46.6739 97.0359 47.015 97.0359 47.3595C97.0359 47.704 97.1038 48.0451 97.2356 48.3634C97.3675 48.6817 97.5607 48.9709 97.8043 49.2145C98.0479 49.4581 98.3371 49.6513 98.6554 49.7831C98.9736 49.915 99.3148 49.9828 99.6593 49.9828C99.9976 49.9937 100.335 49.9358 100.65 49.8126C100.965 49.6894 101.252 49.5035 101.494 49.2661L101.764 49.5501C101.488 49.8277 101.157 50.0451 100.792 50.1886C100.428 50.3321 100.037 50.3987 99.6457 50.384C99.2413 50.3993 98.8379 50.3321 98.4603 50.1864C98.0827 50.0408 97.7387 49.8197 97.4493 49.5366C97.16 49.2536 96.9313 48.9146 96.7773 48.5403C96.6233 48.166 96.5472 47.7642 96.5536 47.3595Z" fill="#F9FDFC"/>
<path d="M103.22 44.3756H103.671V50.3389H103.22V44.3756Z" fill="#F9FDFC"/>
<path d="M105.163 47.3597C105.147 46.7422 105.315 46.134 105.646 45.6127C105.978 45.0915 106.457 44.6808 107.023 44.4333C107.589 44.1857 108.215 44.1125 108.823 44.223C109.431 44.3335 109.992 44.6227 110.434 45.0537C110.877 45.4846 111.181 46.0377 111.307 46.6422C111.434 47.2467 111.377 47.8753 111.145 48.4475C110.912 49.0197 110.514 49.5096 110.002 49.8546C109.49 50.1996 108.886 50.3839 108.268 50.3842C107.863 50.4001 107.459 50.3334 107.08 50.1881C106.702 50.0428 106.357 49.8219 106.066 49.5389C105.775 49.256 105.546 48.9169 105.39 48.5422C105.235 48.1675 105.158 47.7652 105.163 47.3597ZM110.923 47.3597C110.931 46.8308 110.782 46.3114 110.494 45.8679C110.205 45.4243 109.792 45.0765 109.305 44.8689C108.819 44.6613 108.281 44.6033 107.762 44.7022C107.242 44.8011 106.764 45.0524 106.387 45.4242C106.011 45.796 105.754 46.2714 105.649 46.7898C105.544 47.3083 105.595 47.8462 105.797 48.3352C105.999 48.8242 106.342 49.242 106.782 49.5355C107.222 49.8289 107.739 49.9847 108.268 49.983C108.617 49.9941 108.965 49.934 109.29 49.8065C109.615 49.679 109.911 49.4867 110.159 49.2413C110.407 48.9959 110.603 48.7025 110.735 48.379C110.866 48.0556 110.93 47.7087 110.923 47.3597ZM108.963 42.8838H109.58L108.228 43.8934H107.777L108.963 42.8838Z" fill="#F9FDFC"/>
<path d="M117.73 44.3756V50.3389H117.373L113.317 45.1599V50.3389H112.866V44.3756H113.231L117.288 49.5592V44.3756H117.73Z" fill="#F9FDFC"/>
<path d="M123.842 48.2881V50.3389H123.391V48.2881L120.988 44.3756H121.466L123.621 47.8869L125.775 44.3756H126.226L123.842 48.2881Z" fill="#F9FDFC"/>
<path d="M133.627 49.9513V50.3389H129.512V44.3756H133.501V44.7678H129.949V47.1206H133.104V47.5038H129.949V49.9513H133.627Z" fill="#F9FDFC"/>
<path d="M135.214 44.3756H137.571C139.464 44.3756 140.726 45.6197 140.726 47.3595C140.726 49.0994 139.446 50.3389 137.571 50.3389H135.214V44.3756ZM137.54 49.9513C139.225 49.9513 140.307 48.874 140.307 47.3595C140.307 45.845 139.225 44.7678 137.54 44.7678H135.647V49.9513H137.54Z" fill="#F9FDFC"/>
<path d="M142.2 47.8103V44.3756H142.651V47.7922C142.651 49.2842 143.368 49.9829 144.612 49.9829C145.856 49.9829 146.564 49.2842 146.564 47.7922V44.3756H147.014V47.8103C147.014 49.5141 146.113 50.384 144.621 50.384C143.129 50.384 142.2 49.5141 142.2 47.8103Z" fill="#F9FDFC"/>
<path d="M148.434 47.3594C148.428 46.9547 148.504 46.553 148.658 46.1787C148.812 45.8043 149.04 45.4653 149.33 45.1823C149.619 44.8993 149.963 44.6782 150.341 44.5325C150.718 44.3868 151.122 44.3196 151.526 44.335C151.918 44.3187 152.309 44.3836 152.674 44.5256C153.039 44.6675 153.371 44.8835 153.649 45.1598L153.379 45.4438C153.137 45.2078 152.849 45.0234 152.534 44.9018C152.219 44.7801 151.882 44.7238 151.544 44.7361C151.2 44.7361 150.859 44.804 150.54 44.9358C150.222 45.0676 149.933 45.2609 149.689 45.5045C149.446 45.7481 149.252 46.0373 149.121 46.3555C148.989 46.6738 148.921 47.0149 148.921 47.3594C148.921 47.7039 148.989 48.0451 149.121 48.3633C149.252 48.6816 149.446 48.9708 149.689 49.2144C149.933 49.458 150.222 49.6512 150.54 49.7831C150.859 49.9149 151.2 49.9828 151.544 49.9828C151.883 49.9934 152.22 49.9354 152.535 49.8122C152.85 49.689 153.137 49.5032 153.379 49.2661L153.649 49.5501C153.372 49.8278 153.04 50.0452 152.675 50.1887C152.309 50.3322 151.918 50.3987 151.526 50.3839C151.122 50.3993 150.718 50.3321 150.341 50.1864C149.963 50.0407 149.619 49.8196 149.33 49.5366C149.04 49.2536 148.812 48.9145 148.658 48.5402C148.504 48.1659 148.428 47.7641 148.434 47.3594Z" fill="#F9FDFC"/>
<path d="M158.634 48.6622H155.173L154.416 50.3389H153.965L156.71 44.3756H157.161L159.906 50.3389H159.455L158.634 48.6622ZM158.472 48.2971L156.904 44.8534L155.344 48.2971H158.472Z" fill="#F9FDFC"/>
<path d="M160.293 47.3596C160.287 46.9549 160.363 46.5531 160.517 46.1788C160.671 45.8045 160.899 45.4655 161.189 45.1825C161.478 44.8994 161.822 44.6783 162.2 44.5327C162.577 44.387 162.981 44.3198 163.385 44.3351C163.777 44.3184 164.168 44.383 164.533 44.525C164.899 44.667 165.231 44.8832 165.508 45.16L165.238 45.4439C164.996 45.208 164.708 45.0236 164.393 44.9019C164.078 44.7803 163.741 44.7239 163.403 44.7363C163.059 44.7363 162.718 44.8041 162.399 44.936C162.081 45.0678 161.792 45.261 161.548 45.5046C161.305 45.7482 161.111 46.0374 160.98 46.3557C160.848 46.674 160.78 47.0151 160.78 47.3596C160.78 47.7041 160.848 48.0452 160.98 48.3635C161.111 48.6818 161.305 48.971 161.548 49.2146C161.792 49.4582 162.081 49.6514 162.399 49.7832C162.718 49.9151 163.059 49.9829 163.403 49.9829C163.742 49.9935 164.079 49.9355 164.394 49.8123C164.709 49.6892 164.996 49.5034 165.238 49.2662L165.508 49.5502C165.231 49.8284 164.9 50.0461 164.534 50.1897C164.169 50.3332 163.778 50.3994 163.385 50.3841C162.981 50.3994 162.577 50.3322 162.2 50.1865C161.822 50.0409 161.478 49.8198 161.189 49.5367C160.899 49.2537 160.671 48.9147 160.517 48.5404C160.363 48.1661 160.287 47.7643 160.293 47.3596Z" fill="#F9FDFC"/>
<path d="M167.884 42.8838H168.497L167.144 43.8934H166.694L167.884 42.8838ZM166.982 44.3757H167.433V50.3391H166.982V44.3757Z" fill="#F9FDFC"/>
<path d="M168.907 47.3596C168.892 46.7432 169.06 46.1363 169.392 45.6164C169.723 45.0964 170.202 44.687 170.767 44.4405C171.332 44.194 171.958 44.1216 172.565 44.2324C173.171 44.3433 173.731 44.6324 174.172 45.0629C174.614 45.4934 174.917 46.0457 175.043 46.6493C175.169 47.2528 175.112 47.8802 174.88 48.4514C174.647 49.0225 174.25 49.5114 173.739 49.8557C173.227 50.1999 172.625 50.3839 172.008 50.3841C171.603 50.4001 171.199 50.3333 170.82 50.188C170.442 50.0426 170.097 49.8217 169.807 49.5387C169.517 49.2557 169.287 48.9165 169.133 48.5418C168.978 48.1672 168.901 47.7649 168.907 47.3596ZM174.667 47.3596C174.675 46.8309 174.526 46.3118 174.238 45.8683C173.95 45.4248 173.537 45.0771 173.05 44.8693C172.564 44.6616 172.027 44.6033 171.507 44.7018C170.988 44.8003 170.509 45.0513 170.133 45.4226C169.757 45.7939 169.499 46.2689 169.394 46.787C169.288 47.3051 169.339 47.843 169.54 48.332C169.741 48.8211 170.083 49.2392 170.523 49.5332C170.962 49.8272 171.479 49.9838 172.008 49.9829C172.357 49.9946 172.705 49.9351 173.031 49.8078C173.356 49.6806 173.653 49.4884 173.902 49.2429C174.15 48.9975 174.347 48.7039 174.478 48.3801C174.61 48.0563 174.674 47.7091 174.667 47.3596Z" fill="#F9FDFC"/>
<path d="M181.474 44.3756V50.3389H181.118L177.061 45.1599V50.3389H176.61V44.3756H176.975L181.032 49.5592V44.3756H181.474Z" fill="#F9FDFC"/>
<path d="M185.742 44.3756H188.104C189.993 44.3756 191.259 45.6197 191.259 47.3595C191.259 49.0994 189.979 50.3389 188.104 50.3389H185.742V44.3756ZM188.068 49.9513C189.754 49.9513 190.835 48.874 190.835 47.3595C190.835 45.845 189.754 44.7678 188.068 44.7678H186.175V49.9513H188.068Z" fill="#F9FDFC"/>
<path d="M196.893 49.9513V50.3389H192.778V44.3756H196.767V44.7678H193.215V47.1206H196.393V47.5038H193.215V49.9513H196.893Z" fill="#F9FDFC"/>
<path d="M200.666 44.3756H201.117V49.9513H204.552V50.3389H200.666V44.3756Z" fill="#F9FDFC"/>
<path d="M209.352 48.6622H205.89L205.133 50.3389H204.682L207.427 44.3756H207.878L210.623 50.3389H210.172L209.352 48.6622ZM209.19 48.2971L207.621 44.8534L206.062 48.2971H209.19Z" fill="#F9FDFC"/>
<path d="M213.855 44.3756H214.306V49.9513H217.736V50.3389H213.868L213.855 44.3756Z" fill="#F9FDFC"/>
<path d="M222.536 48.6622H219.079L218.322 50.3389H217.871L220.612 44.3756H221.062L223.803 50.3389H223.352L222.536 48.6622ZM222.374 48.2971L220.814 44.8534L219.255 48.2971H222.374Z" fill="#F9FDFC"/>
<path d="M229.027 47.3866H229.446V49.6178C228.86 50.1342 228.099 50.4082 227.319 50.3841C226.516 50.3841 225.747 50.0654 225.18 49.4982C224.613 48.931 224.294 48.1617 224.294 47.3596C224.294 46.5574 224.613 45.7881 225.18 45.2209C225.747 44.6537 226.516 44.3351 227.319 44.3351C227.714 44.3185 228.108 44.3823 228.477 44.5225C228.847 44.6627 229.184 44.8765 229.469 45.1509L229.194 45.4439C228.948 45.2042 228.655 45.0177 228.334 44.8959C228.013 44.7742 227.671 44.7198 227.328 44.7363C226.915 44.7513 226.512 44.8636 226.151 45.064C225.79 45.2643 225.481 45.5471 225.25 45.8893C225.019 46.2315 224.871 46.6234 224.82 47.0332C224.769 47.443 224.816 47.859 224.956 48.2475C225.096 48.636 225.325 48.9859 225.626 49.2688C225.927 49.5517 226.29 49.7596 226.687 49.8756C227.083 49.9915 227.501 50.0123 227.907 49.9362C228.313 49.8601 228.695 49.6892 229.022 49.4375L229.027 47.3866Z" fill="#F9FDFC"/>
<path d="M231.303 47.8103V44.3756H231.754V47.7922C231.754 49.2842 232.466 49.9829 233.71 49.9829C234.954 49.9829 235.662 49.2842 235.662 47.7922V44.3756H236.113V47.8103C236.113 49.5141 235.211 50.384 233.715 50.384C232.218 50.384 231.303 49.5141 231.303 47.8103Z" fill="#F9FDFC"/>
<path d="M242.968 44.3756V50.3389H242.608L238.551 45.1599V50.3389H238.1V44.3756H238.47L242.527 49.5592V44.3756H242.968Z" fill="#F9FDFC"/>
<path d="M248.733 48.6622H245.276L244.519 50.3389H244.068L246.809 44.3756H247.259L250 50.3389H249.549L248.733 48.6622ZM248.571 48.2971L247.007 44.8534L245.448 48.2971H248.571Z" fill="#F9FDFC"/>
</svg>
