<svg width="228" height="46" viewBox="0 0 228 46" fill="none" xmlns="http://www.w3.org/2000/svg">
<path d="M11.8584 0.340576H1.44622C1.19189 0.340576 0.985718 0.546749 0.985718 0.801077V38.7089C0.985718 38.9632 1.19189 39.1694 1.44622 39.1694H11.8584C12.1128 39.1694 12.3189 38.9632 12.3189 38.7089V0.801077C12.3189 0.546749 12.1128 0.340576 11.8584 0.340576Z" fill="#00A8E2"/>
<path d="M25.7387 0.340576H15.3265C15.0721 0.340576 14.866 0.546749 14.866 0.801077V38.7089C14.866 38.9632 15.0721 39.1694 15.3265 39.1694H25.7387C25.993 39.1694 26.1992 38.9632 26.1992 38.7089V0.801077C26.1992 0.546749 25.993 0.340576 25.7387 0.340576Z" fill="#1F140F"/>
<path d="M38.3935 0.8333L28.8787 3.56342C28.6342 3.63357 28.4929 3.8886 28.563 4.13307L38.9159 40.2141C38.9861 40.4586 39.2411 40.5999 39.4856 40.5297L49.0004 37.7996C49.2448 37.7294 49.3861 37.4744 49.316 37.2299L38.9631 1.14893C38.893 0.904464 38.6379 0.763156 38.3935 0.8333Z" fill="#89878C"/>
<path d="M48.7515 42.5803H1.16095C1.06417 42.5803 0.985718 42.6588 0.985718 42.7556V45.5145C0.985718 45.6113 1.06417 45.6897 1.16095 45.6897H48.7515C48.8483 45.6897 48.9267 45.6113 48.9267 45.5145V42.7556C48.9267 42.6588 48.8483 42.5803 48.7515 42.5803Z" fill="#DAD9D9"/>
<path d="M57.3706 0.312012H64.5512V33.3214H57.3706V0.312012Z" fill="#1F140F"/>
<path d="M97.2956 0.312012V33.3214H91.411L75.9251 13.2753V33.3214H68.826V0.312012H74.7677L90.1884 20.354V0.312012H97.2956Z" fill="#1F140F"/>
<path d="M125.675 27.1922V33.305H101.632V0.295654H125.093V6.4085H108.78V13.5768H123.198V19.5185H108.78V27.1596L125.675 27.1922Z" fill="#1F140F"/>
<path d="M129.906 0.312012H144.006C154.161 0.312012 161.122 6.83238 161.122 16.8167C161.122 26.801 154.161 33.3254 144.006 33.3254H129.906V0.312012ZM143.651 27.0537C149.813 27.0537 153.839 23.1374 153.839 16.8167C153.839 10.496 149.801 6.58379 143.651 6.58379H137.086V27.0537H143.651Z" fill="#1F140F"/>
<path d="M165.287 0.222412H172.471V27.0252H188.039V33.2481H165.287V0.222412Z" fill="#1F140F"/>
<path d="M216.692 26.2509H202.278L199.531 33.3255H192.167L206.023 0.316162H213.118L226.998 33.3255H219.459L216.692 26.2509ZM214.43 20.4478L209.507 7.81457L204.584 20.4478H214.43Z" fill="#1F140F"/>
<path d="M57.3217 40.343H57.7292V45.7346H57.3217V40.343Z" fill="#1F140F"/>
<path d="M63.9847 40.343V45.7346H63.6628L59.995 41.0521V45.7346H59.5875V40.343H59.9176L63.5853 45.0295V40.343H63.9847Z" fill="#1F140F"/>
<path d="M70.2565 40.343V45.7346H69.9305L66.2627 41.0521V45.7346H65.8552V40.343H66.1894L69.8571 45.0295V40.343H70.2565Z" fill="#1F140F"/>
<path d="M71.6176 43.0408C71.6038 42.4835 71.7564 41.9348 72.056 41.4647C72.3556 40.9946 72.7885 40.6244 73.2995 40.4016C73.8105 40.1787 74.3762 40.1132 74.9246 40.2134C75.473 40.3137 75.979 40.5751 76.3781 40.9643C76.7772 41.3535 77.0511 41.8528 77.1651 42.3985C77.279 42.9442 77.2277 43.5115 77.0176 44.0278C76.8076 44.5442 76.4484 44.9862 75.986 45.2975C75.5235 45.6087 74.9788 45.7751 74.4213 45.7753C74.0551 45.7897 73.6898 45.7293 73.3477 45.5979C73.0056 45.4665 72.6938 45.2668 72.4315 45.0109C72.1691 44.755 71.9616 44.4483 71.8217 44.1096C71.6817 43.7709 71.6123 43.4072 71.6176 43.0408ZM76.8257 43.0408C76.833 42.5627 76.6978 42.0934 76.4375 41.6924C76.1771 41.2915 75.8033 40.9771 75.3637 40.7893C74.924 40.6015 74.4385 40.5487 73.9688 40.6378C73.4991 40.7269 73.0665 40.9537 72.7261 41.2895C72.3858 41.6252 72.1531 42.0546 72.0576 42.5231C71.9621 42.9915 72.0082 43.4778 72.19 43.9199C72.3718 44.3621 72.681 44.7401 73.0784 45.006C73.4758 45.2718 73.9432 45.4133 74.4213 45.4125C74.7372 45.4231 75.0519 45.3693 75.3462 45.2542C75.6405 45.1392 75.9084 44.9654 76.1333 44.7435C76.3583 44.5216 76.5357 44.2561 76.6548 43.9634C76.7738 43.6707 76.832 43.3567 76.8257 43.0408Z" fill="#1F140F"/>
<path d="M82.7348 40.343L80.3304 45.7346H79.9229L77.5552 40.343H77.9627L80.143 45.2333L82.3232 40.343H82.7348Z" fill="#1F140F"/>
<path d="M86.7774 44.2186H83.668L82.9793 45.7346H82.5718L85.0536 40.343H85.4611L87.9389 45.7346H87.5313L86.7774 44.2186ZM86.6307 43.8885L85.2125 40.775L83.8025 43.8885H86.6307Z" fill="#1F140F"/>
<path d="M88.2812 43.0409C88.2754 42.675 88.3442 42.3118 88.4835 41.9734C88.6227 41.6349 88.8294 41.3284 89.091 41.0725C89.3526 40.8167 89.6636 40.6168 90.005 40.4851C90.3465 40.3533 90.7111 40.2926 91.0768 40.3064C91.4303 40.2916 91.783 40.3502 92.1127 40.4786C92.4423 40.607 92.7418 40.8023 92.9922 41.0522L92.7477 41.309C92.529 41.0954 92.2692 40.9286 91.9841 40.8186C91.699 40.7086 91.3945 40.6578 91.089 40.6691C90.7776 40.6691 90.4692 40.7305 90.1814 40.8497C89.8937 40.9689 89.6322 41.1436 89.4119 41.3638C89.1917 41.5841 89.017 41.8455 88.8978 42.1333C88.7786 42.421 88.7173 42.7295 88.7173 43.0409C88.7173 43.3524 88.7786 43.6608 88.8978 43.9486C89.017 44.2363 89.1917 44.4978 89.4119 44.718C89.6322 44.9383 89.8937 45.113 90.1814 45.2322C90.4692 45.3514 90.7776 45.4127 91.089 45.4127C91.395 45.4226 91.6997 45.3702 91.9848 45.2588C92.2699 45.1475 92.5294 44.9794 92.7477 44.7648L92.9922 45.0215C92.7422 45.2725 92.443 45.4691 92.1134 45.5988C91.7837 45.7285 91.4308 45.7887 91.0768 45.7754C90.7111 45.7893 90.3465 45.7285 90.005 45.5968C89.6636 45.4651 89.3526 45.2652 89.091 45.0093C88.8294 44.7534 88.6227 44.4469 88.4835 44.1085C88.3442 43.7701 88.2754 43.4068 88.2812 43.0409Z" fill="#1F140F"/>
<path d="M94.3085 40.343H94.716V45.7346H94.3085V40.343Z" fill="#1F140F"/>
<path d="M96.0649 43.0408C96.0503 42.4826 96.2025 41.9327 96.502 41.4614C96.8016 40.9901 97.2348 40.6188 97.7464 40.395C98.258 40.1712 98.8248 40.1051 99.3742 40.205C99.9236 40.3049 100.431 40.5664 100.831 40.956C101.231 41.3456 101.506 41.8456 101.62 42.3922C101.734 42.9387 101.683 43.507 101.473 44.0244C101.263 44.5417 100.903 44.9847 100.44 45.2965C99.9768 45.6084 99.4312 45.7751 98.8727 45.7753C98.5064 45.7897 98.1409 45.7294 97.7985 45.598C97.4562 45.4667 97.1442 45.267 96.8815 45.0112C96.6188 44.7553 96.4109 44.4487 96.2706 44.11C96.1302 43.7713 96.0602 43.4075 96.0649 43.0408ZM101.273 43.0408C101.28 42.5627 101.145 42.0931 100.885 41.6921C100.624 41.291 100.25 40.9766 99.8101 40.7889C99.3702 40.6013 98.8844 40.5488 98.4146 40.6382C97.9448 40.7276 97.5122 40.9549 97.1721 41.291C96.8319 41.6271 96.5995 42.0569 96.5044 42.5257C96.4094 42.9944 96.4561 43.4808 96.6385 43.9228C96.8209 44.3649 97.1308 44.7427 97.5287 45.008C97.9266 45.2733 98.3945 45.4142 98.8727 45.4126C99.1883 45.4226 99.5025 45.3684 99.7964 45.2531C100.09 45.1378 100.358 44.9639 100.582 44.7421C100.807 44.5202 100.984 44.2549 101.102 43.9625C101.221 43.67 101.279 43.3564 101.273 43.0408ZM99.5003 38.9941H100.059L98.8361 39.907H98.4285L99.5003 38.9941Z" fill="#1F140F"/>
<path d="M107.427 40.343V45.7346H107.105L103.437 41.0521V45.7346H103.029V40.343H103.36L107.027 45.0295V40.343H107.427Z" fill="#1F140F"/>
<path d="M112.953 43.8803V45.7346H112.545V43.8803L110.373 40.343H110.805L112.753 43.5176L114.701 40.343H115.108L112.953 43.8803Z" fill="#1F140F"/>
<path d="M121.8 45.3841V45.7346H118.079V40.343H121.686V40.6976H118.475V42.8248H121.327V43.1712H118.475V45.3841H121.8Z" fill="#1F140F"/>
<path d="M123.234 40.343H125.366C127.077 40.343 128.219 41.4678 128.219 43.0408C128.219 44.6139 127.061 45.7346 125.366 45.7346H123.234V40.343ZM125.337 45.3841C126.861 45.3841 127.84 44.4101 127.84 43.0408C127.84 41.6715 126.861 40.6976 125.337 40.6976H123.626V45.3841H125.337Z" fill="#1F140F"/>
<path d="M129.551 43.4483V40.343H129.959V43.432C129.959 44.7809 130.607 45.4126 131.731 45.4126C132.856 45.4126 133.496 44.7809 133.496 43.432V40.343H133.903V43.4483C133.903 44.9888 133.088 45.7753 131.739 45.7753C130.391 45.7753 129.551 44.9888 129.551 43.4483Z" fill="#1F140F"/>
<path d="M135.187 43.0409C135.181 42.675 135.25 42.3117 135.389 41.9733C135.529 41.6349 135.735 41.3284 135.997 41.0725C136.259 40.8166 136.57 40.6167 136.911 40.485C137.252 40.3533 137.617 40.2925 137.983 40.3064C138.337 40.2917 138.69 40.3504 139.02 40.4788C139.351 40.6071 139.651 40.8023 139.902 41.0522L139.658 41.3089C139.439 41.0956 139.179 40.9289 138.894 40.8189C138.609 40.7089 138.304 40.6579 137.999 40.6691C137.688 40.6691 137.379 40.7304 137.091 40.8496C136.804 40.9688 136.542 41.1435 136.322 41.3638C136.102 41.584 135.927 41.8455 135.808 42.1332C135.689 42.421 135.627 42.7294 135.627 43.0409C135.627 43.3523 135.689 43.6608 135.808 43.9485C135.927 44.2363 136.102 44.4977 136.322 44.718C136.542 44.9382 136.804 45.1129 137.091 45.2321C137.379 45.3513 137.688 45.4127 137.999 45.4127C138.305 45.4223 138.61 45.3698 138.895 45.2584C139.18 45.1471 139.439 44.9791 139.658 44.7647L139.902 45.0214C139.651 45.2726 139.351 45.4692 139.021 45.5989C138.691 45.7286 138.337 45.7887 137.983 45.7754C137.617 45.7892 137.252 45.7285 136.911 45.5968C136.57 45.465 136.259 45.2652 135.997 45.0093C135.735 44.7534 135.529 44.4469 135.389 44.1084C135.25 43.77 135.181 43.4068 135.187 43.0409Z" fill="#1F140F"/>
<path d="M144.409 44.2186H141.28L140.595 45.7346H140.187L142.669 40.343H143.077L145.559 45.7346H145.151L144.409 44.2186ZM144.263 43.8885L142.844 40.775L141.434 43.8885H144.263Z" fill="#1F140F"/>
<path d="M145.909 43.0408C145.903 42.6749 145.972 42.3116 146.111 41.9732C146.251 41.6348 146.457 41.3283 146.719 41.0724C146.98 40.8165 147.291 40.6166 147.633 40.4849C147.974 40.3532 148.339 40.2924 148.705 40.3063C149.059 40.2911 149.412 40.3496 149.743 40.478C150.073 40.6063 150.373 40.8018 150.624 41.0521L150.38 41.3088C150.161 41.0955 149.901 40.9288 149.616 40.8188C149.331 40.7088 149.026 40.6578 148.721 40.669C148.409 40.669 148.101 40.7303 147.813 40.8495C147.526 40.9687 147.264 41.1434 147.044 41.3637C146.824 41.5839 146.649 41.8454 146.53 42.1331C146.41 42.4209 146.349 42.7293 146.349 43.0408C146.349 43.3522 146.41 43.6607 146.53 43.9484C146.649 44.2362 146.824 44.4976 147.044 44.7179C147.264 44.9381 147.526 45.1128 147.813 45.232C148.101 45.3512 148.409 45.4126 148.721 45.4126C149.027 45.4222 149.331 45.3697 149.617 45.2583C149.902 45.147 150.161 44.979 150.38 44.7646L150.624 45.0213C150.374 45.2729 150.074 45.4697 149.743 45.5995C149.413 45.7292 149.059 45.7891 148.705 45.7753C148.339 45.7891 147.974 45.7284 147.633 45.5967C147.291 45.4649 146.98 45.265 146.719 45.0092C146.457 44.7533 146.251 44.4468 146.111 44.1083C145.972 43.7699 145.903 43.4067 145.909 43.0408Z" fill="#1F140F"/>
<path d="M152.772 38.9941H153.326L152.103 39.907H151.696L152.772 38.9941ZM151.957 40.343H152.364V45.7346H151.957V40.343Z" fill="#1F140F"/>
<path d="M153.697 43.0408C153.683 42.4835 153.836 41.9348 154.135 41.4647C154.435 40.9946 154.868 40.6244 155.379 40.4016C155.89 40.1787 156.455 40.1132 157.004 40.2134C157.552 40.3137 158.058 40.5751 158.457 40.9643C158.856 41.3535 159.13 41.8528 159.244 42.3985C159.358 42.9442 159.307 43.5115 159.097 44.0278C158.887 44.5442 158.528 44.9862 158.065 45.2975C157.603 45.6087 157.058 45.7751 156.501 45.7753C156.134 45.7897 155.769 45.7293 155.427 45.5979C155.085 45.4665 154.773 45.2668 154.511 45.0109C154.248 44.755 154.041 44.4483 153.901 44.1096C153.761 43.7709 153.692 43.4072 153.697 43.0408ZM158.905 43.0408C158.912 42.5627 158.777 42.0934 158.517 41.6924C158.256 41.2915 157.883 40.9771 157.443 40.7893C157.003 40.6015 156.518 40.5487 156.048 40.6378C155.578 40.7269 155.146 40.9537 154.805 41.2895C154.465 41.6252 154.232 42.0546 154.137 42.5231C154.041 42.9915 154.087 43.4778 154.269 43.9199C154.451 44.3621 154.76 44.7401 155.158 45.006C155.555 45.2718 156.022 45.4133 156.501 45.4125C156.816 45.4231 157.131 45.3693 157.425 45.2542C157.72 45.1392 157.988 44.9654 158.213 44.7435C158.438 44.5216 158.615 44.2561 158.734 43.9634C158.853 43.6707 158.911 43.3567 158.905 43.0408Z" fill="#1F140F"/>
<path d="M165.059 40.343V45.7346H164.737L161.069 41.0521V45.7346H160.661V40.343H160.991L164.659 45.0295V40.343H165.059Z" fill="#1F140F"/>
<path d="M168.918 40.343H171.053C172.761 40.343 173.906 41.4678 173.906 43.0408C173.906 44.6139 172.748 45.7346 171.053 45.7346H168.918V40.343ZM171.021 45.3841C172.545 45.3841 173.523 44.4101 173.523 43.0408C173.523 41.6715 172.545 40.6976 171.021 40.6976H169.309V45.3841H171.021Z" fill="#1F140F"/>
<path d="M179 45.3841V45.7346H175.279V40.343H178.886V40.6976H175.674V42.8248H178.548V43.1712H175.674V45.3841H179Z" fill="#1F140F"/>
<path d="M182.411 40.343H182.818V45.3841H185.924V45.7346H182.411V40.343Z" fill="#1F140F"/>
<path d="M190.264 44.2186H187.134L186.45 45.7346H186.042L188.524 40.343H188.931L191.413 45.7346H191.006L190.264 44.2186ZM190.117 43.8885L188.699 40.775L187.289 43.8885H190.117Z" fill="#1F140F"/>
<path d="M194.335 40.343H194.742V45.3841H197.844V45.7346H194.347L194.335 40.343Z" fill="#1F140F"/>
<path d="M202.184 44.2186H199.058L198.374 45.7346H197.966L200.444 40.343H200.851L203.329 45.7346H202.922L202.184 44.2186ZM202.037 43.8885L200.627 40.775L199.217 43.8885H202.037Z" fill="#1F140F"/>
<path d="M208.052 43.0652H208.431V45.0824C207.901 45.5494 207.214 45.7971 206.508 45.7752C205.782 45.7752 205.087 45.4871 204.574 44.9743C204.061 44.4615 203.773 43.766 203.773 43.0408C203.773 42.3155 204.061 41.62 204.574 41.1072C205.087 40.5944 205.782 40.3063 206.508 40.3063C206.865 40.2913 207.221 40.3489 207.555 40.4757C207.889 40.6025 208.194 40.7958 208.452 41.0439L208.203 41.3088C207.981 41.0921 207.716 40.9234 207.426 40.8133C207.136 40.7033 206.826 40.6541 206.516 40.669C206.143 40.6826 205.778 40.7841 205.452 40.9653C205.125 41.1464 204.846 41.4021 204.637 41.7115C204.428 42.0208 204.295 42.3752 204.249 42.7457C204.203 43.1162 204.245 43.4923 204.371 43.8435C204.498 44.1948 204.706 44.5111 204.978 44.7669C205.25 45.0227 205.578 45.2107 205.936 45.3155C206.295 45.4204 206.673 45.4391 207.04 45.3703C207.407 45.3015 207.752 45.147 208.048 44.9194L208.052 43.0652Z" fill="#1F140F"/>
<path d="M210.11 43.4483V40.343H210.518V43.432C210.518 44.7809 211.162 45.4126 212.286 45.4126C213.411 45.4126 214.051 44.7809 214.051 43.432V40.343H214.458V43.4483C214.458 44.9888 213.643 45.7753 212.29 45.7753C210.937 45.7753 210.11 44.9888 210.11 43.4483Z" fill="#1F140F"/>
<path d="M220.657 40.343V45.7346H220.331L216.663 41.0521V45.7346H216.256V40.343H216.59L220.257 45.0295V40.343H220.657Z" fill="#1F140F"/>
<path d="M225.869 44.2186H222.743L222.059 45.7346H221.651L224.129 40.343H224.536L227.014 45.7346H226.607L225.869 44.2186ZM225.722 43.8885L224.308 40.775L222.898 43.8885H225.722Z" fill="#1F140F"/>
</svg>
