<svg width="128" height="150" viewBox="0 0 128 150" fill="none" xmlns="http://www.w3.org/2000/svg">
<path d="M110.041 0.0116959L111.304 0.596477C114.228 1.95317 115.936 4.18703 116.187 7.44427C116.24 8.1694 116.234 8.90037 116.234 9.6255C116.234 32.4904 116.234 55.3554 116.234 78.2203C116.191 78.6644 116.286 79.1109 116.505 79.4991C116.725 79.8873 117.059 80.1984 117.462 80.3899C120.502 82.1627 123.027 84.6978 124.787 87.745C126.548 90.7922 127.483 94.2459 127.5 97.765C127.517 101.284 126.616 104.747 124.885 107.811C123.154 110.875 120.654 113.435 117.632 115.237C117.168 115.458 116.785 115.818 116.535 116.266C116.284 116.714 116.179 117.229 116.234 117.74C116.285 125.362 116.285 132.983 116.234 140.605C116.234 144.956 113.936 147.979 109.994 148.944C109.382 149.077 108.756 149.138 108.129 149.125C74.9914 149.125 41.8343 149.125 8.6577 149.125C7.58874 149.155 6.52475 148.968 5.53021 148.575C4.53567 148.182 3.63127 147.591 2.87182 146.838C2.11237 146.086 1.51368 145.186 1.11201 144.195C0.71035 143.204 0.514076 142.142 0.535085 141.073C0.535085 134.055 0.535085 127.091 0.535085 120.097C0.535085 118.88 0.961975 117.997 2.17247 117.693C2.66312 117.525 3.19985 117.552 3.67058 117.77C4.14132 117.988 4.50967 118.38 4.69873 118.863C4.86595 119.363 4.93349 119.892 4.89756 120.418C4.89756 126.972 4.89756 133.525 4.89756 140.079C4.89756 143.406 6.24255 144.757 9.57581 144.757H107.141C110.527 144.757 111.819 143.482 111.819 140.119V117.968H103.883V121.558C103.883 123.313 103.913 125.067 103.883 126.822C103.831 130.014 101.655 132.207 98.4509 132.231C92.7726 132.266 87.0944 132.231 81.4103 132.231C79.5215 132.231 78.4864 131.4 78.4864 129.95C78.4864 128.5 79.4513 127.769 81.3168 127.763C86.7085 127.763 92.0943 127.716 97.486 127.763C98.8953 127.763 99.4859 127.447 99.4158 125.909C99.2988 123.196 99.3573 120.471 99.4158 117.722C99.4489 117.372 99.3638 117.02 99.1741 116.724C98.9845 116.427 98.7011 116.202 98.369 116.085C91.0125 112.26 86.9599 106.144 86.9424 97.8865C86.9248 89.6294 90.9891 83.4015 98.4041 79.5653C98.7321 79.4386 99.009 79.2071 99.192 78.9068C99.3749 78.6065 99.4536 78.2542 99.4158 77.9046C99.4158 57.8037 99.4158 37.7047 99.4158 17.6078C99.4158 16.6955 99.3397 15.9938 98.1292 15.9996C93.6615 16.0406 89.1938 15.9996 84.7261 15.9996C84.5282 16.0192 84.3325 16.0564 84.1413 16.1107C84.0711 16.7657 84.0419 17.3914 83.9366 18.0113C83.8109 19.2689 83.2091 20.4308 82.2546 21.2592C81.3001 22.0876 80.065 22.5198 78.8022 22.4673C75.5508 22.5024 72.2936 22.4673 69.0422 22.4673C67.4458 22.4673 66.5335 21.6252 66.5452 20.2744C66.5569 18.9235 67.5159 18.0931 69.0831 18.0814C72.1416 18.0814 75.2 18.0814 78.2584 18.0814C79.0829 18.0814 79.5273 17.8709 79.5215 16.947C79.5215 12.8535 79.5215 8.70155 79.5215 4.47358H37.2067V7.98226C37.2067 10.8418 37.2535 13.7073 37.2067 16.5727C37.1775 17.7423 37.5985 18.0697 38.7271 18.058C45.2358 18.0171 51.7385 18.058 58.2413 18.058C59.5571 18.058 60.5804 18.4908 60.826 19.8709C61.0716 21.251 60.1828 22.4205 58.6273 22.4439C55.8145 22.4848 52.9958 22.4439 50.183 22.4439H38.657C34.7799 22.4439 33.0021 20.748 32.7741 16.8534C32.7741 16.6253 32.7215 16.3914 32.6747 16.0113H24.4877C22.5463 16.0113 20.6048 16.0113 18.6399 16.0113C17.7394 16.0113 17.254 16.3154 17.3417 17.2803C17.3417 17.5727 17.3417 17.8651 17.3417 18.1516V125.658C17.3417 127.734 17.3417 127.74 19.3943 127.74H69.2001C69.7861 127.722 70.3726 127.749 70.9544 127.821C71.4302 127.903 71.8654 128.14 72.191 128.496C72.5167 128.852 72.7143 129.307 72.7525 129.788C72.7908 130.269 72.6675 130.749 72.4022 131.153C72.1369 131.556 71.7448 131.859 71.2878 132.014C70.7287 132.159 70.1515 132.222 69.5744 132.202C52.6781 132.202 35.7838 132.202 18.8914 132.202C14.9149 132.202 12.8506 130.178 12.8506 126.219C12.8506 90.0056 12.8506 53.7921 12.8506 17.5785C12.8506 13.6488 14.8564 11.6547 18.7452 11.6488H32.663V4.57299C32.5577 4.49697 32.5168 4.45019 32.4817 4.45019C24.4234 4.45019 16.3651 4.36832 8.31268 4.45019C6.34196 4.45019 5.06714 5.97062 4.89171 7.95887C4.85077 8.43839 4.89171 8.92961 4.89171 9.41498V108.43C4.89171 108.916 4.89171 109.401 4.89171 109.88C4.88209 110.16 4.81651 110.435 4.69884 110.689C4.58118 110.943 4.41382 111.17 4.20666 111.358C3.9995 111.546 3.75674 111.691 3.49273 111.784C3.22871 111.876 2.9488 111.915 2.66954 111.898C2.40082 111.909 2.13259 111.866 1.88036 111.773C1.62814 111.68 1.39692 111.537 1.20007 111.354C1.00322 111.171 0.844645 110.95 0.733516 110.705C0.622388 110.461 0.560909 110.196 0.55263 109.927C0.52332 109.444 0.52332 108.96 0.55263 108.477C0.55263 75.5596 0.599413 42.6481 0.5 9.73661C0.5 5.05836 1.96195 1.68417 6.96183 0L110.041 0.0116959ZM84.1003 11.6664H97.6556C101.96 11.6664 103.883 13.5728 103.883 17.8417C103.883 37.2525 103.883 56.6595 103.883 76.0625V77.7701H111.807V8.94715C111.807 5.67823 110.509 4.38001 107.223 4.38001H84.1003V11.6664ZM107.188 113.693C110.317 113.701 113.378 112.782 115.985 111.05C118.592 109.319 120.628 106.854 121.834 103.967C123.041 101.079 123.365 97.8992 122.765 94.8279C122.165 91.7566 120.668 88.932 118.463 86.7111C116.258 84.4901 113.445 82.9724 110.378 82.3497C107.311 81.727 104.129 82.0273 101.233 83.2126C98.3363 84.3978 95.8564 86.4149 94.106 89.009C92.3557 91.6031 91.4134 94.6578 91.3984 97.7871C91.3844 101.99 93.0397 106.026 96.0004 109.008C98.9611 111.991 102.985 113.676 107.188 113.693Z" fill="#F9FDFC"/>
<path d="M86.4395 51.1216C90.2698 51.7064 92.0242 53.0631 92.7025 56.0221C93.5563 59.7763 90.1353 63.6242 86.3167 63.0394C85.934 62.9364 85.527 62.9756 85.1711 63.1498C84.8151 63.324 84.5344 63.6214 84.3811 63.9868C83.2537 65.8515 81.6649 67.3943 79.7679 68.4665C77.871 69.5387 75.7298 70.1041 73.5507 70.1082C71.3717 70.1123 69.2284 69.555 67.3274 68.49C65.4264 67.4249 63.8318 65.8881 62.6974 64.0277C62.5244 63.6462 62.2205 63.3392 61.8408 63.1623C61.4612 62.9853 61.0307 62.95 60.6273 63.0628C57.5396 63.5014 54.6508 60.9927 54.2414 57.6536C53.8789 54.7297 56.2765 51.683 59.2238 51.3087C59.7267 51.2444 60.2296 51.2035 60.9372 51.1333C60.6682 50.835 60.5746 50.6655 60.4343 50.5894C57.101 48.8351 56.2706 47.0106 57.1537 43.2036C57.8511 39.9396 59.7964 37.0772 62.5746 35.2272C62.8904 35.0109 63.3289 34.853 63.5044 34.5547C64.9371 32.1279 67.2177 31.8881 69.7031 31.9641C72.5626 32.0577 75.4339 31.9291 78.2935 32.0753C84.7261 32.4086 90.1002 38.0576 90.1879 44.5369C90.2172 46.724 89.2932 48.4257 87.2173 49.262C86.2465 49.6245 86.0945 50.145 86.4395 51.1216ZM81.539 49.7941C81.3519 49.7941 81.1121 49.7415 80.8724 49.7357C77.3637 49.6538 73.7731 50.1333 70.4457 48.4725C70.2207 48.4019 69.977 48.4229 69.7674 48.531C68.2528 49.2386 66.7558 49.9696 65.1827 50.7239C65.1827 52.987 65.1242 55.3145 65.1827 57.636C65.3114 61.6593 68.5335 65.1856 72.358 65.5774C76.7321 66.0277 80.7379 63.6125 81.4279 59.4547C81.9484 56.332 81.539 53.0865 81.539 49.7707V49.7941ZM67.6154 36.4202C67.5302 37.497 67.6601 38.58 67.9974 39.6062C68.3347 40.6324 68.8727 41.5812 69.5802 42.3975C70.2876 43.2138 71.1504 43.8812 72.1182 44.3609C73.086 44.8407 74.1396 45.1232 75.2176 45.1919C78.4163 45.2972 81.6501 45.227 84.8197 45.1919C85.0869 45.1655 85.3512 45.1146 85.6091 45.0399C85.8606 40.6949 82.4922 36.6892 78.1941 36.4611C74.6971 36.274 71.2001 36.4202 67.6154 36.4202ZM61.4576 46.5194L66.1944 45.5896L63.2705 40.4376C61.9722 42.192 61.177 43.9756 61.4576 46.5194ZM86.3284 58.4781C87.6909 58.5892 88.4278 58.098 88.3225 57.0805C88.2114 55.9577 87.5506 55.4899 86.3284 55.7472V58.4781ZM60.7325 55.3729C59.9781 55.7764 59.2647 55.9577 58.9782 56.3788C58.8573 56.6239 58.7984 56.895 58.8065 57.1682C58.8147 57.4414 58.8897 57.7085 59.025 57.946C59.3466 58.3612 60.06 58.4723 60.7501 58.7764L60.7325 55.3729Z" fill="#F9FDFC"/>
<path d="M30.5404 50.4433C25.0493 50.6421 24.1078 48.2445 24.4002 44.1042C24.4469 43.5194 24.4002 42.9347 24.4002 42.3499C24.4002 39.578 26.0551 37.9231 28.8036 37.8822H30.5579C30.5579 37.0927 30.5579 36.4319 30.5579 35.7711C30.5824 34.6977 31.0277 33.6769 31.7978 32.9287C32.5679 32.1805 33.6011 31.7648 34.6748 31.7712C35.9788 31.7712 37.2887 31.7712 38.5986 31.7712C41.3997 31.7712 43.0196 33.391 43.043 36.1687C43.043 36.6892 43.043 37.2155 43.043 37.9231C43.8149 37.9231 44.4815 37.9231 45.1423 37.9231C45.677 37.9246 46.2061 38.0319 46.6991 38.2388C47.1921 38.4457 47.6393 38.7481 48.0149 39.1286C48.3905 39.5091 48.6871 39.9602 48.8876 40.4559C49.0881 40.9515 49.1886 41.4819 49.1832 42.0166C49.23 43.42 49.23 44.8255 49.1832 46.2328C49.1072 48.841 47.4756 50.4023 44.8324 50.4316H43.0313C43.0313 51.1976 43.0313 51.8994 43.0313 52.6069C43.0316 53.6353 42.63 54.623 41.9122 55.3594C41.1944 56.0958 40.2173 56.5224 39.1893 56.5484C37.739 56.6185 36.2654 56.6068 34.8326 56.5484C32.1602 56.4899 30.5754 54.835 30.5345 52.1157C30.5287 51.5953 30.5404 51.0748 30.5404 50.4433ZM44.6979 46.034V42.3031C43.3938 42.3031 42.1892 42.3382 40.9904 42.3031C39.4524 42.2388 38.7097 41.4552 38.6864 39.9289C38.6864 38.6892 38.6864 37.4553 38.6864 36.2389H35.1426C35.0549 36.3851 35.0081 36.426 35.0081 36.4611C35.0081 37.5781 35.0081 38.6892 34.9555 39.8002C34.9028 41.5253 34.1835 42.2622 32.4701 42.3148C31.3006 42.3499 30.0842 42.3148 28.8796 42.3148V45.9054C28.9915 45.9568 29.1093 45.9941 29.2304 46.0165H32.4292C34.1426 46.0165 34.9028 46.7591 34.9496 48.4667C34.9847 49.6363 34.9496 50.8526 34.9496 52.0514H38.6805C38.6805 50.7649 38.6805 49.5602 38.6805 48.3614C38.6805 46.8352 39.4875 46.0223 41.0196 46.0223C42.2184 46.0165 43.4465 46.034 44.6979 46.034Z" fill="#F9FDFC"/>
<path d="M54.0777 114.278H77.2175C77.6093 114.278 77.9953 114.278 78.3871 114.278C79.8315 114.377 80.7964 115.266 80.8081 116.483C80.8198 117.699 79.8432 118.64 78.4339 118.757C78.0947 118.787 77.7555 118.757 77.4164 118.757C61.8417 118.757 46.269 118.757 30.6982 118.757C30.0725 118.757 29.283 118.839 28.8737 118.512C28.1733 118.001 27.6614 117.273 27.4176 116.442C27.2304 115.407 28.0023 114.629 29.0667 114.389C29.5891 114.292 30.1203 114.251 30.6514 114.266C38.4602 114.274 46.269 114.278 54.0777 114.278Z" fill="#F9FDFC"/>
<path d="M53.9374 91.4715C46.1403 91.4715 38.3296 91.4715 30.5052 91.4715C29.9268 91.4955 29.3483 91.4264 28.7918 91.2668C27.7509 90.916 27.0959 90.033 27.4176 89.0271C27.7782 88.2409 28.3751 87.5868 29.1251 87.1558C29.5403 86.8751 30.2538 87.0096 30.8327 87.0096H77.2585C77.7918 87.0047 78.3249 87.032 78.8549 87.0915C79.3746 87.1171 79.8643 87.3425 80.2217 87.7207C80.5792 88.0988 80.7767 88.6004 80.773 89.1207C80.8206 89.6626 80.6595 90.2023 80.3226 90.6295C79.9857 91.0566 79.4983 91.339 78.9602 91.4189C78.4831 91.4991 77.9981 91.5207 77.5158 91.4832L53.9374 91.4715Z" fill="#F9FDFC"/>
<path d="M43.9201 109.629C39.3588 109.629 34.7975 109.629 30.2362 109.629C29.5286 109.668 28.8278 109.473 28.2421 109.073C27.9747 108.817 27.7669 108.505 27.6335 108.159C27.5001 107.814 27.4444 107.443 27.4702 107.074C27.6223 106.401 28.3766 105.81 28.9848 105.319C29.2655 105.091 29.821 105.179 30.2538 105.179C39.427 105.179 48.6003 105.179 57.7736 105.179C59.3934 105.179 60.3291 105.805 60.5337 106.974C60.8086 108.553 59.8145 109.606 57.9198 109.611C53.2415 109.647 48.5808 109.629 43.9201 109.629Z" fill="#F9FDFC"/>
<path d="M65.2295 100.5H52.4169C50.6626 100.5 49.7445 99.7753 49.7153 98.3777C49.686 96.98 50.5983 96.1438 52.4345 96.1379H78.0479C79.7672 96.1379 80.7613 96.9099 80.8081 98.2432C80.8549 99.5765 79.8022 100.495 78.0362 100.495L65.2295 100.5Z" fill="#F9FDFC"/>
<path d="M42.4699 72.2615H30.1076C28.3532 72.2615 27.3065 71.4253 27.3357 70.0393C27.3649 68.6534 28.3708 67.8873 30.0549 67.8873H54.9198C56.6216 67.8873 57.5865 68.6885 57.604 70.0627C57.6215 71.437 56.6683 72.2556 54.9725 72.2615C50.803 72.2732 46.6335 72.2615 42.4699 72.2615Z" fill="#F9FDFC"/>
<path d="M66.8377 77.8285C70.6212 77.8285 74.4106 77.7525 78.1941 77.887C79.1165 78.0053 79.956 78.4796 80.5333 79.2086C80.6844 79.5418 80.7456 79.9089 80.7107 80.2731C80.6759 80.6374 80.5461 80.9861 80.3344 81.2846C79.5662 81.899 78.6215 82.2515 77.6386 82.2904C70.6212 82.3664 63.5688 82.3313 56.528 82.3313C55.9958 82.3313 55.4578 82.3313 54.9257 82.3313C53.4287 82.191 52.5866 81.3548 52.645 80.0332C52.7035 78.7116 53.569 77.8812 55.0543 77.8636C58.0133 77.8227 60.9782 77.8636 63.9372 77.8636L66.8377 77.8285Z" fill="#F9FDFC"/>
<path d="M36.8267 77.8286C39.008 77.8286 41.1834 77.8286 43.3646 77.8286C45.1189 77.8286 46.1949 78.7408 46.1949 80.08C46.1949 81.4191 45.1365 82.308 43.5049 82.3197C39.0021 82.3509 34.5013 82.3509 30.0023 82.3197C28.324 82.3197 27.3357 81.4074 27.3416 80.0741C27.3474 78.7408 28.3474 77.852 30.0023 77.8344C32.2771 77.8052 34.5519 77.8286 36.8267 77.8286Z" fill="#F9FDFC"/>
<path d="M35.1133 100.5C33.318 100.5 31.5228 100.5 29.7275 100.5C28.2948 100.5 27.3416 99.5824 27.3357 98.3251C27.3299 97.0678 28.2889 96.1556 29.7158 96.1439C33.2557 96.1439 36.7955 96.1439 40.3354 96.1439C40.627 96.1233 40.9197 96.1613 41.1963 96.2558C41.4729 96.3502 41.7277 96.4992 41.9458 96.6938C42.1638 96.8884 42.3407 97.1248 42.4658 97.3889C42.591 97.653 42.662 97.9395 42.6745 98.2315C42.6815 98.5369 42.6252 98.8404 42.509 99.1228C42.3928 99.4053 42.2194 99.6606 41.9996 99.8727C41.7798 100.085 41.5185 100.249 41.232 100.355C40.9456 100.461 40.6403 100.507 40.3354 100.489C38.6045 100.524 36.8618 100.5 35.1133 100.5Z" fill="#F9FDFC"/>
<path d="M74.276 109.6C72.9661 109.6 71.6562 109.635 70.3463 109.6C68.8668 109.547 67.9487 108.676 67.937 107.424C67.9398 107.12 68.0041 106.818 68.1261 106.539C68.2482 106.26 68.4253 106.008 68.6471 105.799C68.8688 105.59 69.1305 105.427 69.4165 105.322C69.7024 105.216 70.0068 105.17 70.3112 105.185C73.0402 105.146 75.7575 105.146 78.4631 105.185C78.7674 105.175 79.0705 105.227 79.3543 105.337C79.6381 105.447 79.8969 105.614 80.1151 105.826C80.3334 106.038 80.5067 106.292 80.6247 106.573C80.7428 106.853 80.8031 107.155 80.8022 107.459C80.7671 108.664 79.8841 109.53 78.4923 109.588C77.1005 109.647 75.6795 109.588 74.276 109.588V109.6Z" fill="#F9FDFC"/>
<path d="M72.7264 9.05237C73.3106 9.04381 73.8756 9.26095 74.3037 9.65855C74.7318 10.0562 74.99 10.6036 75.0246 11.1868C75.0293 11.7721 74.8017 12.3353 74.3917 12.753C73.9817 13.1706 73.4228 13.4087 72.8375 13.4148C72.5482 13.4282 72.259 13.3837 71.987 13.2841C71.7151 13.1845 71.4656 13.0317 71.2533 12.8346C71.041 12.6375 70.8701 12.4002 70.7505 12.1363C70.6309 11.8725 70.5651 11.5875 70.5569 11.2979C70.549 10.7131 70.7727 10.1489 71.1791 9.72824C71.5855 9.3076 72.1417 9.06466 72.7264 9.05237Z" fill="#F9FDFC"/>
<path d="M46.2182 11.2453C46.2075 11.8285 45.9666 12.3838 45.5482 12.7902C45.1297 13.1966 44.5676 13.4211 43.9844 13.4149C43.6952 13.4237 43.4073 13.3736 43.1381 13.2676C42.8689 13.1617 42.6241 13.0022 42.4184 12.7987C42.2128 12.5953 42.0507 12.3522 41.9419 12.0841C41.8331 11.8161 41.7799 11.5287 41.7856 11.2395C41.7832 10.9501 41.8388 10.6632 41.9489 10.3956C42.0591 10.1281 42.2217 9.88525 42.4271 9.68145C42.6325 9.47766 42.8767 9.31702 43.1451 9.20899C43.4135 9.10096 43.7009 9.04772 43.9902 9.05241C44.5728 9.05972 45.13 9.29203 45.5453 9.70075C45.9606 10.1095 46.2017 10.6629 46.2182 11.2453Z" fill="#F9FDFC"/>
<path d="M103.708 100.319L112.123 91.8925C112.462 91.5533 112.796 91.1908 113.158 90.875C113.579 90.4642 114.143 90.2343 114.731 90.2343C115.319 90.2343 115.884 90.4642 116.304 90.875C117.199 91.7755 117.228 92.9393 116.304 93.9977C115.568 94.8339 114.743 95.5883 113.965 96.3778C111.295 99.0561 108.618 101.732 105.936 104.407C104.404 105.933 103.381 105.933 101.843 104.407C100.632 103.237 99.4159 102.033 98.2405 100.805C97.2522 99.7753 97.2171 98.4654 98.0826 97.559C98.2987 97.3462 98.5559 97.1797 98.8385 97.0696C99.1211 96.9594 99.4232 96.908 99.7263 96.9184C100.029 96.9288 100.327 97.0008 100.602 97.13C100.876 97.2593 101.121 97.4431 101.322 97.6701C102.129 98.4888 102.86 99.3835 103.708 100.319Z" fill="#F9FDFC"/>
</svg>
