<svg width="125" height="113" viewBox="0 0 125 113" fill="none" xmlns="http://www.w3.org/2000/svg">
<path d="M93.6364 47.6506C88.4849 46.1379 84.5455 43.2637 81.8182 39.0281C78.7879 35.0951 77.2727 30.2544 77.2727 24.506C77.2727 17.245 79.5455 11.3454 84.0909 6.80722C88.6364 2.26908 94.2424 -2.68891e-06 100.909 -2.10609e-06C108.182 -1.47029e-06 114.091 2.26908 118.636 6.80723C122.879 11.6479 125 17.5475 125 24.506C125 28.1366 124.697 31.6158 124.091 34.9438C123.182 38.5743 121.515 43.7175 119.091 50.3735L100 113L78.1818 113L93.6364 47.6506ZM16.3636 47.6506C11.2121 46.1379 7.27272 43.2637 4.54545 39.0281C1.51515 35.095 -3.95541e-07 30.2544 1.06994e-07 24.506C7.41775e-07 17.245 2.27272 11.3454 6.81818 6.80722C11.3636 2.26907 16.9697 -9.44431e-06 23.6364 -8.86149e-06C30.9091 -8.22569e-06 36.8182 2.26907 41.3636 6.80722C45.6061 11.6479 47.7273 17.5475 47.7273 24.506C47.7273 28.1365 47.4242 31.6158 46.8182 34.9438C45.9091 38.5743 44.2424 43.7175 41.8182 50.3735L22.7273 113L0.909088 113L16.3636 47.6506Z" fill="#51CBDC" fill-opacity="0.5"/>
</svg>
