<svg width="128" height="131" viewBox="0 0 128 131" fill="none" xmlns="http://www.w3.org/2000/svg">
<path d="M50.758 0.047768C52.0544 0.730097 53.3167 1.46016 54.6677 2.01967C55.3581 2.20876 56.0767 2.27348 56.7898 2.21074C60.563 2.27897 63.3674 3.91658 65.1005 7.30093C65.8647 8.79523 65.6259 9.90057 64.466 10.4737C63.306 11.0469 62.419 10.5897 61.6547 9.10907C61.2408 8.16746 60.546 7.37683 59.6653 6.84548C58.7846 6.31414 57.7611 6.06807 56.7352 6.14096C54.8791 6.34931 53.0131 5.84441 51.5153 4.72853C50.7633 4.14648 49.8393 3.83064 48.8884 3.83064C47.9374 3.83064 47.0134 4.14648 46.2614 4.72853C44.6921 5.79297 43.3547 5.92943 41.7308 4.81041C39.7384 3.44575 37.6368 3.6095 35.7194 5.09698C35.2692 5.48406 34.7447 5.77513 34.178 5.9523C33.6113 6.12947 33.0143 6.18901 32.4238 6.1273C32.0485 6.07954 31.6596 6.1273 31.2775 6.1273C28.8484 6.05224 27.047 7.0894 26.1532 9.34108C25.9032 10.059 25.4923 10.7102 24.9518 11.2448C24.4113 11.7794 23.7556 12.1831 23.035 12.4252C22.8303 12.5002 22.6528 12.6299 22.455 12.6981C19.521 13.6602 18.2655 15.83 18.1358 18.7777C18.1621 19.4913 17.9757 20.1965 17.6003 20.804C17.2249 21.4114 16.6774 21.8936 16.0274 22.1893C14.2602 23.0832 13.5506 24.789 13.6734 26.7746C13.7212 27.6207 13.8576 28.4668 13.9736 29.306C14.1025 29.8818 14.0962 30.4796 13.9553 31.0526C13.8144 31.6255 13.5428 32.1581 13.1617 32.6085C12.5809 33.27 12.2067 34.0873 12.0854 34.9592C11.9642 35.8312 12.1011 36.7195 12.4793 37.5144C13.1139 39.0224 13.844 40.4757 14.5673 41.9427L19.1661 39.616C19.1661 38.1899 19.2617 36.4978 19.1661 34.8397C18.9205 31.0596 22.4686 29.0399 25.5118 30.9914C27.4496 32.24 29.4625 32.049 31.3457 30.698C31.8984 30.3022 32.4647 29.9269 33.0311 29.5585C33.4806 29.228 34.0223 29.0463 34.5802 29.039C35.1381 29.0317 35.6844 29.199 36.1425 29.5175C38.285 30.9504 40.3797 31.0391 42.5359 29.5585C42.9897 29.2314 43.5368 29.0593 44.0961 29.0679C44.6554 29.0765 45.197 29.2653 45.6405 29.6063C46.5245 30.2748 47.6026 30.6366 48.711 30.6366C49.8194 30.6366 50.8975 30.2748 51.7815 29.6063C52.2865 29.2432 52.8962 29.0547 53.5181 29.0695C54.1399 29.0843 54.74 29.3015 55.2272 29.6881C55.6844 29.9952 56.1484 30.2954 56.5919 30.6229C57.4311 31.3228 58.473 31.7343 59.564 31.797C60.6549 31.8597 61.7371 31.5701 62.651 30.9709C63.1801 30.613 63.7835 30.3797 64.4158 30.2887C65.0481 30.1977 65.6928 30.2513 66.3014 30.4455C67.0257 30.7036 67.6533 31.1775 68.0999 31.8034C68.5464 32.4293 68.7903 33.1771 68.7987 33.9459C68.7987 35.6039 68.8328 37.2619 68.7987 38.9132C68.7987 39.5955 68.9693 39.9026 69.6994 40.1414C70.9327 40.6156 72.1379 41.1601 73.3089 41.7721C73.9913 40.4075 74.7555 38.9268 75.3559 37.4189C75.9564 35.9109 75.9768 34.2597 74.8987 33.0725C73.5341 31.585 73.6433 29.9951 73.9708 28.3303C74.5576 25.3417 73.7456 23.1036 70.9276 21.6503C70.3602 21.2325 69.9763 20.6115 69.8563 19.9172C69.4606 18.109 69.4469 16.2326 68.3962 14.5745C68.2809 14.3564 68.2108 14.1172 68.19 13.8714C68.1692 13.6255 68.1982 13.378 68.2753 13.1436C68.3524 12.9092 68.4759 12.6927 68.6385 12.5072C68.8012 12.3216 68.9995 12.1707 69.2218 12.0636C70.1975 11.5518 71.2074 11.7429 71.6713 12.6504C72.3728 14.0814 72.9304 15.5785 73.3362 17.1196C73.4802 18.0159 73.943 18.8301 74.6395 19.4123C77.8055 21.855 78.481 25.212 77.9146 28.999C77.8457 29.6805 77.9887 30.3668 78.324 30.9641C79.1394 32.3622 79.5776 33.9481 79.5955 35.5665C79.6134 37.1849 79.2106 38.7801 78.4264 40.196C77.6022 42.0884 76.8757 44.022 76.2498 45.9889C76.1817 46.2345 76.1817 46.494 76.2498 46.7395C77.6144 52.0958 74.2506 57.1109 68.8602 58.2504C68.8383 61.5974 68.1687 64.9084 66.8882 68.0009C64.9609 72.7566 61.6495 76.8239 57.3834 79.6755C57.0753 79.8476 56.8241 80.1058 56.6605 80.4185C56.4969 80.7312 56.428 81.0847 56.4622 81.4359C56.5168 83.3055 56.51 85.1751 56.4622 87.0447C56.4088 87.3729 56.4771 87.7094 56.6543 87.9908C56.8314 88.2722 57.1053 88.4793 57.4243 88.5731C59.0278 89.194 60.5903 89.9377 62.2416 90.661C62.6646 89.2964 62.9785 88.034 63.4356 86.8263C68.3279 74.0668 77.5871 66.7249 91.0904 64.8758C94.767 64.4065 98.4992 64.638 102.09 65.5582C103.406 65.8788 104.137 66.7863 103.959 67.8644C103.782 68.9425 102.731 69.6862 101.339 69.3792C95.6586 67.9996 89.6942 68.3656 84.2251 70.4293C78.7561 72.493 74.0366 76.1584 70.6836 80.9466C67.3306 85.7348 65.4999 91.423 65.4307 97.2681C65.3615 103.113 67.057 108.843 70.2958 113.709C73.5346 118.576 78.1659 122.352 83.5846 124.544C89.0033 126.737 94.9573 127.244 100.669 125.999C106.38 124.755 111.583 121.816 115.598 117.567C119.613 113.319 122.253 107.958 123.174 102.186C124.093 96.5075 123.3 90.6843 120.896 85.4587C118.493 80.2331 114.587 75.842 109.677 72.8454L109.029 72.436C107.814 71.6718 107.419 70.5801 108.005 69.577C108.592 68.574 109.711 68.3284 110.98 69.0517C114.312 70.9476 117.273 73.4303 119.721 76.3799C125.241 82.9193 128.003 91.348 127.424 99.8861C126.742 114.481 114.829 127.814 100.37 130.025C86.6894 132.112 75.7244 127.452 67.475 116.378C67.3454 116.207 67.2157 116.044 67.0793 115.88C66.9969 115.812 66.9077 115.752 66.8132 115.702L57.9429 126.668C57.165 127.623 56.3872 128.571 55.623 129.54C54.8588 130.509 54.0741 130.905 52.9687 130.359C51.8633 129.813 51.7542 128.994 51.9862 127.889C53.5965 120.226 55.1726 112.55 56.7625 104.881C56.858 104.43 56.9262 103.966 57.0422 103.359C56.6396 103.571 56.3258 103.707 56.0392 103.891C53.0233 105.788 49.9938 107.665 47.012 109.623C46.1289 110.294 45.0504 110.657 43.9415 110.657C42.8326 110.657 41.7541 110.294 40.871 109.623C37.7255 107.542 34.5049 105.584 30.9909 103.366C31.3594 105.242 31.6732 106.812 31.9871 108.381C33.3518 114.931 34.7164 121.48 36.0811 128.025C36.1978 128.47 36.1563 128.941 35.9638 129.358C35.7712 129.775 35.4396 130.112 35.0257 130.311C34.6118 130.51 34.1415 130.559 33.6954 130.45C33.2493 130.34 32.8552 130.079 32.5807 129.711L19.6711 113.778C19.3259 113.411 19.1281 112.93 19.1155 112.427C19.1029 111.923 19.2764 111.433 19.6028 111.049C20.6536 109.596 20.4216 108.408 19.3094 107.023C17.7264 105.044 16.3823 102.875 14.7174 100.48C13.0525 102.295 11.4695 103.973 9.94107 105.7C9.32015 106.382 8.5764 106.866 7.71667 106.505C7.08715 106.207 6.59791 105.676 6.35201 105.024C6.31091 104.719 6.33204 104.409 6.41413 104.112C6.49622 103.815 6.63757 103.538 6.82965 103.298C9.6575 99.5107 13.3181 96.4244 17.5286 94.2773C19.1934 93.4381 20.8447 92.5647 22.5573 91.8278C25.1911 90.6883 27.859 89.6307 30.5269 88.5867C30.8714 88.5036 31.1722 88.294 31.3693 87.9995C31.5665 87.705 31.6457 87.3471 31.5913 86.9969C31.5231 85.0864 31.5914 83.169 31.5436 81.2653C31.5342 81.007 31.4732 80.7533 31.3642 80.5189C31.2552 80.2845 31.1005 80.0743 30.909 79.9007C23.69 74.8514 19.8234 67.9349 19.3094 59.1511C19.2548 58.3459 18.9069 58.1003 18.245 57.8887C16.1723 57.2695 14.3842 55.9395 13.195 54.1325C12.0057 52.3255 11.4914 50.1572 11.7424 48.0086C11.8204 47.1312 11.7206 46.247 11.449 45.409C10.7326 43.362 9.88648 41.3969 9.04039 39.4249C8.44652 38.1052 8.17048 36.6647 8.23448 35.2189C8.29847 33.7732 8.70071 32.3626 9.40885 31.1006C9.82817 30.2998 10.0014 29.393 9.90694 28.4941C9.29967 24.5502 10.446 21.391 13.6597 18.9824C14.0318 18.6719 14.275 18.2341 14.3421 17.7542C14.7447 13.708 16.7234 10.8354 20.483 9.29331C21.5855 8.87521 22.4831 8.04612 22.9872 6.98021C24.5907 3.82785 27.3132 2.27214 30.8203 2.20391C32.1701 2.2779 33.507 1.90894 34.6277 1.15314C35.4608 0.668853 36.3468 0.281934 37.2683 0H40.5776C41.5738 0.416221 42.5632 0.852923 43.5662 1.24867C43.7826 1.3385 44.023 1.35292 44.2486 1.28961C45.2448 0.880214 46.2205 0.429867 47.203 0L50.758 0.047768ZM64.9845 34.4303C64.8261 34.4222 64.6673 34.4383 64.5137 34.478C60.836 36.4773 57.3697 36.0815 54.0331 33.6388C53.8445 33.549 53.6382 33.5025 53.4293 33.5025C53.2204 33.5025 53.0141 33.549 52.8254 33.6388C51.5888 34.2594 50.2279 34.5927 48.8444 34.614C47.4609 34.6352 46.0905 34.3439 44.8353 33.7616C44.3174 33.5605 43.743 33.5605 43.2251 33.7616C42.0749 34.3176 40.815 34.6093 39.5375 34.6152C38.2601 34.6211 36.9975 34.3411 35.8423 33.7957C35.474 33.5786 35.0469 33.4823 34.621 33.5202C34.1952 33.5581 33.7919 33.7284 33.4677 34.0072C32.1429 35.0169 30.5545 35.6223 28.8937 35.7506C27.2329 35.8789 25.5704 35.5247 24.1062 34.7305C23.8099 34.6088 23.5069 34.5041 23.1987 34.4167C23.1987 37.146 23.1987 39.7047 23.1987 42.2907C23.2204 42.5832 23.3117 42.8662 23.4648 43.1164C25.0001 45.9003 26.5421 48.6842 28.1251 51.4408C28.2292 51.5995 28.3681 51.7323 28.5313 51.8292C28.6945 51.9262 28.8776 51.9847 29.0667 52.0002C32.0212 51.7683 34.9689 51.3725 37.937 51.1951C44.9326 50.7876 51.9507 51.016 58.905 51.8774C59.1057 51.8836 59.3051 51.843 59.4874 51.7589C59.6698 51.6749 59.8301 51.5496 59.9558 51.393C61.5797 48.6637 63.1491 45.8934 64.7321 43.13C64.8679 42.9245 64.9564 42.6915 64.9913 42.4476C64.9913 39.7797 64.9845 37.1255 64.9845 34.4303ZM44.1394 74.2578L57.5744 73.4459C58.7412 73.3776 59.1847 72.6953 59.1847 71.5831C59.1847 67.0047 59.1847 62.4262 59.1847 57.841C59.1847 56.0465 58.8367 55.7599 56.9876 55.6234C53.9444 55.4051 50.8944 55.0093 47.8512 55.0503C42.2084 55.1185 36.5724 55.446 30.9363 55.678C29.7627 55.7258 29.1895 56.258 29.0326 57.5544C28.4461 62.2328 28.4461 66.9661 29.0326 71.6445C29.1827 72.8591 29.7149 73.3844 30.8681 73.4527C35.31 73.7119 39.6838 73.9849 44.1394 74.2578ZM59.0755 93.5746C57.3834 92.824 55.7799 92.0666 54.1423 91.3911C53.6348 91.2291 53.1988 90.8969 52.9078 90.4506C52.6169 90.0043 52.489 89.4712 52.5457 88.9415C52.5866 86.7854 52.5457 84.636 52.5457 82.3025C49.8696 83.5291 46.9604 84.164 44.0166 84.164C41.0727 84.164 38.1636 83.5291 35.4875 82.3025C35.4875 83.9196 35.4875 85.3593 35.4875 86.799C35.4875 91.0022 35.9446 90.4768 31.9052 92.2576C29.0053 93.5404 28.9712 93.5473 29.6399 96.6246C29.7564 97.3058 30.1091 97.9242 30.6361 98.3713C34.7301 101.101 38.9264 103.653 43.0749 106.3C43.3171 106.498 43.6184 106.609 43.9311 106.617C44.2437 106.624 44.55 106.527 44.8012 106.341C49.0453 103.612 53.3235 100.944 57.5744 98.228C57.9311 98.0186 58.2055 97.6936 58.3523 97.3069C58.632 96.1196 58.8231 94.871 59.0755 93.5746V93.5746ZM18.0335 98.4054C20.0327 101.292 21.9023 104.103 23.8947 106.832C24.8295 108.122 25.1297 109.33 24.1608 110.66C23.3898 111.724 23.574 112.523 24.4337 113.505C26.4807 115.859 28.3981 118.329 30.37 120.759L30.5406 120.663C28.7665 112.12 26.9856 103.605 25.1843 94.9119L18.0335 98.4054ZM57.4994 120.656C57.6813 120.562 57.8548 120.452 58.0179 120.329C60.1605 117.695 62.3166 115.075 64.4045 112.4C64.5052 112.188 64.563 111.959 64.5747 111.724C64.5864 111.49 64.5518 111.256 64.4728 111.035C63.7358 108.524 62.9239 106.041 62.1801 103.53C61.9618 102.779 61.8663 101.981 61.7162 101.21H61.5183C60.1946 107.665 58.8708 114.058 57.4994 120.656ZM68.9079 54.1087C70.0512 53.7623 71.0443 53.0405 71.7266 52.0598C72.4088 51.0791 72.7403 49.897 72.6675 48.7046C72.6089 47.644 72.2123 46.63 71.5358 45.8111C70.8593 44.9921 69.9384 44.4112 68.9079 44.1535V54.1087ZM52.6344 77.9219H35.3783C41.1644 81.0607 46.8073 80.9992 52.6344 77.9083V77.9219ZM19.2003 54.0404V44.8085C19.1879 44.6047 19.1628 44.4019 19.1252 44.2012C18.1432 44.4815 17.2733 45.0616 16.6371 45.8605C16.001 46.6593 15.6303 47.637 15.5771 48.6569C15.4866 49.8328 15.7949 51.0049 16.4522 51.9841C17.1096 52.9633 18.0777 53.6925 19.2003 54.0541V54.0404ZM64.7321 51.0518C64.1043 52.1504 63.4493 53.2353 62.8556 54.3475C62.7383 54.6564 62.7099 54.9921 62.7738 55.3164C62.9102 56.6811 63.1081 58.0047 63.2378 59.3489C63.3333 60.3656 63.381 61.3959 63.4152 62.399C63.4493 63.402 63.4152 64.3367 63.4152 65.3057C65.4621 60.7068 64.9026 55.9032 64.7321 51.0655V51.0518ZM23.4785 51.1678C23.3761 55.9441 22.5778 60.8091 24.4201 65.333C24.7817 61.9759 25.157 58.5915 25.505 55.2072C25.5046 54.9675 25.441 54.7322 25.3207 54.5249C24.7203 53.4263 24.0926 52.2869 23.4785 51.1815V51.1678Z" fill="#F9FDFC"/>
<path d="M93.8265 87.7952C93.8265 91.664 93.8265 95.526 93.8265 99.3948C93.857 100.204 93.6961 101.008 93.357 101.744C93.018 102.479 92.5102 103.123 91.875 103.625C90.2442 104.99 88.593 106.314 86.9554 107.665C86.2725 108.207 85.4773 108.591 84.6275 108.788C83.7778 108.985 82.8948 108.991 82.0426 108.804C81.3019 108.654 80.5386 108.654 79.7978 108.804C79.1663 109.012 78.6386 109.454 78.3237 110.039C78.0088 110.624 77.9307 111.308 78.1056 111.95C78.283 112.613 78.704 113.185 79.2844 113.552C79.8649 113.919 80.5623 114.053 81.2375 113.928C84.2398 113.403 87.2488 112.891 90.2374 112.298C93.8879 111.574 97.395 112.298 100.916 113.151C102.635 113.553 104.328 114.092 106.17 113.567C107.292 113.302 108.321 112.734 109.144 111.926C109.967 111.118 110.552 110.099 110.837 108.982C111.519 106.552 111.035 104.205 109.036 102.609C107.036 101.012 106.682 99.2925 106.729 96.9794C106.859 91.3365 106.77 85.6868 106.777 80.044C106.777 79.6619 106.777 79.2729 106.777 78.8977C106.781 78.645 106.834 78.3955 106.934 78.1634C107.034 77.9313 107.179 77.7212 107.36 77.545C107.541 77.3689 107.755 77.2302 107.99 77.1368C108.225 77.0434 108.476 76.9972 108.729 77.0008C108.981 77.0043 109.231 77.0577 109.463 77.1577C109.695 77.2577 109.905 77.4024 110.081 77.5836C110.257 77.7648 110.396 77.979 110.489 78.2138C110.583 78.4486 110.629 78.6995 110.625 78.9522C110.625 81.6269 110.625 84.3017 110.625 86.9764C110.625 90.388 110.66 93.8611 110.625 97.3C110.605 97.7329 110.685 98.1645 110.858 98.5619C111.03 98.9593 111.292 99.3119 111.622 99.5927C113.07 100.862 114.122 102.521 114.651 104.373C115.18 106.225 115.163 108.19 114.603 110.032C114.18 111.863 113.23 113.53 111.871 114.827C110.512 116.124 108.803 116.995 106.954 117.333C105.094 117.726 103.168 117.672 101.332 117.176C95.9826 115.573 90.7219 115.934 85.3997 117.129C83.7954 117.528 82.1532 117.757 80.5006 117.811C76.6454 117.811 73.8274 114.461 74.2095 110.476C74.3015 109.598 74.5725 108.748 75.006 107.979C75.4394 107.21 76.026 106.538 76.7295 106.004C77.4329 105.471 78.2384 105.088 79.0959 104.878C79.9535 104.668 80.8449 104.637 81.7151 104.785C82.4214 104.981 83.1674 104.981 83.8739 104.787C84.5804 104.592 85.2209 104.21 85.7272 103.68C86.7064 102.737 87.7582 101.872 88.8728 101.094C89.2533 100.83 89.5572 100.47 89.7537 100.05C89.9502 99.6309 90.0324 99.167 89.9918 98.7056C89.9918 91.3979 89.9918 84.097 89.9918 76.7892C89.9918 76.4071 89.9918 76.025 89.9918 75.6429C90.0737 74.367 90.8447 73.5959 91.9569 73.5959C92.2232 73.6044 92.485 73.6667 92.7266 73.7791C92.9681 73.8915 93.1844 74.0518 93.3623 74.2501C93.5402 74.4484 93.6761 74.6807 93.7617 74.933C93.8474 75.1853 93.881 75.4523 93.8606 75.718C93.8606 78.727 93.8606 81.7429 93.8606 84.7588L93.8265 87.7952Z" fill="#F9FDFC"/>
<path d="M0.54531 123.351C0.323426 119.421 0.918178 115.488 2.29207 111.8C2.52136 111.139 2.99515 110.592 3.61579 110.271C3.94626 110.182 4.29354 110.174 4.6276 110.249C4.96166 110.324 5.27246 110.479 5.53313 110.701C5.95213 111.346 6.1129 112.126 5.98347 112.884C5.5536 115.546 4.78941 118.166 4.50283 120.84C4.2299 123.365 4.44825 125.931 4.38001 128.476C4.33225 130.12 2.66736 131.034 1.43235 130.072C0.94907 129.63 0.645477 129.025 0.579439 128.373C0.463443 126.9 0.54531 125.405 0.54531 123.351Z" fill="#F9FDFC"/>
</svg>
