<svg width="102" height="121" viewBox="0 0 102 121" fill="none" xmlns="http://www.w3.org/2000/svg">
<path d="M77.391 0.196045C78.3786 0.709846 79.4585 1.10058 80.3354 1.76206C82.2767 3.22963 83.0213 5.29406 83.0182 7.70616C83.0038 26.0246 83.0038 44.344 83.0182 62.6645C83.0182 73.0174 82.9321 83.3673 83.0613 93.7171C83.1167 98.246 79.7323 101.507 75.3235 101.489C52.7942 101.392 30.2638 101.392 7.73246 101.489C3.49283 101.507 -0.00533055 98.3936 0.0408193 93.8187C0.148502 79.7553 0.0808155 65.695 0.0808155 51.6316C0.0808155 51.3239 0.0808155 51.0162 0.105429 50.7086C0.16392 50.1427 0.421 49.6159 0.831039 49.2217C1.24108 48.8274 1.77755 48.5912 2.34523 48.5549C2.91593 48.556 3.46795 48.7584 3.90411 49.1265C4.34026 49.4945 4.63259 50.0047 4.72964 50.567C4.77891 50.9938 4.79434 51.4239 4.77579 51.8531V93.431C4.77579 95.9846 5.56341 96.7599 8.16011 96.7599H74.9235C77.5448 96.7599 78.3325 95.9662 78.3325 93.3295V8.2538C78.3325 5.6971 77.5233 4.86948 74.9851 4.86948H8.07704C5.56342 4.88179 4.75733 5.68787 4.75425 8.1492V30.178C4.76916 30.5689 4.76094 30.9603 4.72964 31.3503C4.6737 31.9396 4.39604 32.4856 3.95282 32.878C3.5096 33.2704 2.9339 33.4798 2.34216 33.4639C1.7492 33.4531 1.18318 33.2144 0.761546 32.7973C0.33991 32.3803 0.0950363 31.8169 0.0777388 31.2241C0.0500489 30.8365 0.059279 30.4426 0.059279 30.0519C0.059279 23.1017 0.197728 16.1423 0.00697588 9.19526C-0.113014 4.76488 1.29609 1.62054 5.69571 0.196045H77.391Z" fill="#1F140F"/>
<path d="M101.764 67.6578C101.764 82.6576 101.764 97.6552 101.764 112.651C101.764 116.518 99.7583 119.176 96.2263 120.035C95.6939 120.151 95.1498 120.205 94.6049 120.195C70.2809 120.195 45.9558 120.195 21.6297 120.195C20.5744 120.195 19.5684 119.986 19.1899 118.964C18.923 118.223 18.9394 117.408 19.2361 116.678C19.5007 116.134 20.3375 115.811 20.9836 115.528C21.3436 115.371 21.8297 115.488 22.2604 115.488H93.5988C96.334 115.488 97.0724 114.749 97.0724 112.02C97.0724 82.1396 97.0724 52.2602 97.0724 22.3818C97.0528 21.9129 97.0641 21.4432 97.1062 20.9757C97.1788 20.3856 97.474 19.8455 97.9314 19.4658C98.3889 19.0861 98.9742 18.8955 99.5675 18.9328C100.138 18.961 100.678 19.2 101.083 19.6036C101.488 20.0071 101.728 20.5465 101.758 21.1173C101.792 21.5449 101.78 21.9757 101.78 22.4064L101.764 67.6578Z" fill="#1F140F"/>
<path d="M92.3837 58.0864C92.3837 73.122 92.316 88.1607 92.4267 103.199C92.4575 107.334 89.4055 110.891 84.7351 110.873C63.7677 110.783 42.8003 110.836 21.8329 110.826C21.3283 110.852 20.8228 110.799 20.3346 110.67C19.8523 110.495 19.4426 110.163 19.171 109.728C18.8993 109.293 18.7815 108.78 18.8362 108.27C18.8866 107.741 19.1159 107.244 19.4861 106.863C19.8564 106.481 20.3455 106.238 20.873 106.171C21.3005 106.132 21.7301 106.121 22.159 106.138H84.2275C86.9534 106.138 87.6918 105.399 87.6918 102.661V12.8996C87.6918 10.6813 88.4978 9.5583 90.07 9.58292C91.6422 9.60753 92.3744 10.7059 92.3744 12.8565L92.3837 58.0864Z" fill="#1F140F"/>
<path d="M13.1781 31.0149C13.1781 27.5014 13.1781 23.9878 13.1781 20.4743C13.1781 18.3822 14.0057 17.5422 16.0517 17.5422C23.1916 17.5422 30.3335 17.5422 37.4775 17.5422C39.5297 17.5422 40.3634 18.3883 40.3634 20.4743C40.3634 27.5814 40.3634 34.6874 40.3634 41.7924C40.3634 43.8784 39.5327 44.7214 37.4775 44.7245H16.0517C14.0088 44.7245 13.1874 43.8815 13.1812 41.7894C13.175 38.1979 13.174 34.6064 13.1781 31.0149ZM35.5854 39.9864V22.2803H17.9377V39.9864H35.5854Z" fill="#1F140F"/>
<path d="M55.2576 63.2398C50.7349 63.2398 46.2091 63.2398 41.6864 63.2398C40.3758 63.2398 39.422 62.4645 39.2251 61.3446C39.1203 60.8233 39.2002 60.2818 39.4512 59.813C39.7021 59.3442 40.1084 58.9774 40.6004 58.7756C41.0018 58.6314 41.4261 58.5615 41.8526 58.5695C50.7441 58.5695 59.6356 58.5695 68.5272 58.5695C70.1147 58.5695 71.1977 59.5171 71.2223 60.8739C71.2469 62.2307 70.127 63.2429 68.4749 63.246C64.0711 63.2501 59.6654 63.248 55.2576 63.2398Z" fill="#1F140F"/>
<path d="M55.1313 81.0659C50.6456 81.0659 46.1598 81.0659 41.6771 81.0659C40.3695 81.0659 39.4158 80.2875 39.2158 79.1646C39.1125 78.643 39.1943 78.1018 39.447 77.634C39.6997 77.1663 40.1075 76.8012 40.6003 76.6017C41.0015 76.457 41.4261 76.3881 41.8525 76.3986C50.744 76.3863 59.6355 76.3863 68.5271 76.3986C70.1085 76.3986 71.1945 77.3616 71.213 78.7154C71.2315 80.0691 70.1115 81.0752 68.444 81.0782C64.0157 81.07 59.5781 81.0659 55.1313 81.0659Z" fill="#1F140F"/>
<path d="M20.876 61.6214C22.9312 59.56 24.7803 57.6064 26.7524 55.7758C27.3493 55.222 28.3154 54.7266 29.0661 54.7881C29.7429 54.8435 30.5275 55.5788 30.9582 56.2188C31.5182 57.0495 31.109 57.9725 30.4721 58.6801C29.6045 59.6308 28.6692 60.5261 27.7585 61.4276C26.1617 63.0305 24.5711 64.6365 22.9589 66.2241C21.5313 67.6332 20.3407 67.6332 18.91 66.2241C17.5994 64.9442 16.3031 63.6489 15.0211 62.3383C13.8428 61.1353 13.7351 59.7077 14.7135 58.7109C15.6918 57.714 17.1471 57.7879 18.3408 58.9447C19.1685 59.7693 19.9469 60.643 20.876 61.6214Z" fill="#1F140F"/>
<path d="M20.8483 79.6446C23.0727 77.3894 25.011 75.3527 27.0293 73.4021C28.543 71.9376 30.7613 72.5314 31.0628 74.5035C31.0984 74.8788 31.0588 75.2574 30.9462 75.6172C30.8337 75.9769 30.6505 76.3107 30.4074 76.5987C27.8877 79.26 25.2787 81.8291 22.6543 84.4042C21.5774 85.4534 20.3037 85.438 19.2115 84.4042C17.6732 82.952 16.1902 81.4629 14.7473 79.9308C14.5225 79.7119 14.3442 79.4501 14.223 79.1607C14.1019 78.8714 14.0403 78.5606 14.042 78.247C14.0438 77.9333 14.1087 77.6232 14.2331 77.3353C14.3574 77.0473 14.5386 76.7874 14.7657 76.5711C15.6887 75.6881 16.9963 75.6481 18.027 76.6141C19.0023 77.5125 19.8268 78.5401 20.8483 79.6446Z" fill="#1F140F"/>
<path d="M59.3434 17.5394C61.9585 17.5394 64.5737 17.5394 67.1827 17.5394C68.801 17.5394 69.8501 18.4624 69.8809 19.8315C69.9117 21.2006 68.8318 22.2159 67.1642 22.219C61.938 22.219 56.7077 22.219 51.4733 22.219C49.8273 22.219 48.8212 21.3359 48.7966 19.9299C48.772 18.4624 49.7903 17.5486 51.4917 17.5394C54.1161 17.5332 56.7313 17.5394 59.3434 17.5394Z" fill="#1F140F"/>
<path d="M59.2326 33.4733C56.6575 33.4733 54.0823 33.4733 51.5072 33.4733C49.8058 33.4733 48.7874 32.5503 48.8089 31.0889C48.8305 29.6798 49.8365 28.7968 51.4795 28.7937C56.7077 28.7937 61.938 28.7937 67.1704 28.7937C68.841 28.7937 69.9179 29.7567 69.8902 31.1781C69.8625 32.5995 68.8133 33.4641 67.1981 33.4702C64.5368 33.4825 61.8847 33.4733 59.2326 33.4733Z" fill="#1F140F"/>
<path d="M59.3063 44.7245C56.6943 44.7245 54.076 44.7245 51.467 44.7245C49.8241 44.7245 48.8211 43.8354 48.7996 42.4263C48.7811 40.9648 49.7995 40.048 51.5039 40.0449C56.7322 40.0449 61.9625 40.0449 67.1949 40.0449C68.807 40.0449 69.8562 40.9679 69.8808 42.3432C69.9054 43.7184 68.8286 44.7153 67.1549 44.7214C64.5366 44.7337 61.9276 44.7245 59.3063 44.7245Z" fill="#1F140F"/>
<path d="M11.7876 110.817C11.4786 110.817 11.1727 110.755 10.8879 110.636C10.603 110.516 10.3448 110.341 10.1285 110.12C9.9122 109.9 9.74207 109.638 9.62809 109.351C9.5141 109.064 9.45855 108.757 9.46469 108.448C9.46391 108.136 9.52564 107.827 9.64623 107.539C9.76682 107.252 9.94383 106.991 10.1668 106.773C10.3898 106.555 10.6542 106.384 10.9445 106.269C11.2347 106.155 11.545 106.1 11.8568 106.108C12.1687 106.115 12.4758 106.185 12.7602 106.314C13.0445 106.442 13.3003 106.626 13.5124 106.855C13.7244 107.083 13.8885 107.352 13.995 107.645C14.1014 107.939 14.148 108.25 14.132 108.562C14.1127 109.169 13.8568 109.745 13.4187 110.167C12.9807 110.588 12.3953 110.821 11.7876 110.817Z" fill="#1F140F"/>
<path d="M4.74503 41.6448C4.71814 42.2514 4.46796 42.8267 4.04257 43.26C3.61719 43.6934 3.04664 43.9542 2.44061 43.9923C1.81293 43.9826 1.21395 43.7278 0.771788 43.2822C0.32963 42.8365 0.0794121 42.2356 0.0746633 41.6079C0.0720819 41.2967 0.133326 40.9883 0.254613 40.7017C0.375901 40.4151 0.554656 40.1564 0.779838 39.9416C1.00502 39.7268 1.27185 39.5604 1.56385 39.4528C1.85584 39.3451 2.16681 39.2985 2.47753 39.3158C3.08527 39.3295 3.66335 39.5812 4.0874 40.0167C4.51146 40.4523 4.7476 41.0369 4.74503 41.6448Z" fill="#1F140F"/>
</svg>
