<svg width="128" height="135" viewBox="0 0 128 135" fill="none" xmlns="http://www.w3.org/2000/svg">
<path d="M8.13102 134.34C8.13102 134.304 8.13101 134.241 8.07482 134.227C2.98923 132.885 0.502628 128.741 0.516676 123.269C0.615016 91.1261 0.565858 58.983 0.572883 26.8398C0.48977 26.4987 0.477597 26.1442 0.537105 25.7982C0.596613 25.4523 0.726527 25.1222 0.918823 24.8285C1.11112 24.5347 1.36168 24.2837 1.65499 24.0908C1.9483 23.8978 2.2781 23.7672 2.62396 23.707C2.84351 23.6776 3.06674 23.6925 3.28043 23.7508C3.49413 23.8092 3.69398 23.9097 3.86815 24.0466C4.04233 24.1834 4.1873 24.3538 4.29452 24.5476C4.40175 24.7415 4.46904 24.9548 4.49242 25.1751C4.59697 25.7756 4.64168 26.385 4.62589 26.9944C4.62589 59.3061 4.62589 91.6178 4.62589 123.93C4.59928 125.098 4.80213 126.26 5.22296 127.35C6.06587 129.338 7.81492 130.202 9.92221 130.378C10.2664 130.378 10.6246 130.378 10.9688 130.378C37.6892 130.378 64.4096 130.378 91.13 130.378C93.2373 130.378 95.169 129.872 96.3701 128.011C96.9352 127.177 97.263 126.206 97.3184 125.201C97.3816 113.351 97.3605 101.501 97.3605 89.644C97.3376 89.4869 97.3023 89.3319 97.2551 89.1804C96.0399 90.1146 94.8599 90.9645 93.743 91.8918C92.6261 92.819 91.4672 93.1912 90.1185 92.5942C88.7698 91.9971 88.3554 90.7187 88.3624 89.2436C88.3624 80.0137 88.3624 70.7908 88.3975 61.5609C88.3975 60.5283 88.2781 59.9312 87.0348 59.9383C86.0873 59.8799 85.147 59.7365 84.2251 59.5098C80.137 58.7722 78.0156 56.5807 77.4326 52.4855C77.3202 51.6637 77.2149 50.8418 77.1236 50.02C76.9498 48.05 76.1694 46.1824 74.8898 44.6745C73.9652 43.5778 73.1379 42.4026 72.4173 41.1624C71.7607 40.0931 71.4131 38.8628 71.4131 37.6081C71.4131 36.3533 71.7607 35.1231 72.4173 34.0538C72.8024 33.3123 73.2739 32.6191 73.8221 31.9886C76.1121 29.5582 77.0603 26.6431 77.4467 23.3698C78.0648 18.1789 80.2564 16.0154 85.4333 15.5237C88.4134 15.3574 91.2531 14.2032 93.5042 12.2434C94.4244 11.4145 95.6536 10.9228 96.6792 10.1923C96.8692 10.0573 97.0295 9.88481 97.1503 9.68548C97.2712 9.48614 97.3499 9.26416 97.3816 9.03325C97.4238 6.37807 95.1198 4.11626 92.2468 3.90553C91.9448 3.90553 91.6357 3.90553 91.3267 3.90553C64.4798 3.90553 37.6283 3.90553 10.7721 3.90553C9.68749 3.89341 8.61258 4.11127 7.61824 4.54474C6.73222 4.91691 5.97817 5.54621 5.45351 6.35136C4.92884 7.15651 4.65768 8.1005 4.67506 9.06135C4.61887 11.3372 4.67507 13.6131 4.63995 15.8819C4.65178 16.3186 4.62828 16.7556 4.5697 17.1885C4.55628 17.4309 4.49501 17.6683 4.38942 17.8869C4.28384 18.1056 4.13604 18.3012 3.95452 18.4625C3.773 18.6238 3.56136 18.7475 3.33179 18.8266C3.10223 18.9057 2.85929 18.9387 2.61695 18.9235C2.36216 18.9517 2.10426 18.925 1.8607 18.845C1.61713 18.765 1.39358 18.6337 1.20513 18.4599C1.01668 18.2861 0.867741 18.0739 0.768361 17.8376C0.668982 17.6012 0.621473 17.3464 0.629067 17.0901C0.503517 13.9912 0.571557 10.8874 0.832778 7.79699C1.13343 5.63161 2.20857 3.64854 3.85909 2.21499C5.5096 0.781443 7.62367 -0.00545621 9.80981 2.84789e-05C37.2748 2.84789e-05 64.7374 2.84789e-05 92.1977 2.84789e-05C94.4488 0.00794694 96.6187 0.842082 98.2956 2.3441C99.9724 3.84612 101.039 5.91148 101.294 8.14821C101.435 9.36341 101.744 10.1782 103.008 10.684C104.086 11.1694 105.07 11.8398 105.916 12.6648C107.864 14.382 110.345 15.3744 112.94 15.4745C113.683 15.526 114.42 15.6341 115.146 15.7976C118.946 16.6265 120.962 18.9164 121.468 22.9765C121.573 23.8053 121.707 24.6202 121.77 25.449C121.953 27.6406 123.041 29.3756 124.355 31.0685C128.527 36.421 128.569 38.9076 124.355 44.1687C122.486 46.4868 121.84 49.0857 121.496 51.8955C120.864 56.967 118.686 59.2429 113.629 59.7416C110.419 60.0577 107.609 60.9849 105.235 63.2046C104.572 63.7749 103.844 64.2631 103.064 64.6586C101.952 65.3277 100.675 65.6753 99.3771 65.6629C98.0788 65.6505 96.8094 65.2786 95.7098 64.5883C94.6281 63.9562 93.6025 63.1835 92.4646 62.4108V87.8949L96.8477 84.4881C98.955 82.8445 99.9103 82.8445 102.067 84.4881C103.472 85.5839 104.877 86.6867 106.534 88.0003V86.3988C106.534 80.3625 106.534 74.3287 106.534 68.2972C106.534 66.5341 107.827 65.4453 109.189 66.1899C109.51 66.3758 109.786 66.6302 109.997 66.935C110.209 67.2397 110.35 67.5873 110.412 67.953C110.496 75.3425 110.468 82.704 110.454 90.1216C110.462 90.6744 110.3 91.2165 109.99 91.674C109.68 92.1315 109.236 92.4822 108.719 92.6785C108.228 92.9269 107.676 93.0298 107.128 92.975C106.581 92.9202 106.06 92.7101 105.628 92.3694C104.308 91.379 103.015 90.3605 101.47 89.1663V122.82C101.47 129.556 99.8612 131.951 93.6728 134.368L8.13102 134.34ZM123.575 37.7415C123.372 37.0549 123.108 36.3874 122.788 35.7466C122.187 34.7841 121.521 33.8641 120.794 32.9931C119.233 31.1519 118.224 28.9067 117.885 26.5167C117.731 25.3928 117.626 24.2549 117.401 23.1521C116.895 20.6374 116.27 19.8998 113.72 19.6821C109.556 19.4197 105.593 17.7985 102.439 15.0671C100.016 12.9598 98.7443 13.0863 96.1172 15.306C93.3492 17.7434 89.868 19.2216 86.1919 19.5205C82.3847 19.8436 81.7947 20.5601 81.3311 24.3673C80.9307 27.7249 80.0316 30.7805 77.819 33.4989C74.651 37.299 74.7002 38.1208 77.819 41.928C79.7304 44.2164 80.9035 47.0304 81.1836 49.9989C81.6753 54.9159 82.167 55.3936 87.0278 55.9344C90.0965 56.1834 93.0031 57.415 95.3165 59.4466C95.9584 59.9719 96.6265 60.4642 97.3184 60.9217C97.9364 61.4224 98.7076 61.6956 99.5029 61.6956C100.298 61.6956 101.07 61.4224 101.687 60.9217C102.502 60.3387 103.324 59.7556 104.104 59.1235C106.027 57.449 108.422 56.4132 110.96 56.1592C111.999 56.0679 113.032 55.8642 114.057 55.6886C116.242 55.3233 117.169 54.663 117.366 52.4574C117.652 47.8482 119.489 43.4713 122.578 40.0385C123.02 39.3253 123.356 38.5515 123.575 37.7415Z" fill="#F9FDFC"/>
<path d="M51.0353 58.4561C48.0219 58.4561 45.0015 58.3858 41.988 58.4561C36.7268 58.5966 33.3482 54.3258 34.5915 49.5141C34.8865 48.3832 34.9637 47.1891 35.2447 46.0512C35.6365 44.1807 36.521 42.4489 37.8066 41.0349C39.0922 39.6209 40.7322 38.576 42.557 38.0084C43.1751 37.7906 44.2147 37.4113 44.2358 37.0741C44.292 35.7325 44.4325 34.131 43.7933 33.0844C42.6694 31.251 41.6509 29.4668 41.6017 27.3104C41.4939 24.9547 41.5338 22.5946 41.7211 20.244C41.9987 17.8804 43.1745 15.7141 45.0051 14.1935C46.8356 12.6728 49.1808 11.9142 51.5551 12.0747C53.8879 12.2334 56.0772 13.2579 57.6938 14.9472C59.3103 16.6365 60.2374 18.8688 60.2933 21.2063C60.3686 23.7314 60.2748 26.2588 60.0124 28.7714C59.7562 30.1417 59.1703 31.4291 58.3055 32.5224C57.2237 33.9905 57.7576 35.5288 57.7224 37.046C57.7224 37.2568 58.3617 37.5026 58.7269 37.7063C60.3495 38.6054 62.1337 39.3008 63.5807 40.4388C65.8074 42.1878 66.7205 44.7798 67.0928 47.5333C67.3176 49.2543 67.7461 51.0455 67.5354 52.7102C67.1069 56.1451 64.1848 58.3718 60.4549 58.421C57.3572 58.4842 54.1892 58.449 51.0353 58.4561ZM50.9932 54.3609C54.2665 54.3609 57.5468 54.3609 60.8272 54.3609C61.2544 54.3803 61.6803 54.3001 62.0712 54.1267C62.4622 53.9533 62.8075 53.6915 63.08 53.3618C63.3524 53.0321 63.5445 52.6437 63.6412 52.2271C63.7378 51.8105 63.7364 51.3771 63.6369 50.9611C63.4543 49.8443 63.1944 48.7415 63.0328 47.6176C62.6184 44.6323 60.9255 42.7498 58.1158 41.7383C57.8294 41.604 57.5105 41.5545 57.1969 41.5955C56.8832 41.6366 56.5879 41.7666 56.3457 41.9701C52.9108 44.4356 48.9842 44.3934 45.5002 41.9701C45.22 41.734 44.8618 41.6113 44.4957 41.6259C42.0021 42.3283 40.0774 43.7332 39.3469 46.3321C38.9465 47.737 38.7358 49.2262 38.4478 50.6802C38.0053 52.8858 39.1502 54.3609 41.4191 54.375C44.6221 54.382 47.8112 54.3609 51.0353 54.3609H50.9932ZM56.156 20.1316C55.0883 17.1954 52.7984 15.7344 50.1573 16.1769C47.3476 16.6475 45.6336 18.7127 45.6126 21.698C45.6126 23.5313 45.5634 25.3717 45.6126 27.205C45.6544 28.2226 45.988 29.2067 46.5735 30.04C47.159 30.8733 47.9718 31.5206 48.915 31.9049C49.8582 32.2891 50.892 32.394 51.8931 32.2071C52.8942 32.0202 53.8205 31.5493 54.5615 30.8506C56.437 29.0875 56.5424 26.8398 56.3106 24.4515C55.3272 24.6763 54.4491 24.9291 53.55 25.0626C51.7774 25.434 49.9302 25.1416 48.3591 24.2408C47.9216 23.982 47.6004 23.565 47.4618 23.076C47.3232 22.587 47.3779 22.0635 47.6145 21.6137C48.1694 20.7075 49.0194 20.2088 50.0519 20.7076C52.2295 21.7331 54.14 20.8972 56.163 20.1316H56.156ZM48.1132 36.175C48.3169 37.1444 48.1764 38.6265 48.8156 39.1463C49.4298 39.6191 50.183 39.8754 50.9581 39.8754C51.7331 39.8754 52.4863 39.6191 53.1005 39.1463C53.7256 38.6406 53.557 37.1374 53.7256 36.168L48.1132 36.175Z" fill="#F9FDFC"/>
<path d="M50.5015 81.5238H21.3999C21.0065 81.5238 20.6062 81.5238 20.2198 81.5238C18.815 81.4185 18.0142 80.6388 18.0634 79.4166C18.1125 78.1943 18.8993 77.5551 20.262 77.4708C20.564 77.4708 20.8731 77.4708 21.1751 77.4708H80.1791C80.743 77.4515 81.3071 77.5035 81.8579 77.6254C82.2935 77.717 82.679 77.9681 82.939 78.3294C83.1989 78.6907 83.3144 79.1361 83.2628 79.5781C83.2798 79.9957 83.1478 80.4058 82.8905 80.7352C82.6332 81.0645 82.2673 81.2918 81.8579 81.3763C81.3036 81.491 80.7381 81.5428 80.1721 81.5309L50.5015 81.5238Z" fill="#F9FDFC"/>
<path d="M50.6281 92.0884H20.9996C20.6065 92.1096 20.2126 92.1096 19.8195 92.0884C19.5686 92.069 19.324 92 19.0999 91.8854C18.8759 91.7708 18.6767 91.6129 18.5141 91.4208C18.3514 91.2288 18.2285 91.0064 18.1523 90.7665C18.0762 90.5266 18.0484 90.274 18.0705 90.0233C18.0629 89.7813 18.1043 89.5402 18.1921 89.3146C18.28 89.089 18.4125 88.8834 18.5818 88.7102C18.751 88.537 18.9535 88.3998 19.177 88.3068C19.4006 88.2138 19.6406 88.1669 19.8827 88.1689C20.234 88.1689 20.5852 88.1689 20.9294 88.1689H80.3127C80.6639 88.1689 81.0151 88.1689 81.3593 88.1689C81.6113 88.167 81.8612 88.2154 82.0943 88.3112C82.3274 88.4069 82.5391 88.5483 82.717 88.7268C82.8949 88.9053 83.0354 89.1175 83.1303 89.351C83.2253 89.5845 83.2727 89.8345 83.2699 90.0865C83.2818 90.5935 83.0966 91.0853 82.7534 91.4586C82.4102 91.8319 81.9357 92.0577 81.4295 92.0884C81.0365 92.1096 80.6425 92.1096 80.2495 92.0884H50.6281Z" fill="#F9FDFC"/>
<path d="M50.6841 70.84H20.4094C18.8149 70.84 17.958 70.0533 18.0704 68.7328C18.081 68.2906 18.2511 67.8673 18.5493 67.5407C18.8475 67.2141 19.2537 67.0063 19.693 66.9556C19.9965 66.9238 20.3026 66.9238 20.6061 66.9556H80.6427C80.9918 66.9283 81.3429 66.9401 81.6893 66.9907C82.1497 67.0619 82.5665 67.3037 82.8568 67.6681C83.147 68.0325 83.2894 68.4929 83.2557 68.9575C83.2797 69.4243 83.1231 69.8824 82.8183 70.2368C82.5136 70.5913 82.0842 70.8148 81.6191 70.8611C81.2289 70.8964 80.8362 70.8964 80.446 70.8611L50.6841 70.84Z" fill="#F9FDFC"/>
<path d="M50.7895 98.6842C60.6656 98.6842 70.5418 98.6842 80.4179 98.6842C80.9821 98.6645 81.5454 98.7429 82.0827 98.916C82.4598 99.0823 82.7746 99.3636 82.9821 99.7197C83.1896 100.076 83.2791 100.488 83.2377 100.899C83.1964 101.309 83.0264 101.695 82.7521 102.003C82.4777 102.31 82.1131 102.523 81.7104 102.611C81.2458 102.684 80.7758 102.717 80.3056 102.709H21.0206C20.5837 102.719 20.1468 102.693 19.7141 102.632C19.2722 102.599 18.8587 102.402 18.5547 102.079C18.2506 101.757 18.0779 101.333 18.0704 100.89C17.9885 100.425 18.0888 99.9471 18.3504 99.5546C18.6121 99.1621 19.0149 98.8856 19.4752 98.7825C19.9839 98.6659 20.5068 98.6233 21.0276 98.6561L50.7895 98.6842Z" fill="#F9FDFC"/>
<path d="M50.5999 113.337H20.5851C18.9835 113.337 18.1406 112.698 18.0634 111.475C18.0259 111.223 18.0413 110.966 18.1085 110.72C18.1756 110.474 18.2932 110.245 18.4537 110.047C18.6142 109.849 18.8141 109.686 19.0407 109.569C19.2673 109.452 19.5158 109.384 19.7703 109.368C20.2068 109.326 20.6455 109.312 21.0838 109.326H80.2072C82.3777 109.326 83.2628 109.895 83.2698 111.286C83.2769 112.677 82.3075 113.309 80.2283 113.309L50.5999 113.337Z" fill="#F9FDFC"/>
<path d="M50.6279 123.908H20.6132C18.9765 123.908 18.2319 123.403 18.0844 122.237C18.0395 121.978 18.0474 121.713 18.1075 121.457C18.1676 121.201 18.2787 120.96 18.4341 120.748C18.5895 120.536 18.7861 120.358 19.0121 120.224C19.2381 120.09 19.4887 120.003 19.7492 119.968C20.1839 119.933 20.6209 119.933 21.0557 119.968H80.3055C80.7415 119.935 81.1798 119.951 81.6121 120.017C82.0976 120.077 82.5404 120.324 82.8462 120.706C83.1519 121.088 83.2964 121.574 83.2487 122.061C83.2572 122.304 83.2166 122.546 83.1292 122.772C83.0418 122.998 82.9094 123.205 82.74 123.379C82.5707 123.553 82.3679 123.691 82.1439 123.784C81.9198 123.877 81.6792 123.925 81.4364 123.923C81.0009 123.958 80.5654 123.923 80.1229 123.923L50.6279 123.908Z" fill="#F9FDFC"/>
<path d="M10.7652 79.3745C10.7907 78.8478 11.0208 78.3519 11.4065 77.9924C11.7923 77.6329 12.3031 77.4382 12.8303 77.4498C13.365 77.474 13.8681 77.7097 14.2291 78.1049C14.59 78.5001 14.7792 79.0224 14.755 79.5571C14.7307 80.0918 14.4951 80.5949 14.0999 80.9559C13.7047 81.3168 13.1823 81.506 12.6477 81.4818C12.1203 81.4474 11.6275 81.2073 11.2754 80.8131C10.9233 80.419 10.7401 79.9024 10.7652 79.3745Z" fill="#F9FDFC"/>
<path d="M12.7389 98.6912C13 98.6948 13.2577 98.7499 13.4975 98.8532C13.7373 98.9565 13.9544 99.106 14.1364 99.2932C14.3183 99.4804 14.4617 99.7016 14.5582 99.9442C14.6546 100.187 14.7024 100.446 14.6987 100.707C14.7072 100.968 14.6627 101.229 14.5677 101.472C14.4727 101.716 14.3292 101.938 14.146 102.124C13.9628 102.311 13.7436 102.458 13.5017 102.557C13.2598 102.657 13.0003 102.706 12.7389 102.702C12.4779 102.702 12.2195 102.65 11.9786 102.55C11.7378 102.449 11.5193 102.302 11.3357 102.116C11.1521 101.931 11.0072 101.711 10.9092 101.469C10.8113 101.227 10.7623 100.968 10.7651 100.707C10.7667 100.18 10.9739 99.6748 11.3425 99.2983C11.7112 98.9218 12.2121 98.704 12.7389 98.6912Z" fill="#F9FDFC"/>
<path d="M12.7108 109.361C12.9711 109.35 13.231 109.391 13.4746 109.484C13.7181 109.577 13.9401 109.718 14.1269 109.9C14.3138 110.081 14.4615 110.299 14.561 110.54C14.6606 110.781 14.7098 111.039 14.7057 111.3C14.7251 111.568 14.6896 111.837 14.6012 112.091C14.5128 112.345 14.3735 112.578 14.1918 112.776C14.0101 112.974 13.7898 113.133 13.5445 113.243C13.2992 113.353 13.034 113.412 12.7652 113.416C12.4964 113.42 12.2296 113.369 11.9813 113.266C11.733 113.163 11.5083 113.01 11.321 112.817C11.1337 112.624 10.9878 112.395 10.8922 112.144C10.7966 111.893 10.7534 111.625 10.7651 111.356C10.7566 111.096 10.8007 110.837 10.8949 110.594C10.989 110.351 11.1312 110.13 11.3129 109.944C11.4946 109.758 11.7122 109.61 11.9524 109.51C12.1926 109.41 12.4506 109.359 12.7108 109.361Z" fill="#F9FDFC"/>
<path d="M14.7057 121.963C14.7098 122.224 14.6604 122.483 14.5604 122.724C14.4605 122.966 14.3121 123.184 14.1245 123.365C13.9369 123.547 13.714 123.688 13.4697 123.781C13.2253 123.873 12.9646 123.914 12.7038 123.901C12.4437 123.9 12.1866 123.846 11.9476 123.743C11.7086 123.641 11.4925 123.492 11.3119 123.305C11.1313 123.118 10.9899 122.896 10.896 122.654C10.8021 122.411 10.7576 122.152 10.7651 121.892C10.7743 121.367 10.9905 120.867 11.3666 120.5C11.7428 120.133 12.2485 119.929 12.774 119.933C13.0345 119.938 13.2912 119.995 13.5296 120.1C13.7679 120.205 13.983 120.357 14.1626 120.545C14.3422 120.734 14.4826 120.957 14.5758 121.2C14.669 121.443 14.7132 121.702 14.7057 121.963Z" fill="#F9FDFC"/>
<path d="M12.7882 70.84C12.399 70.8496 12.0158 70.7436 11.687 70.5353C11.3582 70.327 11.0985 70.0258 10.941 69.6699C10.7834 69.3139 10.735 68.9192 10.8019 68.5358C10.8688 68.1523 11.048 67.7973 11.3168 67.5158C11.5855 67.2342 11.9318 67.0387 12.3118 66.9541C12.6917 66.8694 13.0882 66.8994 13.4511 67.0402C13.814 67.1811 14.1269 67.4264 14.3502 67.7452C14.5736 68.064 14.6974 68.4419 14.7058 68.831C14.7202 69.0909 14.6812 69.351 14.5911 69.5952C14.5011 69.8394 14.3618 70.0626 14.1821 70.2508C14.0024 70.4391 13.786 70.5886 13.5462 70.6899C13.3065 70.7912 13.0485 70.8423 12.7882 70.84Z" fill="#F9FDFC"/>
<path d="M12.7319 88.1407C12.9919 88.131 13.2512 88.1747 13.4936 88.2692C13.7361 88.3636 13.9566 88.5067 14.1416 88.6897C14.3266 88.8727 14.4721 89.0917 14.5691 89.3331C14.6661 89.5746 14.7126 89.8334 14.7057 90.0935C14.7123 90.3537 14.6666 90.6126 14.5713 90.8548C14.476 91.097 14.3331 91.3177 14.151 91.5037C13.9689 91.6898 13.7514 91.8373 13.5113 91.9378C13.2711 92.0382 13.0132 92.0894 12.7529 92.0884C12.4923 92.0912 12.2337 92.0421 11.9922 91.9441C11.7507 91.8461 11.531 91.701 11.3461 91.5173C11.1611 91.3337 11.0145 91.1151 10.9148 90.8743C10.815 90.6335 10.7641 90.3752 10.7651 90.1145C10.7594 89.8544 10.8063 89.5957 10.903 89.3541C10.9997 89.1125 11.1443 88.8929 11.3279 88.7086C11.5116 88.5243 11.7307 88.3789 11.9719 88.2813C12.2132 88.1838 12.4717 88.1359 12.7319 88.1407Z" fill="#F9FDFC"/>
<path d="M89.6689 44.1617C90.2098 42.0544 89.5846 39.9471 87.7161 38.1349C86.9378 37.3078 86.2327 36.4147 85.6089 35.4656C84.4007 33.7798 84.9977 31.9535 87.0137 31.3213C88.7979 30.7664 90.6382 30.366 92.4084 29.776C93.0814 29.5346 93.6713 29.1056 94.1083 28.5397C95.183 27.1348 96.1102 25.5754 97.1217 24.1003C98.5265 22.0492 100.43 22.0703 101.849 24.1354C102.917 25.6808 103.914 27.2683 105.01 28.7996C105.316 29.1973 105.734 29.4935 106.211 29.6495C107.995 30.2255 109.808 30.6961 111.606 31.23C114.05 31.9324 114.626 33.7728 113.053 35.8098C111.978 37.2147 110.84 38.5212 109.829 39.9471C109.444 40.5015 109.227 41.1551 109.203 41.8296C109.203 43.6138 109.337 45.405 109.393 47.1962C109.47 49.7038 107.834 50.891 105.474 50.0059C103.998 49.472 102.495 48.9874 101.069 48.3482C100.564 48.1072 100.01 47.9823 99.4502 47.9823C98.89 47.9823 98.3369 48.1072 97.8311 48.3482C96.2647 49.0084 94.6561 49.5563 93.0476 50.0972C92.6522 50.2736 92.2178 50.3442 91.7869 50.3023C91.3561 50.2604 90.9434 50.1074 90.5894 49.8582C90.2354 49.609 89.9522 49.2721 89.7675 48.8806C89.5827 48.4891 89.5028 48.0563 89.5354 47.6246C89.5073 46.6272 89.6057 45.5806 89.6689 44.1617ZM99.2851 27.5703C97.6415 32.0307 94.4946 34.1521 89.8866 34.4471C91.0386 35.9082 91.8956 37.0601 92.8158 38.1559C93.1877 38.5815 93.4672 39.0798 93.6365 39.6191C93.8057 40.1584 93.8611 40.7269 93.7992 41.2888C93.6938 42.6936 93.7992 44.0985 93.7992 45.8967C97.6063 43.2626 101.399 43.4663 105.115 45.7913C105.115 44.1828 105.221 42.8692 105.115 41.5767C105.027 40.9283 105.083 40.2683 105.28 39.6441C105.477 39.0199 105.809 38.447 106.253 37.9663C107.138 36.9618 107.918 35.859 108.873 34.6438C107.363 34.1942 106.014 33.7166 104.659 33.4145C104.083 33.2958 103.539 33.0542 103.065 32.7063C102.591 32.3584 102.198 31.9123 101.912 31.3986C101.126 30.2044 100.318 29.1086 99.2851 27.5703Z" fill="#F9FDFC"/>
</svg>
