<svg width="120" height="121" viewBox="0 0 120 121" fill="none" xmlns="http://www.w3.org/2000/svg">
<path d="M5.16376 120.911C4.82252 120.754 4.48442 120.598 4.13692 120.444C2.93128 119.968 1.89496 119.144 1.1605 118.076C0.426039 117.008 0.0268207 115.745 0.0139138 114.449C0.0139138 108.708 -0.0173922 102.966 0.0139138 97.2308C0.0483504 91.9088 4.3185 86.9468 9.54974 85.9982C13.5663 85.2688 17.5672 84.4517 21.828 83.6252C19.7461 83.0367 17.9053 82.5608 16.0927 81.9973C11.7443 80.6511 9.17406 77.3484 9.17719 72.8058C9.17719 70.843 9.61861 68.8769 9.90036 66.9203C10.323 63.9588 11.1088 61.0097 11.1526 58.0451C11.3091 49.198 17.7269 41.2337 26.5739 39.2614C37.29 36.8697 48.4349 44.4301 49.9032 55.2933C50.2507 57.876 50.2444 60.512 50.6264 63.0885C50.9707 65.4301 51.697 67.7124 52.1228 70.0447C52.9587 74.631 51.2932 79.0451 47.6711 80.8859C45.2042 82.1382 42.4398 82.8019 39.9353 83.6816C40.43 83.7943 41.1876 83.9727 41.9202 84.1261C42.7185 84.292 43.523 84.4392 44.3276 84.5894C46.9291 85.0747 49.562 85.4378 52.1228 86.0859C53.7507 86.4991 55.2722 87.3381 56.9502 88.0174C56.9502 87.6793 56.9502 87.1972 56.9502 86.7182C57.0034 83.4812 56.7561 80.2035 57.185 77.0134C57.8768 71.9011 61.0481 68.6296 65.9319 67.0643C68.5992 66.2128 71.329 65.5429 73.9869 64.6663C75.4176 64.1936 76.7074 63.2481 78.1569 62.9038C79.7222 62.5281 79.9538 61.7266 79.9225 60.3085C79.8912 58.9655 79.5657 58.0419 78.5075 57.1215C76.2867 55.1685 74.7944 52.5195 74.2749 49.6081C74.1372 48.9006 73.9212 48.3558 73.1698 47.999C72.6142 47.737 72.1458 47.3204 71.821 46.799C71.4961 46.2776 71.3286 45.6736 71.3384 45.0593C71.3165 40.2977 71.1349 35.5172 71.5044 30.7806C71.9113 25.5682 76.3192 21.7019 81.5223 21.5986C86.0116 21.5015 90.504 21.5391 94.9839 21.5986C97.576 21.6299 99.6109 23.3862 100.306 25.9188C100.379 26.1081 100.492 26.2794 100.637 26.421C100.783 26.5625 100.957 26.671 101.148 26.739C103.966 27.5217 105.634 29.6004 105.647 32.5432C105.662 36.4502 105.647 40.3697 105.647 44.261C105.647 46.0548 105.021 47.4323 103.361 48.2838C103.09 48.4628 102.9 48.7401 102.829 49.0571C102.172 52.5421 100.32 55.6886 97.5917 57.9543C97.2379 58.2517 97.1815 58.9655 97.0876 59.5039C96.7558 61.3823 97.3256 62.3215 99.3072 63.1949C102.973 64.7946 106.796 65.7714 110.577 66.9234C115.539 68.4355 118.645 71.5912 119.769 76.6721C119.818 76.8197 119.883 76.9614 119.963 77.0948V80.8515C119.409 81.6968 118.711 82.301 117.631 81.9222C116.551 81.5434 116.378 80.6511 116.444 79.6368C116.465 79.3241 116.465 79.0104 116.444 78.6976C116.272 74.9628 114.002 71.8416 110.496 70.6739C108.098 69.8787 105.659 69.2025 103.23 68.5138C103.075 68.4828 102.916 68.4861 102.763 68.5234C102.61 68.5607 102.467 68.6312 102.344 68.7298C100.394 70.6395 98.4933 72.5961 96.5429 74.5058C96.115 74.9013 95.6281 75.2277 95.0997 75.4731C94.0447 75.9991 92.7768 78.4065 93.0335 79.5617C93.9226 83.5501 94.8555 87.5259 95.707 91.5206C95.8792 92.3377 96.2017 92.56 97.0125 92.5537C103.139 92.5193 109.269 92.5349 115.395 92.5318C115.733 92.5318 116.068 92.4879 116.466 92.4598C116.466 91.0353 116.425 89.7111 116.466 88.39C116.469 88.097 116.547 87.8096 116.693 87.5553C116.838 87.301 117.046 87.0882 117.298 86.9373C117.549 86.7863 117.834 86.7021 118.127 86.6928C118.42 86.6835 118.71 86.7494 118.971 86.8842C119.321 87.1093 119.652 87.3638 119.96 87.6449V115.532C119.334 117.251 118.532 118.882 116.829 119.799C115.938 120.224 115.023 120.598 114.09 120.92L5.16376 120.911ZM31.8834 117.398V117.226C40.1232 117.226 48.3671 117.226 56.6152 117.226C57.329 117.226 57.8988 117.245 57.8925 116.221C57.8581 110.013 57.9457 103.802 57.8424 97.5971C57.7704 93.3363 54.981 90.2464 50.8392 89.4575C47.0136 88.7312 43.1912 87.9987 39.375 87.2348C39.0873 87.1409 38.7764 87.1467 38.4924 87.2512C38.2084 87.3557 37.9679 87.5528 37.8097 87.8108C36.9793 88.9134 35.9035 89.8073 34.6675 90.4218C33.4315 91.0362 32.0694 91.3542 30.6891 91.3505C29.3088 91.3469 27.9484 91.0217 26.7157 90.4007C25.483 89.7798 24.4119 88.8802 23.5874 87.7733C23.1146 87.1471 22.667 87.0689 22.0221 87.1972C18.2403 87.9517 14.4585 88.6843 10.6799 89.4387C6.22817 90.331 3.56089 93.5586 3.54837 98.0886C3.53584 103.283 3.53584 108.477 3.54837 113.67C3.54837 116.174 4.77556 117.386 7.30509 117.389C15.4906 117.389 23.6834 117.387 31.8834 117.382V117.398ZM61.4238 117.17C61.8464 117.195 62.1532 117.223 62.46 117.223C79.2526 117.223 96.0462 117.223 112.841 117.223C115.323 117.223 116.469 116.055 116.472 113.551C116.472 108.083 116.472 102.614 116.472 97.1463C116.472 96.8082 116.428 96.4732 116.407 96.1414H61.4238V117.17ZM30.6563 80.8014C35.3776 80.7579 40.0628 79.973 44.5405 78.4754C46.7914 77.6833 48.341 76.1775 48.5101 73.7795C48.58 71.9659 48.4541 70.1501 48.1344 68.3635C47.8026 66.1377 47.1639 63.9588 46.8509 61.7329C46.5378 59.5791 46.71 57.3501 46.2717 55.2244C44.506 46.6935 36.9581 41.4654 28.277 42.6081C21.5994 43.4878 15.8235 49.1823 14.9938 55.8474C14.6808 58.4708 14.6463 61.135 14.2613 63.749C13.9169 66.0876 13.1374 68.3635 12.7805 70.7021C12.2201 74.3618 13.4066 77.5518 17.6611 78.779C21.8864 80.0155 26.255 80.6953 30.6563 80.8014ZM81.0089 92.4566C81.9981 88.0456 82.9749 83.7598 83.8921 79.4584C83.9615 78.9432 83.8833 78.4189 83.6667 77.9463C83.1189 76.6314 82.0419 75.8425 80.9494 74.9378C78.7579 73.1283 76.9046 70.9337 74.8666 68.9427C74.7033 68.7927 74.51 68.6792 74.2995 68.6096C74.0891 68.54 73.8662 68.5159 73.6457 68.5388C71.5012 69.0961 69.3755 69.741 67.253 70.3796C62.8451 71.7101 60.5128 74.8533 60.5003 79.4803C60.5003 83.4249 60.5003 87.3694 60.5003 91.314C60.5003 91.6865 60.5347 92.0622 60.5535 92.4566H81.0089ZM74.9793 44.909C76.4977 45.1814 77.4212 45.9422 77.5715 47.52C77.8011 50.2291 79.0269 52.757 81.0119 54.6148C82.997 56.4727 85.6004 57.5287 88.3188 57.5786C93.6221 57.7383 98.4588 53.7467 99.2759 48.3026C99.5514 46.4869 100.002 45.1251 101.984 44.9059V42.4922C101.903 42.4338 101.816 42.3855 101.724 42.3482C97.8797 41.7221 96.9311 40.6546 96.7965 36.7538C96.7558 35.5861 96.305 35.2449 95.1467 35.5892C90.7919 36.9104 86.1431 36.9104 81.7884 35.5892C80.6144 35.2386 80.1636 35.6237 80.1386 36.8916C80.0603 40.6013 78.9145 41.8724 75.2079 42.3576C75.1421 42.3576 75.0826 42.4327 74.9731 42.5016L74.9793 44.909ZM74.9793 38.5915C76.1282 38.8451 76.6354 38.4287 76.601 37.3393C76.601 36.9886 76.601 36.638 76.601 36.2874C76.7137 33.2444 79.4185 31.1876 82.3519 32.0548C86.3589 33.2898 90.645 33.2898 94.652 32.0548C95.401 31.8575 96.1884 31.8575 96.9374 32.0548C99.2352 32.6183 100.315 34.2869 100.359 37.0919C100.381 38.6103 100.572 38.7856 101.996 38.5351C101.996 36.375 102.04 34.1993 101.996 32.0235C101.965 30.9246 101.195 30.3831 100.162 30.2359C97.8828 29.9229 97.1596 29.2529 96.8403 27.049C96.6744 25.9063 96.0545 25.227 94.9338 25.2238C90.216 25.2082 85.4919 25.1456 80.7803 25.324C77.897 25.4304 75.2047 28.1885 75.02 31.053C74.8604 33.5168 74.9856 36.015 74.9856 38.5915H74.9793ZM92.2728 92.4629L89.521 80.1722H87.4141C86.5093 84.2826 85.6046 88.3524 84.6873 92.4629H92.2728ZM83.4163 60.2177C83.4163 61.3729 83.3787 62.3496 83.4382 63.3201C83.4673 63.6886 83.6338 64.0328 83.9047 64.2843C85.2508 65.3519 86.6189 66.3912 88.0339 67.3617C88.2178 67.4496 88.4199 67.4922 88.6235 67.4862C88.8271 67.4803 89.0264 67.4258 89.2048 67.3273C90.5134 66.4069 91.7656 65.4082 93.0085 64.4002C93.2688 64.1918 93.4419 63.8937 93.4937 63.5643C93.5532 62.5187 93.5156 61.4668 93.5156 60.2678C90.1408 61.376 86.8506 61.4449 83.4226 60.2271L83.4163 60.2177ZM35.5181 84.2106H25.8633C26.1169 86.1297 28.2645 87.6981 30.6844 87.7044C33.1044 87.7106 35.2676 86.161 35.5087 84.22L35.5181 84.2106ZM78.1318 66.8076L83.4351 72.0889L85.7423 70.1386C84.3335 69.0867 82.9248 68.2039 81.7383 67.1019C80.4829 65.9686 79.334 65.8497 78.1225 66.817L78.1318 66.8076ZM99.1319 66.6511C98.2553 66.4914 97.1659 65.9279 96.6274 66.2566C94.8305 67.3617 93.2339 68.7862 91.4776 70.148L93.9351 72.2298L99.1319 66.6511ZM86.0084 74.6059C86.8819 76.6377 87.5988 77.1104 89.5617 76.525C90.1314 76.3559 90.5228 75.4262 90.8702 74.775C90.9548 74.6153 90.5916 74.1332 90.3443 73.8953C89.8215 73.3881 89.2361 72.9561 88.6193 72.427L86.0084 74.6059Z" fill="#1F140F"/>
<path d="M59.0445 37.6678C59.0445 35.993 59.0445 34.6812 59.0445 33.3664C59.0602 31.8011 59.5517 31.1123 61.0199 30.5833C62.9265 29.8945 63.6966 28.8583 63.6997 26.8265C63.7164 20.6175 63.7164 14.4095 63.6997 8.20259C63.6997 5.87342 62.2972 4.44587 59.9837 4.44587C45.1091 4.42291 30.2315 4.425 15.3507 4.45213C12.9933 4.45213 11.6941 5.79203 11.6159 8.16189C11.6202 8.5906 11.5993 9.01919 11.5533 9.44544C11.4061 10.4191 10.852 10.9888 9.83144 11.0107C8.81086 11.0327 8.24422 10.4003 8.04073 9.47675C7.83203 8.43873 7.85657 7.36732 8.11256 6.33994C8.36855 5.31257 8.8496 4.35491 9.52095 3.53617C10.1923 2.71744 11.0372 2.05809 11.9945 1.60579C12.9518 1.15348 13.9976 0.919518 15.0564 0.920812C30.1292 0.920812 45.202 0.920812 60.2748 0.920812C61.1947 0.905996 62.1082 1.07631 62.961 1.42163C63.8138 1.76695 64.5884 2.28022 65.2388 2.93093C65.8892 3.58163 66.4021 4.35648 66.7471 5.2094C67.092 6.06232 67.2619 6.97589 67.2467 7.89579C67.2675 14.301 67.2675 20.7052 67.2467 27.1083C67.2467 30.026 65.9099 32.1893 63.3084 33.5104C63.0581 33.6007 62.8466 33.7746 62.7097 34.0027C62.5728 34.2309 62.5189 34.4993 62.557 34.7626C62.5977 36.3624 62.557 37.9652 62.557 39.565C62.557 40.7765 62.0875 41.6938 60.9636 42.1853C59.8397 42.6768 58.744 42.4232 57.8549 41.5592C55.6384 39.3677 53.472 37.1168 51.2023 34.9567C50.7367 34.5305 50.1362 34.2812 49.5056 34.2523C38.0632 34.2116 26.624 34.221 15.1816 34.221C11.0148 34.221 8.02195 31.2626 7.98125 27.0926C7.95933 24.0466 7.98125 21.0005 7.98125 17.9576C7.98125 16.5488 8.70755 15.7004 9.8283 15.7286C10.8927 15.7567 11.5689 16.5582 11.5783 17.92C11.6034 20.8502 11.5783 23.7773 11.5783 26.7076C11.5971 29.4406 12.8806 30.6991 15.6136 30.6991C27.1718 30.6991 38.73 30.6991 50.2913 30.6772C50.8528 30.654 51.4126 30.7541 51.9313 30.9704C52.45 31.1868 52.915 31.5141 53.2936 31.9294C55.1187 33.7608 56.9533 35.5641 59.0445 37.6678Z" fill="#1F140F"/>
</svg>
