<svg width="105" height="120" viewBox="0 0 105 120" fill="none" xmlns="http://www.w3.org/2000/svg">
<path d="M104.448 86.3704C104.315 86.9725 104.212 87.5846 104.045 88.1767C103.157 91.3105 100.472 93.3065 97.0792 93.3098C86.3784 93.3231 75.6764 93.3231 64.9734 93.3098H63.187C63.9388 95.0796 64.4544 96.6831 65.2662 98.1235C67.4751 102.046 70.6886 105.11 74.0519 108.04C74.4183 108.314 74.753 108.627 75.0499 108.975C75.2613 109.246 75.3943 109.571 75.4345 109.912C75.4747 110.254 75.4205 110.6 75.2779 110.913C75.1353 111.226 74.9097 111.494 74.6255 111.688C74.3413 111.882 74.0095 111.994 73.666 112.012C73.5012 112.026 73.3357 112.032 73.1703 112.029C60.3071 112.029 47.444 112.029 34.5808 112.029C34.1248 112.053 33.6694 111.971 33.2502 111.79C31.9561 111.124 31.9195 109.591 33.1304 108.493C35.3626 106.454 37.7678 104.564 39.7538 102.302C41.3639 100.469 42.525 98.22 43.7458 96.0776C44.1717 95.3291 44.1983 94.3544 44.4478 93.3198H7.72787C2.93413 93.3198 0.0332757 90.4755 0.0299491 85.6684C0.0133157 68.2399 0.0565536 50.8081 0 33.3763C0 28.2965 3.9521 25.4821 7.65136 25.8214C9.41451 25.9811 11.2043 25.8481 13.1603 25.8481V24.3278C13.1603 17.1887 13.1603 10.0497 13.1603 2.9106C13.1603 0.618518 13.7658 -0.000244141 16.0113 -0.000244141H88.3267C90.5755 -0.000244141 91.1843 0.618518 91.1843 2.90395C91.1843 10.0009 91.1843 17.0978 91.1843 24.1947V25.858H96.8097C101.015 25.858 103.503 27.9605 104.255 32.1355C104.298 32.3717 104.381 32.5979 104.448 32.8308V86.3704ZM87.1989 79.9199V4.00175H17.1357V79.9199H87.1989ZM4.03193 84.1448C3.48969 87.0324 4.13506 89.4675 8.33333 89.4475C37.5649 89.3511 66.7931 89.3976 96.0246 89.3976C96.5203 89.3976 97.0226 89.3976 97.515 89.381C98.8456 89.3045 99.9335 88.5527 100.243 87.2486C100.476 86.2705 100.449 85.2293 100.542 84.1448H4.03193ZM13.1171 29.687C11.2641 29.687 9.53094 29.687 7.79441 29.687C4.98004 29.7037 3.87892 30.8081 3.87892 33.6159V80.0796H13.1138L13.1171 29.687ZM91.2542 80.0663H100.466V33.8254C100.482 33.4107 100.476 32.9953 100.446 32.5813C100.283 31.1375 99.3547 29.9199 97.994 29.8401C95.7785 29.707 93.5496 29.8035 91.2542 29.8035V80.0663ZM68.4764 108.143C64.4444 103.672 60.5589 99.4043 59.4943 93.4196H48.2834C47.6181 99.6604 43.5163 103.782 39.5243 108.143H68.4764Z" fill="#1F140F"/>
<path d="M27.2821 119.99C26.2841 119.507 25.3859 118.842 25.7951 117.635C26.008 117.009 26.7499 116.527 27.3287 116.078C27.5383 115.915 27.9708 116.024 28.3034 116.024C45.2562 116.024 62.2089 116.024 79.1617 116.024C80.3227 116.024 81.3773 116.181 81.7365 117.455C82.0958 118.729 81.3207 119.451 80.3028 120L27.2821 119.99Z" fill="#1F140F"/>
<path d="M18.819 119.99C17.8908 119.451 17.1157 118.812 17.3552 117.572C17.5947 116.331 18.5562 115.938 21.0645 116.025C22.2987 116.068 23.1403 116.733 23.2534 117.778C23.3765 118.906 22.5582 119.441 21.8063 119.99H18.819Z" fill="#1F140F"/>
<path d="M85.7784 119.99C84.8503 119.448 84.0718 118.813 84.3147 117.568C84.5575 116.324 85.5223 115.938 88.0273 116.025C89.2648 116.068 90.0965 116.73 90.2129 117.778C90.3393 118.909 89.5176 119.441 88.7658 119.99H85.7784Z" fill="#1F140F"/>
<path d="M40.4623 34.2377C45.2161 29.2011 53.4763 27.5444 60.3425 34.2377C60.948 33.11 61.5767 32.0554 62.0924 30.951C62.781 29.4739 63.6992 28.955 64.8735 29.4573C65.938 29.933 66.2041 30.9709 65.6519 32.4513C63.3964 38.4593 56.8927 43.6689 48.3066 42.8106C41.7131 42.1452 35.6153 36.603 34.2381 29.74C32.139 19.2976 40.2261 9.62694 50.8715 9.97957C55.8083 10.1426 59.9001 12.1985 63.0804 16.0042C64.0784 17.1985 64.0784 18.2563 63.1136 19.0647C62.1489 19.8731 61.1176 19.6868 60.1196 18.4726C53.7291 10.7647 41.5069 13.0534 38.3931 22.5311C37.0159 26.7227 37.8043 30.585 40.4623 34.2377ZM43.1669 36.6762C47.2421 39.8166 53.789 39.7766 57.5315 36.6462C53.8422 32.1785 46.6 32.1652 43.1669 36.6728V36.6762Z" fill="#1F140F"/>
<path d="M52.3087 51.2607C60.02 51.2607 67.7301 51.2607 75.4391 51.2607C75.9215 51.2607 76.5602 51.2275 76.8563 51.5002C77.3553 51.9626 77.9807 52.6945 77.9241 53.2467C77.8609 53.8688 77.1756 54.5175 76.5935 54.9633C76.2608 55.2228 75.6387 55.1529 75.1497 55.1529C59.8137 55.1529 44.4766 55.1529 29.1384 55.1529C28.8922 55.1529 28.6394 55.1529 28.3932 55.1529C27.1357 55.0332 26.2641 54.1749 26.314 53.117C26.3639 52.0591 27.2355 51.264 28.5429 51.264C36.4626 51.2574 44.3846 51.2563 52.3087 51.2607Z" fill="#1F140F"/>
<path d="M52.1691 59.9601C55.8151 59.9601 59.4611 59.9601 63.1072 59.9601C64.5676 59.9601 65.376 60.6254 65.4093 61.7997C65.4459 63.0572 64.6574 63.7957 63.1138 63.7957C55.824 63.8157 48.533 63.8157 41.2409 63.7957C39.6973 63.7957 38.9123 63.0605 38.9389 61.7997C38.9655 60.5389 39.7805 59.9501 41.3574 59.9468L52.1691 59.9601Z" fill="#1F140F"/>
<path d="M44.8968 21.6164C44.8929 20.902 45.0298 20.1938 45.2998 19.5324C45.5697 18.8709 45.9674 18.2692 46.4701 17.7615C46.9728 17.2539 47.5706 16.8504 48.2294 16.5739C48.8881 16.2975 49.5949 16.1537 50.3093 16.1506C51.7733 16.1559 53.1761 16.7384 54.2131 17.7717C55.2502 18.805 55.8378 20.2057 55.8483 21.6696C55.8183 24.9397 53.1603 27.8739 50.2594 27.8339C47.4085 27.8007 44.8868 24.8732 44.8968 21.6164ZM48.3998 21.6463C48.3998 22.9138 49.3978 24.3276 50.3127 24.3542C51.2275 24.3808 52.3087 22.9504 52.3286 21.6929C52.3331 21.1504 52.1237 20.628 51.7457 20.2388C51.3678 19.8497 50.8517 19.6251 50.3093 19.6137C49.7881 19.6328 49.2956 19.8572 48.9391 20.238C48.5826 20.6187 48.3912 21.125 48.4065 21.6463H48.3998Z" fill="#1F140F"/>
<path d="M62.7978 22.8643C64.1285 21.2508 65.4326 19.6507 66.7566 18.0639C67.7313 16.8995 68.8291 16.6866 69.7506 17.4551C70.6721 18.2235 70.6488 19.3779 69.714 20.5323C68.1205 22.4983 66.5237 24.4544 64.9036 26.3972C63.6694 27.8742 62.8378 27.9241 61.3341 26.6866C60.5058 26.0013 59.6708 25.336 58.8391 24.634C57.7579 23.7092 57.6049 22.638 58.39 21.7199C59.1185 20.8782 60.243 20.8416 61.2709 21.6434C61.7699 22.0359 62.2489 22.4218 62.7978 22.8643Z" fill="#1F140F"/>
<path d="M52.1092 71.9361C50.9082 71.9361 49.7106 71.9561 48.513 71.9361C47.3154 71.9161 46.4871 71.1078 46.4871 70.0432C46.4884 69.7939 46.5388 69.5473 46.6355 69.3176C46.7322 69.0878 46.8733 68.8793 47.0507 68.7041C47.228 68.5289 47.4382 68.3904 47.6691 68.2966C47.9001 68.2027 48.1473 68.1552 48.3966 68.157C50.9182 68.1104 53.4387 68.1104 55.9581 68.157C56.2076 68.1552 56.4551 68.2029 56.6861 68.2973C56.9171 68.3917 57.1271 68.5309 57.304 68.7069C57.481 68.8829 57.6212 69.0922 57.7168 69.3227C57.8124 69.5532 57.8614 69.8003 57.861 70.0499C57.861 71.1144 57.0227 71.9128 55.8284 71.9361C54.6341 71.9594 53.3467 71.9361 52.1092 71.9361Z" fill="#1F140F"/>
</svg>
