<svg width="110" height="120" viewBox="0 0 110 120" fill="none" xmlns="http://www.w3.org/2000/svg">
<path d="M94.013 0.00313053C95.4406 0.763848 95.9101 1.94406 95.907 3.55941C95.8632 18.1257 95.8788 32.6921 95.8788 47.2615V48.7798C96.3422 48.6922 96.7022 48.5983 97.0653 48.5607C99.0688 48.3478 100.822 48.9332 102.074 50.5173C104.353 53.3942 106.604 56.2962 108.758 59.2608C110.611 61.8122 110.01 65.0147 107.387 67.0245C103.862 69.7387 100.337 72.4529 96.7742 75.117C96.4726 75.3129 96.2293 75.5862 96.0696 75.9084C95.9099 76.2305 95.8397 76.5897 95.8663 76.9483C95.8955 90.1487 95.9018 103.349 95.8851 116.549C95.8851 119.054 94.9616 119.977 92.4259 119.993C91.1361 119.993 89.8463 120.009 88.5597 119.993C87.3951 119.974 86.6594 119.264 86.6814 118.218C86.7033 117.172 87.4327 116.506 88.616 116.49C89.7994 116.474 91.0171 116.49 92.2881 116.49V78.6106L89.5927 80.6423C87.3482 82.3391 86.2055 82.2076 84.4806 80.0444L83.9891 79.4371L81.516 81.3154C82.2579 82.289 82.9404 83.1937 83.6166 84.0797C84.9846 85.9048 84.803 87.2665 82.9905 88.6972C82.1358 89.3702 81.2624 90.0245 80.2826 90.7758C81.3595 92.1908 82.4082 93.5745 83.4538 94.9551C85.4949 97.6442 85.1505 100.211 82.4739 102.259L78.6453 105.189C76.4226 106.886 75.496 106.82 73.5018 104.776C72.5627 105.471 71.6548 106.178 70.7219 106.867C68.8436 108.257 67.15 108.041 65.7475 106.209C59.0106 97.4063 52.28 88.5991 45.5556 79.7877C44.1062 77.8843 44.341 76.1907 46.2193 74.7194C47.1084 74.0244 48.0068 73.3451 48.9616 72.6125C48.7895 72.3496 48.6486 72.1367 48.5077 71.9176C47.6813 70.5777 47.8816 69.1627 49.1338 68.1609C50.7805 66.844 52.4501 65.5615 54.1427 64.3135C56.3779 62.6731 58.9011 63.0269 60.6761 65.1901C61.2677 65.9132 61.8218 66.6708 62.3916 67.4159L64.1885 69.7638C65.184 69.0093 66.1326 68.2861 67.0874 67.5724C68.7466 66.339 70.1428 66.5331 71.4326 68.1734C72.1526 69.0907 72.8601 70.0205 73.649 71.041L76.1002 69.1815C75.856 68.8215 75.6744 68.5303 75.4741 68.258C74.1248 66.4454 74.2813 65.1087 76.0595 63.7438C80.2335 60.536 84.418 57.3345 88.6129 54.1393C89.6366 53.3598 90.6916 52.6116 91.6651 51.7726C92.0296 51.4633 92.2625 51.0267 92.3163 50.5517C92.3476 35.0452 92.3549 19.5407 92.3382 4.03838C92.3223 3.86067 92.2961 3.68403 92.2599 3.50932H90.8199C68.6787 3.50932 46.5376 3.50932 24.3964 3.50932C23.9362 3.50932 23.3665 3.59697 23.0346 3.36845C22.5275 3.0409 22.1391 2.55914 21.9264 1.99414C21.6572 1.08316 22.3303 0.491493 23.0252 0L94.013 0.00313053ZM51.9137 70.5119L76.3318 102.443C77.6467 101.442 78.8613 100.524 80.0665 99.5977C81.4941 98.502 81.5129 98.3016 80.4297 96.8866C76.2139 91.3707 71.9992 85.8536 67.7855 80.3355C64.5642 76.1219 61.3304 71.9144 58.1247 67.6882C57.6395 67.0621 57.0822 66.6176 56.3622 67.1247C54.8658 68.186 53.4508 69.3349 51.9137 70.5119ZM100.024 68.1515L91.2394 56.6406L78.5107 66.3703L87.32 77.8812L100.024 68.1515ZM48.37 77.5869L68.5807 104.034C69.5699 103.27 70.459 102.587 71.3981 101.877L51.1687 75.43L48.37 77.5869ZM102.841 65.9445C103.189 65.7097 103.467 65.5469 103.693 65.3622C104.281 64.9114 104.888 64.4826 105.443 63.9942C106.382 63.1646 106.523 62.2254 105.756 61.1986C103.681 58.4187 101.577 55.6618 99.4445 52.9278C98.6806 51.9448 97.6758 51.8133 96.6583 52.5146C95.7974 53.1094 94.9866 53.7668 94.0819 54.4743L102.841 65.9445ZM66.3674 72.6313L78.0912 87.9709L80.5956 86.0206L68.9031 70.7248C68.0391 71.3509 67.2721 71.9363 66.3674 72.6313ZM75.8341 73.918L79.3215 78.4917L81.8259 76.5726C80.6238 75.0074 79.4968 73.5329 78.326 72.0083L75.8341 73.918Z" fill="#1F140F"/>
<path d="M16.2288 0.00317383C16.5419 0.472753 17.0021 0.901635 17.1367 1.41817C17.4278 2.50759 16.6608 3.44675 15.5338 3.50623C14.7982 3.54693 14.0594 3.50623 13.2329 3.50623V55.6483C14.8545 55.8517 16.4354 56.1147 18.0289 56.2274C19.1715 56.3057 20.3893 56.4152 21.4725 56.1116C24.556 55.2382 26.9321 56.0051 28.92 58.5283C29.6523 59.4729 30.6256 60.2029 31.7374 60.6414C34.9681 61.7747 36.4332 63.9473 36.5929 67.3126C36.6692 68.5027 37.0532 69.6526 37.7074 70.6497C39.473 73.3201 39.5857 75.8902 37.6604 78.4479C36.6524 79.7846 36.5084 81.3154 36.4082 82.8651C36.2798 84.6244 35.6976 86.1051 34.2575 87.2259C33.9726 87.4481 33.8506 88.0273 33.8506 88.4405C33.8255 95.0146 33.8506 101.561 33.8067 108.122C33.8189 108.887 33.6007 109.637 33.1806 110.276C32.4919 111.184 31.4557 111.14 30.4164 110.705C27.1857 109.349 23.9299 108.047 20.7117 106.676C20.3682 106.503 19.9902 106.411 19.6059 106.405C19.2216 106.399 18.8409 106.48 18.4922 106.641C16.9645 107.327 15.3961 107.919 13.8684 108.601C13.5773 108.729 13.1922 109.093 13.1891 109.352C13.1359 111.685 13.1578 114.017 13.1578 116.468H79.3058C79.6564 116.468 80.0102 116.446 80.3608 116.468C81.3218 116.546 82.0982 117.335 82.0231 118.24C81.9479 119.145 81.4283 119.837 80.4202 119.959C80.1075 119.978 79.7939 119.978 79.4811 119.959H12.9386C10.5094 119.959 9.5295 118.998 9.51698 116.575C9.51698 114.587 9.51698 112.599 9.51698 110.454C9.10062 110.583 8.7907 110.67 8.48391 110.767C6.69011 111.372 5.27199 110.385 5.24381 108.466C5.21251 106.36 5.24381 104.25 5.24381 102.14C5.24381 97.6098 5.24381 93.08 5.24381 88.5501C5.24381 87.852 5.1405 87.3354 4.5144 86.8596C3.13384 85.8109 2.72687 84.2393 2.67052 82.6021C2.66777 81.0365 2.19081 79.5085 1.30248 78.2194C-0.406787 75.8182 -0.447484 73.3514 1.26178 70.9409C2.17684 69.6227 2.66728 68.0564 2.66739 66.4517C2.74565 63.9692 3.87577 62.1629 6.2268 61.1611C10.3184 59.4143 9.4888 60.1593 9.4982 55.9738C9.53159 38.5932 9.53159 21.2135 9.4982 3.83494C9.4888 2.22272 9.84568 0.889112 11.3076 0.00317383H16.2288ZM24.1177 89.8837C24.4778 89.652 25.1853 89.411 25.5609 88.9164C26.9954 86.9492 29.0163 85.4871 31.3336 84.7402C32.3917 84.4021 32.8676 83.6039 32.8738 82.5113C32.8261 80.2711 33.517 78.0776 34.8398 76.269C35.6631 75.1671 35.7289 74.0526 34.8805 72.935C33.4561 71.0567 32.8957 68.9092 32.8676 66.5894C32.8676 65.5532 32.4262 64.78 31.3993 64.4419C29.0393 63.6924 26.9848 62.2001 25.5421 60.1875C24.916 59.3423 24.1084 59.12 23.0628 59.4487C20.8714 60.1374 18.6205 60.3034 16.4041 59.5113C15.0048 59.0136 13.9874 59.4519 13.1734 60.6039C11.9884 62.3202 10.2536 63.5813 8.25538 64.1789C6.81534 64.6172 6.13914 65.5689 6.17671 67.0246C6.23619 69.216 5.50051 71.16 4.23578 72.91C3.41559 74.0401 3.42185 75.1013 4.23578 76.2283C5.52674 77.9159 6.21158 79.9892 6.17984 82.1137C6.15166 83.4943 6.72768 84.471 8.15833 84.9062C10.2333 85.5336 12.0322 86.8499 13.258 88.6377C14.0406 89.7428 15.0517 90.0559 16.3196 89.6395C18.4038 88.9399 20.6584 88.9333 22.7466 89.6207C23.1989 89.7313 23.6566 89.8191 24.1177 89.8837ZM8.88148 106.685C9.29158 106.551 9.58272 106.475 9.86134 106.372C12.5598 105.267 15.2709 104.181 17.9475 103.032C18.434 102.795 18.9668 102.668 19.5079 102.661C20.0489 102.653 20.585 102.765 21.078 102.988C23.7202 104.121 26.3999 105.195 29.0515 106.285C29.4177 106.435 29.8028 106.551 30.2191 106.695V89.0729C29.5116 89.8712 28.9669 90.4472 28.4598 91.0639C26.7599 93.1645 24.6343 93.9189 22.0234 93.1175C20.4609 92.6008 18.7753 92.5887 17.2055 93.0831C14.5008 93.9534 12.3219 93.177 10.5688 90.995C10.0961 90.4034 9.5702 89.8555 8.87522 89.0698L8.88148 106.685Z" fill="#1F140F"/>
<path d="M34.7428 28.4501C34.8167 23.7202 36.7507 19.2098 40.1262 15.8956C43.5016 12.5814 48.0467 10.7302 52.7772 10.743C57.5076 10.7557 62.0427 12.6314 65.4002 15.9638C68.7577 19.2961 70.6674 23.8169 70.7157 28.5472C70.7 38.4459 62.5168 46.6009 52.662 46.5414C47.8878 46.5149 43.3193 44.5949 39.9596 41.2029C36.5999 37.8109 34.7237 33.2243 34.7428 28.4501ZM52.7026 42.9194C56.4439 42.8058 59.9945 41.2421 62.6041 38.5588C65.2137 35.8755 66.6779 32.2827 66.6872 28.5397C66.6966 24.7967 65.2504 21.1967 62.6542 18.5004C60.0581 15.8041 56.5153 14.2227 52.7746 14.0904C44.9045 14.0434 38.296 20.6081 38.2678 28.4908C38.2396 36.3735 44.7574 42.9163 52.7026 42.9194Z" fill="#1F140F"/>
<path d="M81.6256 44.1061C81.6256 42.5909 81.6099 41.2667 81.6256 39.9456C81.6475 38.6934 82.3456 37.8888 83.3693 37.8544C84.3929 37.82 85.185 38.5775 85.2163 39.8298C85.2601 41.6611 85.2726 43.4987 85.2163 45.3301C85.1631 46.8578 84.3022 47.6842 82.7557 47.7281C80.965 47.7782 79.1681 47.7688 77.3743 47.7281C76.1565 47.703 75.3332 46.9141 75.3489 45.903C75.3645 44.8918 76.1878 44.1468 77.415 44.1154C78.7705 44.081 80.126 44.1061 81.6256 44.1061Z" fill="#1F140F"/>
<path d="M81.6255 12.8884C80.0884 12.8884 78.7298 12.8884 77.368 12.8884C76.1346 12.8884 75.33 12.1559 75.3457 11.1134C75.3613 10.071 76.1628 9.39164 77.415 9.38537C79.2056 9.38537 80.9994 9.36972 82.7901 9.38537C84.2207 9.38537 85.1254 10.1304 85.1912 11.536C85.2788 13.4801 85.2632 15.4304 85.2068 17.3776C85.1724 18.5484 84.3679 19.2559 83.3536 19.209C82.3393 19.162 81.6631 18.4044 81.6349 17.2211C81.6005 15.8249 81.6255 14.4287 81.6255 12.8884Z" fill="#1F140F"/>
<path d="M23.742 44.106H27.0885C27.5155 44.0819 27.9437 44.0924 28.3689 44.1373C29.355 44.3032 30.0281 44.8323 30.0375 45.9092C30.0469 46.9861 29.3895 47.6435 28.3971 47.6842C26.3404 47.7687 24.2711 47.7781 22.2143 47.6623C20.9621 47.5903 20.239 46.6449 20.2233 45.3488C20.1983 43.5175 20.2045 41.6892 20.2233 39.8579C20.2233 38.6276 20.9558 37.8387 22.0108 37.8512C23.0658 37.8637 23.7264 38.6276 23.742 39.9048C23.7545 41.2572 23.742 42.6096 23.742 44.106Z" fill="#1F140F"/>
<path d="M23.742 12.8883C23.742 14.4535 23.742 15.8435 23.742 17.2397C23.7233 18.4262 23.0502 19.1775 22.039 19.2057C20.9778 19.2338 20.239 18.4512 20.2265 17.224C20.2077 15.3896 20.2046 13.5551 20.2265 11.7237C20.2452 10.2524 21.0936 9.40086 22.5556 9.38208C24.3901 9.3633 26.2214 9.36643 28.0559 9.38208C29.3081 9.38208 30.0657 10.0927 30.0469 11.1634C30.0281 12.234 29.2706 12.8757 28.0027 12.8883C26.6315 12.8977 25.2697 12.8883 23.742 12.8883Z" fill="#1F140F"/>
<path d="M28.8886 74.5784C28.8957 75.806 28.6589 77.0227 28.1919 78.158C27.7249 79.2933 27.0371 80.3246 26.1683 81.1919C25.2995 82.0592 24.2671 82.7453 23.1311 83.2104C21.995 83.6755 20.7778 83.9102 19.5503 83.9011C17.066 83.9011 14.6829 82.9168 12.9227 81.1637C11.1625 79.4105 10.1686 77.0314 10.1587 74.5471C10.184 72.0641 11.1815 69.69 12.9374 67.9342C14.6932 66.1784 17.0673 65.1808 19.5503 65.1555C20.7826 65.1596 22.0019 65.4068 23.1386 65.8828C24.2752 66.3588 25.3068 67.0544 26.1742 67.9297C27.0417 68.805 27.7279 69.8428 28.1937 70.9837C28.6595 72.1246 28.8956 73.3461 28.8886 74.5784ZM19.5252 80.3824C20.3014 80.4118 21.0756 80.2848 21.8018 80.009C22.528 79.7332 23.1913 79.3142 23.7523 78.777C24.3133 78.2397 24.7605 77.5951 25.0674 76.8816C25.3744 76.168 25.5347 75.4 25.5389 74.6233C25.5431 73.8465 25.3911 73.0768 25.0919 72.36C24.7927 71.6431 24.3524 70.9938 23.7973 70.4505C23.2421 69.9072 22.5834 69.4811 21.8602 69.1974C21.1371 68.9138 20.3643 68.7785 19.5878 68.7994C18.8263 68.7899 18.0705 68.9317 17.3643 69.2167C16.658 69.5016 16.0154 69.924 15.4737 70.4592C14.932 70.9945 14.502 71.6321 14.2087 72.3349C13.9154 73.0377 13.7646 73.7918 13.7651 74.5534C13.7617 76.0884 14.3653 77.5626 15.4443 78.6545C16.5233 79.7464 17.9902 80.3675 19.5252 80.3824Z" fill="#1F140F"/>
<path d="M50.6364 31.1864L58.8853 22.9406C59.1736 22.6219 59.4877 22.3277 59.8245 22.0609C60.629 21.4912 61.4649 21.5225 62.1505 22.2331C62.8361 22.9437 62.811 23.7733 62.2632 24.5779C62.1213 24.7637 61.9619 24.9357 61.7873 25.0913C58.6986 28.1926 55.6077 31.2834 52.5147 34.3639C51.1029 35.7695 50.0103 35.7601 48.5984 34.3639C46.908 32.6943 45.2248 31.01 43.5489 29.3112C42.5597 28.3126 42.4751 27.3609 43.2609 26.547C44.0467 25.733 45.0829 25.8332 46.0377 26.7598C47.5184 28.1999 48.9804 29.6618 50.4548 31.1113C50.5124 31.1428 50.5733 31.168 50.6364 31.1864Z" fill="#1F140F"/>
</svg>
