<svg width="121" height="120" viewBox="0 0 121 120" fill="none" xmlns="http://www.w3.org/2000/svg">
<path d="M29.5554 0C29.1027 3.35004 28.6521 6.699 28.2037 10.0469C28.139 10.5222 28.1035 11.0008 28.0388 11.6217H29.5392C44.8278 11.6217 60.1164 11.6152 75.405 11.6023C75.7977 11.582 76.1899 11.6493 76.5534 11.7992C76.9169 11.9491 77.2426 12.1778 77.5069 12.4689C82.4737 17.4875 87.4859 22.4543 92.443 27.4826C92.8861 27.9611 93.1461 28.5806 93.177 29.232C93.2288 36.0905 93.2094 42.9491 93.2094 49.8044V51.3274C93.6136 50.9749 93.882 50.7647 94.118 50.5287C97.0283 47.6184 99.9192 44.7082 102.849 41.7979C105.778 38.8876 109.342 37.9434 113.293 39.211C117.148 40.4559 119.483 43.2239 120.178 47.1981C120.783 50.6386 119.732 53.6653 117.268 56.1423C113.719 59.7316 110.149 63.3026 106.558 66.8553C106.211 67.1461 105.84 67.4069 105.449 67.6346C107.884 70.8682 109.006 74.215 108.637 77.9305C108.343 80.8084 107.787 83.6605 107.344 86.5222C106.555 91.696 105.698 96.8698 105.032 102.044C104.886 103.172 105.355 104.401 105.636 105.559C106.758 110.128 107.922 114.684 109.061 119.247C109.108 119.495 109.14 119.747 109.154 120H81.0542C81.342 118.745 81.6136 117.552 81.9272 116.178H24.0453C21.0639 116.178 19.6249 114.729 19.6249 111.722C19.6249 100.988 19.6249 90.2581 19.6249 79.5311C19.6491 79.1587 19.5833 78.7859 19.433 78.4442C19.2827 78.1026 19.0524 77.8021 18.7615 77.5683C14.7745 74.0404 10.7842 70.5158 6.89086 66.8973C1.32579 61.7235 -0.711399 55.3112 0.649959 47.8189C1.75263 41.7656 2.962 35.7251 3.84479 29.6395C4.12611 27.7187 3.57316 25.6621 3.2983 23.6831C2.38642 17.1059 1.42603 10.5352 0.494745 3.95796C0.307194 2.64511 0.171382 1.32578 0 0.00646371L29.5554 0ZM23.5893 61.7623V112.249H82.9685C83.6508 109.517 84.346 106.839 84.9636 104.139C84.9893 103.927 84.9652 103.711 84.8934 103.51C84.8215 103.308 84.7039 103.126 84.5497 102.978C81.6395 100.931 79.0525 98.658 78.0986 94.9685C77.5845 95.1689 77.2094 95.2918 76.844 95.4567C73.1835 97.0251 69.5295 98.6095 65.8496 100.165C63.5538 101.135 61.4196 100.77 59.8286 99.1689C58.2377 97.5683 57.8884 95.4406 58.8779 93.1382C59.7672 91.0267 60.8181 88.9733 61.5554 86.8068C63.0877 82.2105 65.8649 78.1293 69.578 75.017C71.2821 73.5651 72.7825 71.8771 74.4285 70.2344C73.5392 69.5424 72.7599 68.9798 72.0291 68.3622C71.1039 67.6013 70.4373 66.5724 70.1209 65.4171C69.8046 64.2618 69.854 63.0368 70.2625 61.9108C70.6709 60.7847 71.4183 59.8129 72.4017 59.1291C73.3852 58.4452 74.5564 58.083 75.7542 58.0922C78.4155 58.0922 81.0865 57.9596 83.7381 58.1342C85.7591 58.2668 87.2951 57.7365 88.5368 56.1326C89.0057 55.5376 89.3323 55.0364 89.329 54.2409C89.2967 46.9006 89.3129 39.557 89.3096 32.2166C89.3096 31.8286 89.2741 31.4406 89.2514 30.9814C85.3711 30.9814 81.5845 30.9814 77.7979 30.9814C75.4503 30.9814 73.8399 29.3646 73.8238 27.0493C73.8076 24.734 73.8238 22.4511 73.8238 20.152V15.5602H27.4341C26.9329 18.9717 26.5222 22.3314 25.9175 25.6524C25.5942 27.4988 25.882 28.8084 27.3371 30.1989C30.6354 33.3581 31.8642 37.3743 31.0202 41.8981C30.1762 46.422 29.1544 50.8747 28.388 55.3921C27.8707 58.4479 26.6677 60.8181 23.5893 61.7623ZM19.6346 73.0445C19.6346 69.2126 19.654 65.7106 19.599 62.2053C19.599 61.8561 19.2045 61.4002 18.8682 61.1803C16.8698 59.8674 15.751 58.0954 15.7575 55.6605C15.7575 51.709 15.7575 47.7575 15.7575 43.806V42.6645H19.6378V44.0259C19.6378 47.8157 19.6378 51.6055 19.6378 55.3953C19.6378 56.9054 20.4689 57.9111 21.7429 58.063C22.9394 58.2086 23.9547 57.3128 24.2587 55.8221C25.0542 51.9224 25.8755 48.0323 26.616 44.1196C26.9555 42.2732 27.3048 40.3783 27.2401 38.519C27.1399 35.6087 25.3711 33.4454 23.2563 31.6023C22.8497 31.2495 22.3383 31.0405 21.8011 31.0073C17.4454 30.962 13.093 31.0073 8.73727 30.962C7.90946 30.962 7.64753 31.2466 7.51172 32.0162C6.5966 37.19 5.72676 42.3993 4.67259 47.5602C3.27567 54.4026 4.99596 60.1196 10.3411 64.6985C12.388 66.4608 14.3573 68.3137 16.3654 70.1213C17.3743 71.0428 18.3929 71.9547 19.6346 73.0445ZM101.141 100.689C101.255 100.175 101.361 99.7833 101.423 99.3953C102.464 92.6403 103.457 85.8755 104.563 79.1301C105.064 76.0744 104.621 73.3096 102.742 70.6548C99.8319 73.5651 96.9895 76.4753 94.0857 79.3306C93.7788 79.6081 93.5389 79.9516 93.3843 80.3354C93.2297 80.7191 93.1644 81.133 93.1932 81.5457C93.2417 84.0291 93.2094 86.5125 93.2094 88.983H89.329C89.329 84.7437 89.329 80.5918 89.329 76.443C89.329 74.7777 88.4883 73.7106 87.1431 73.6039C85.9337 73.5069 85.0154 74.3703 84.6952 75.9256C83.8998 79.806 83.0784 83.7154 82.3379 87.6249C82.0146 89.3517 81.6136 91.1334 81.7203 92.8602C81.9693 96.8408 85.2773 98.5513 88.0129 100.621C88.1987 100.703 88.4041 100.73 88.6047 100.698L101.141 100.689ZM4.47534 3.91592C5.59094 11.7154 6.68715 19.3856 7.78335 27.0428H21.8044C22.907 19.3145 24 11.6475 25.1027 3.91592H4.47534ZM93.2999 57.3096L69.3711 81.2579L77.9046 89.8044C77.8399 89.8884 77.9046 89.8335 77.9272 89.7688C78.9189 84.8106 79.9084 79.8448 80.8957 74.8715C81.3775 72.4624 82.7615 70.768 85.0994 70.021C87.3824 69.2741 89.5392 69.6977 91.2433 71.4147C92.0905 72.2619 92.6338 73.4163 93.1835 74.2538L101.707 65.7074L93.2999 57.3096ZM88.9281 104.595C87.958 108.475 87.0267 112.268 86.076 116.097H104.226C103.256 112.191 102.286 108.395 101.355 104.595H88.9281ZM110.742 57.1318C112.11 55.7607 113.523 54.4382 114.826 53.0154C115.702 52.0346 116.245 50.8014 116.376 49.4929C116.507 48.1844 116.22 46.8681 115.556 45.733C114.892 44.598 113.885 43.7026 112.68 43.1757C111.476 42.6487 110.135 42.5173 108.85 42.8003C105.588 43.5247 104.158 46.4834 101.885 48.2975L110.742 57.1318ZM107.576 60.2134L98.9652 51.5829L96.3783 54.1859L105.006 62.8036L107.576 60.2134ZM85.8852 27.0428L77.8011 18.9426V27.0428H85.8852ZM66.6677 85.0315C66.1859 86.1374 65.6459 87.2951 65.19 88.4915C65.15 88.6512 65.1473 88.818 65.1821 88.9789C65.2168 89.1398 65.2881 89.2906 65.3905 89.4196C66.7842 90.8747 68.2134 92.2943 69.6621 93.6944C69.7771 93.7858 69.9114 93.8499 70.0548 93.8818C70.1982 93.9138 70.347 93.9127 70.4899 93.8787C71.709 93.4066 72.9022 92.8601 74.021 92.3783L66.6677 85.0315ZM82.5125 61.9725C80.1746 61.9725 77.9628 61.869 75.7736 62.0372C75.1463 62.0825 74.2894 62.8003 74.0695 63.405C73.8787 63.9321 74.2571 64.8925 74.6968 65.3743C75.4082 66.1568 76.3783 66.7066 77.1803 67.3145L82.5125 61.9725ZM66.0825 95.7769L63.2692 92.9604C62.9217 93.6451 62.6297 94.3566 62.3961 95.0881C62.3504 95.3071 62.353 95.5334 62.4039 95.7512C62.4547 95.969 62.5525 96.1731 62.6904 96.3492C62.8689 96.486 63.0748 96.5828 63.2941 96.633C63.5134 96.6833 63.7409 96.6857 63.9612 96.6403C64.6897 96.4081 65.3989 96.1194 66.0825 95.7769Z" fill="#1F140F"/>
<path d="M54.3962 54.1861H31.3501V50.3769H50.5481V23.292H31.3307V19.4116H54.3962V54.1861Z" fill="#1F140F"/>
<path d="M60.2651 104.563V108.34C59.9417 108.372 59.6184 108.427 59.3306 108.427C56.3125 108.427 53.2944 108.427 50.2764 108.427C48.3168 108.427 47.0007 107.489 46.3378 105.656C46.1502 104.998 45.9289 104.35 45.6749 103.715C45.4906 103.334 45.0929 103.069 44.7922 102.745C44.4741 103.059 44.1881 103.403 43.9385 103.774C43.7476 104.215 43.5867 104.669 43.4567 105.132C42.742 106.981 41.3871 108.11 39.447 108.394C37.4518 108.682 35.7994 107.951 34.5965 106.309C33.8657 105.297 33.2125 104.23 32.4817 103.217C32.3233 102.998 31.987 102.894 31.7348 102.749C31.5731 103.036 31.2821 103.324 31.2756 103.615C31.2271 105.177 31.2529 106.742 31.2529 108.369H27.5019C27.5019 106.276 27.3015 104.142 27.5634 102.063C27.7865 100.294 29.1802 99.1819 30.9199 98.8294C31.7508 98.6231 32.6248 98.6755 33.4252 98.9794C34.2255 99.2834 34.914 99.8245 35.3985 100.53C36.139 101.533 36.7566 102.629 37.5262 103.605C37.8334 103.994 38.4413 104.424 38.8487 104.365C39.2562 104.307 39.6733 103.719 39.9158 103.276C40.2392 102.684 40.3395 101.982 40.6434 101.368C41.4939 99.6734 42.8778 98.7615 44.7954 98.7583C45.6675 98.7231 46.5301 98.951 47.2711 99.4123C48.0121 99.8736 48.5972 100.547 48.9506 101.345C49.3236 102.103 49.6131 102.899 49.814 103.719C49.9918 104.414 50.3475 104.576 51.0104 104.569C53.6717 104.537 56.333 104.569 58.991 104.569L60.2651 104.563Z" fill="#1F140F"/>
<path d="M27.4309 65.746V62.0273H62.1698V65.746H27.4309Z" fill="#1F140F"/>
<path d="M58.4414 42.658H85.4034V46.3799H58.4414V42.658Z" fill="#1F140F"/>
<path d="M27.4341 73.4939V69.772H46.6386V73.4939H27.4341Z" fill="#1F140F"/>
<path d="M46.6839 77.5393V81.2612H27.4794V77.5393H46.6839Z" fill="#1F140F"/>
<path d="M85.3743 38.6743H70.0437V34.9524H85.3743V38.6743Z" fill="#1F140F"/>
<path d="M69.911 30.9297H58.4446V27.1819H69.911V30.9297Z" fill="#1F140F"/>
<path d="M62.1665 73.5296H50.7001V69.7786H62.1665V73.5296Z" fill="#1F140F"/>
<path d="M66.034 38.6709H58.4479V34.9329H66.034V38.6709Z" fill="#1F140F"/>
<path d="M62.1341 54.1697H58.4316V50.4058H62.1341V54.1697Z" fill="#1F140F"/>
<path d="M66.1891 50.4026H69.911V54.1213H66.1891V50.4026Z" fill="#1F140F"/>
<path d="M77.6653 50.4092V54.1311H73.924V50.4092H77.6653Z" fill="#1F140F"/>
</svg>
